<svg width="177" height="186" viewBox="0 0 177 186" fill="none" xmlns="http://www.w3.org/2000/svg">
<g clip-path="url(#clip0_1_1216)">
<path fill-rule="evenodd" clip-rule="evenodd" d="M0.5 10.8438C0.5 5.32091 4.97715 0.84375 10.5 0.84375H166.5C172.023 0.84375 176.5 5.3209 176.5 10.8438V134.997C176.5 138.733 174.418 142.157 171.1 143.876L94.6185 183.503C91.7797 184.974 88.4087 184.999 85.5486 183.57L6.03059 143.841C2.64125 142.148 0.5 138.684 0.5 134.896V10.8438Z" fill="#1D6CE3"/>
<path d="M131.551 58.1055C134.27 58.1055 136.486 60.321 136.486 63.0401V113.191C136.486 115.91 134.27 118.126 131.551 118.126H45.4487C42.7297 118.126 40.5142 115.91 40.5142 113.191V63.0401C40.5142 60.321 42.7297 58.1055 45.4487 58.1055H87.9462" stroke="white" stroke-width="3"/>
<path d="M64.5826 70.5928H49.6782V81.6704H64.5826V70.5928Z" stroke="white" stroke-width="3"/>
<path d="M122.286 43.504C117.05 42.497 112.719 40.3822 110 37.6631C107.281 40.3822 102.85 42.497 97.7144 43.504C94.4919 44.1083 91.2693 44.1083 88.5503 43.7054V61.4295C88.5503 75.0247 97.6137 80.9663 110 84.5916C122.387 80.9663 131.451 75.0247 131.451 61.4295V43.7054C128.732 44.1083 125.61 44.1083 122.286 43.504Z" stroke="white" stroke-width="3"/>
<path d="M121.078 60.5228C121.078 66.6658 116.143 71.6004 110 71.6004C103.857 71.6004 98.9229 66.6658 98.9229 60.5228C98.9229 54.3798 103.857 49.4453 110 49.4453C116.143 49.4453 121.078 54.3798 121.078 60.5228Z" stroke="white" stroke-width="3"/>
<path d="M114.734 56.293L108.994 63.4431L105.268 61.0262" stroke="white" stroke-width="3"/>
<path d="M62.8802 92.8435V95.4435H65.6802V106.844H68.9202V92.8435H62.8802ZM77.3523 107.084C80.8123 107.084 83.3523 104.464 83.3523 99.8435C83.3523 95.2235 80.8123 92.6035 77.3523 92.6035C73.9123 92.6035 71.3523 95.2235 71.3523 99.8435C71.3523 104.464 73.9123 107.084 77.3523 107.084ZM77.3523 104.344C75.7523 104.344 74.6323 103.024 74.6323 99.8435C74.6323 96.6635 75.7523 95.3435 77.3523 95.3435C78.9723 95.3435 80.0923 96.6635 80.0923 99.8435C80.0923 103.024 78.9723 104.344 77.3523 104.344ZM90.9265 107.084C94.3865 107.084 96.9265 104.464 96.9265 99.8435C96.9265 95.2235 94.3865 92.6035 90.9265 92.6035C87.4865 92.6035 84.9265 95.2235 84.9265 99.8435C84.9265 104.464 87.4865 107.084 90.9265 107.084ZM90.9265 104.344C89.3265 104.344 88.2065 103.024 88.2065 99.8435C88.2065 96.6635 89.3265 95.3435 90.9265 95.3435C92.5465 95.3435 93.6665 96.6635 93.6665 99.8435C93.6665 103.024 92.5465 104.344 90.9265 104.344ZM101.741 100.404C103.781 100.404 105.201 98.9235 105.201 96.5435C105.201 94.1635 103.781 92.6835 101.741 92.6835C99.7007 92.6835 98.2607 94.1835 98.2607 96.5435C98.2607 98.9035 99.7007 100.404 101.741 100.404ZM100.521 106.844H102.901L112.461 92.8435H110.081L100.521 106.844ZM101.741 98.7635C100.881 98.7635 100.281 98.0235 100.281 96.5435C100.281 95.0635 100.881 94.3235 101.741 94.3235C102.621 94.3235 103.201 95.0435 103.201 96.5435C103.201 98.0435 102.621 98.7635 101.741 98.7635ZM111.241 107.004C113.281 107.004 114.721 105.504 114.721 103.144C114.721 100.784 113.281 99.2835 111.241 99.2835C109.221 99.2835 107.781 100.784 107.781 103.144C107.781 105.504 109.221 107.004 111.241 107.004ZM111.241 105.364C110.381 105.364 109.781 104.644 109.781 103.144C109.781 101.644 110.381 100.924 111.241 100.924C112.121 100.924 112.701 101.664 112.701 103.144C112.701 104.624 112.121 105.364 111.241 105.364Z" fill="white"/>
</g>
<defs>
<clipPath id="clip0_1_1216">
<rect width="176" height="185" fill="white" transform="translate(0.5 0.84375)"/>
</clipPath>
</defs>
</svg>
