<svg width="30" height="30" viewBox="0 0 30 30" fill="none" xmlns="http://www.w3.org/2000/svg">
<path d="M0 7C0 5.89543 0.895431 5 2 5H28C29.1046 5 30 5.89543 30 7C30 8.10457 29.1046 9 28 9H2C0.89543 9 0 8.10457 0 7Z" fill="#1E1F24"/>
<path d="M0 15C0 13.8954 0.895431 13 2 13H28C29.1046 13 30 13.8954 30 15C30 16.1046 29.1046 17 28 17H2C0.89543 17 0 16.1046 0 15Z" fill="#1E1F24"/>
<path d="M0 23C0 21.8954 0.895431 21 2 21H28C29.1046 21 30 21.8954 30 23C30 24.1046 29.1046 25 28 25H2C0.89543 25 0 24.1046 0 23Z" fill="#1E1F24"/>
</svg>
