<svg width="155" height="40" viewBox="0 0 155 40" fill="none" xmlns="http://www.w3.org/2000/svg">
<mask id="mask0_1_307" style="mask-type:luminance" maskUnits="userSpaceOnUse" x="0" y="0" width="155" height="40">
<path d="M155 0.953125H0V39.9531H155V0.953125Z" fill="white"/>
</mask>
<g mask="url(#mask0_1_307)">
<path fill-rule="evenodd" clip-rule="evenodd" d="M13.7814 0.955078C10.9058 0.955078 7.49636 3.74994 4.68411 8.44864C1.75299 13.3149 0.00439453 19.3392 0.00439453 24.5708C0.00439453 32.2295 4.25582 39.9531 13.7822 39.9531C23.2971 39.9531 27.5599 32.2295 27.5599 24.5708C27.5599 19.3392 25.8121 13.3149 22.8952 8.44864C20.0566 3.74994 16.6475 0.955078 13.7814 0.955078ZM88.1778 12.4457H97.8223V37.8646H108.156V12.4457H117.796V3.04317H88.1778V12.4446V12.4457ZM139.841 12.4457H154.996V3.04317H139.841C125.917 3.04317 118.481 10.0417 118.481 20.4527C118.481 30.8637 125.917 37.8646 139.841 37.8646H154.996V28.4624H139.841C133.396 28.4624 129.161 26.134 129.161 20.4539C129.161 14.7738 133.396 12.4457 139.841 12.4457ZM67.1608 3.04317L61.6536 23.8266L56.1465 3.04317H37.8929V37.8646H48.2223V9.54184L55.7292 37.8646H67.5781L75.0889 9.52473V37.8646H85.4223V3.04317H67.1608Z" fill="#A3A4A6"/>
</g>
</svg>
