<svg width="37" height="37" viewBox="0 0 37 37" fill="none" xmlns="http://www.w3.org/2000/svg">
<path d="M0.5 18.7031C0.5 8.762 8.55888 0.703125 18.5 0.703125C28.4411 0.703125 36.5 8.762 36.5 18.7031C36.5 28.6443 28.4411 36.7031 18.5 36.7031C8.55888 36.7031 0.5 28.6443 0.5 18.7031Z" fill="#1D6CE3"/>
<path d="M18.1241 26.9348C17.3684 26.9238 16.6238 26.7859 15.8901 26.5211C15.162 26.2563 14.5001 25.815 13.9043 25.1972C13.3086 24.5794 12.8315 23.7493 12.4729 22.7067C12.1199 21.6642 11.9434 20.3624 11.9434 18.8013C11.9434 17.323 12.0895 16.0102 12.3819 14.8628C12.6798 13.7155 13.1073 12.7474 13.6644 11.9586C14.2215 11.1643 14.8945 10.5603 15.6833 10.1466C16.4721 9.73285 17.3574 9.52599 18.3393 9.52599C19.3487 9.52599 20.2451 9.72457 21.0284 10.1217C21.8117 10.5189 22.446 11.0677 22.9314 11.7683C23.4224 12.4688 23.734 13.2659 23.8664 14.1595H21.3428C21.1718 13.4535 20.8326 12.877 20.3251 12.4302C19.8176 11.9834 19.1557 11.76 18.3393 11.76C17.0982 11.76 16.1301 12.3006 15.435 13.3817C14.7455 14.4629 14.398 15.966 14.3925 17.8912H14.5166C14.809 17.4113 15.1675 17.0031 15.5923 16.6666C16.0225 16.3246 16.5024 16.0626 17.032 15.8805C17.567 15.693 18.1297 15.5992 18.7199 15.5992C19.7018 15.5992 20.5898 15.8392 21.3842 16.3191C22.184 16.7935 22.8211 17.4499 23.2955 18.2883C23.7699 19.1268 24.0071 20.0866 24.0071 21.1677C24.0071 22.2489 23.7616 23.228 23.2707 24.105C22.7853 24.9821 22.1013 25.6771 21.2187 26.1901C20.3361 26.6976 19.3046 26.9458 18.1241 26.9348ZM18.1159 24.7835C18.7668 24.7835 19.3487 24.6236 19.8617 24.3036C20.3747 23.9837 20.7801 23.5534 21.078 23.0129C21.3759 22.4723 21.5248 21.8683 21.5248 21.2008C21.5248 20.5499 21.3786 19.9569 21.0863 19.4219C20.7995 18.8868 20.4023 18.4621 19.8948 18.1477C19.3929 17.8332 18.8192 17.676 18.1738 17.676C17.6829 17.676 17.2278 17.7698 16.8086 17.9574C16.3949 18.1449 16.0308 18.4042 15.7164 18.7351C15.402 19.0661 15.1537 19.4467 14.9717 19.877C14.7952 20.3017 14.7069 20.7513 14.7069 21.2256C14.7069 21.86 14.8531 22.4475 15.1455 22.988C15.4433 23.5286 15.8488 23.9644 16.3618 24.2953C16.8803 24.6208 17.465 24.7835 18.1159 24.7835Z" fill="white"/>
</svg>
