<svg width="37" height="37" viewBox="0 0 37 37" fill="none" xmlns="http://www.w3.org/2000/svg">
<path d="M0.5 18.7031C0.5 8.762 8.55888 0.703125 18.5 0.703125C28.4411 0.703125 36.5 8.762 36.5 18.7031C36.5 28.6443 28.4411 36.7031 18.5 36.7031C8.55888 36.7031 0.5 28.6443 0.5 18.7031Z" fill="#1D6CE3"/>
<path d="M18.3888 26.9348C17.2525 26.9348 16.2376 26.739 15.344 26.3473C14.4559 25.9557 13.7526 25.4124 13.2341 24.7173C12.7211 24.0168 12.4453 23.2059 12.4066 22.2847H15.0047C15.0378 22.7867 15.2061 23.2225 15.5094 23.592C15.8183 23.9561 16.221 24.2374 16.7175 24.436C17.2139 24.6346 17.7655 24.7339 18.3723 24.7339C19.0397 24.7339 19.63 24.618 20.143 24.3864C20.6615 24.1547 21.0669 23.832 21.3593 23.4183C21.6516 22.9991 21.7978 22.5164 21.7978 21.9703C21.7978 21.4022 21.6516 20.9029 21.3593 20.4727C21.0724 20.0369 20.6504 19.6949 20.0933 19.4467C19.5417 19.1985 18.8743 19.0744 18.091 19.0744H16.6596V16.9893H18.091C18.7198 16.9893 19.2714 16.8762 19.7458 16.65C20.2257 16.4239 20.6008 16.1095 20.8711 15.7068C21.1414 15.2986 21.2765 14.8214 21.2765 14.2754C21.2765 13.7513 21.1579 13.2962 20.9207 12.9101C20.6891 12.5185 20.3581 12.2123 19.9278 11.9917C19.5031 11.771 19.0011 11.6607 18.4219 11.6607C17.8703 11.6607 17.3546 11.7628 16.8747 11.9669C16.4003 12.1654 16.0142 12.4523 15.7163 12.8274C15.4184 13.197 15.2585 13.641 15.2364 14.1595H12.7624C12.79 13.2438 13.0603 12.4385 13.5733 11.7435C14.0918 11.0484 14.7758 10.5051 15.6253 10.1135C16.4748 9.72182 17.418 9.52599 18.455 9.52599C19.5417 9.52599 20.4795 9.73836 21.2683 10.1631C22.0626 10.5823 22.6749 11.1422 23.1051 11.8428C23.5409 12.5433 23.756 13.31 23.7505 14.143C23.756 15.0917 23.4912 15.8971 22.9562 16.559C22.4266 17.221 21.7206 17.665 20.838 17.8912V18.0235C21.9633 18.1945 22.8348 18.6413 23.4526 19.364C24.0759 20.0866 24.3848 20.9829 24.3793 22.0531C24.3848 22.9853 24.1256 23.821 23.6016 24.5601C23.083 25.2993 22.3742 25.8812 21.4751 26.306C20.576 26.7252 19.5472 26.9348 18.3888 26.9348Z" fill="white"/>
</svg>
