<svg width="37" height="37" viewBox="0 0 37 37" fill="none" xmlns="http://www.w3.org/2000/svg">
<path d="M0.5 18.7031C0.5 8.762 8.55888 0.703125 18.5 0.703125C28.4411 0.703125 36.5 8.762 36.5 18.7031C36.5 28.6443 28.4411 36.7031 18.5 36.7031C8.55888 36.7031 0.5 28.6443 0.5 18.7031Z" fill="#1D6CE3"/>
<path d="M17.8796 26.9348C16.8426 26.9348 15.9103 26.7362 15.0829 26.3391C14.261 25.9364 13.6046 25.3848 13.1137 24.6842C12.6227 23.9837 12.3607 23.1839 12.3276 22.2847H14.8099C14.8705 23.0129 15.1932 23.6114 15.7779 24.0802C16.3627 24.5491 17.0632 24.7835 17.8796 24.7835C18.5305 24.7835 19.1069 24.6346 19.6089 24.3367C20.1164 24.0333 20.5135 23.6169 20.8004 23.0873C21.0927 22.5578 21.2389 21.9538 21.2389 21.2753C21.2389 20.5858 21.09 19.9707 20.7921 19.4301C20.4942 18.8896 20.0833 18.4648 19.5592 18.1559C19.0407 17.847 18.445 17.6898 17.772 17.6843C17.259 17.6843 16.7433 17.7726 16.2248 17.9491C15.7062 18.1256 15.287 18.3573 14.9671 18.6441L12.6255 18.2966L13.577 9.75767H22.8937V11.9503H15.7035L15.1657 16.6914H15.265C15.5959 16.3715 16.0344 16.1039 16.5805 15.8888C17.1321 15.6737 17.7224 15.5661 18.3512 15.5661C19.3827 15.5661 20.3011 15.8116 21.1065 16.3025C21.9174 16.7935 22.5545 17.4637 23.0178 18.3131C23.4867 19.1571 23.7184 20.1279 23.7129 21.2256C23.7184 22.3233 23.4701 23.3025 22.9682 24.163C22.4717 25.0235 21.7822 25.702 20.8996 26.1984C20.0226 26.6893 19.0159 26.9348 17.8796 26.9348Z" fill="white"/>
</svg>
