<svg width="37" height="37" viewBox="0 0 37 37" fill="none" xmlns="http://www.w3.org/2000/svg">
<path d="M0.5 18.7031C0.5 8.762 8.55888 0.703125 18.5 0.703125C28.4411 0.703125 36.5 8.762 36.5 18.7031C36.5 28.6443 28.4411 36.7031 18.5 36.7031C8.55888 36.7031 0.5 28.6443 0.5 18.7031Z" fill="#1D6CE3"/>
<path d="M12.5675 26.7031V24.8497L18.3015 18.9089C18.9138 18.2635 19.4185 17.6981 19.8157 17.2127C20.2183 16.7217 20.519 16.2556 20.7175 15.8143C20.9161 15.3731 21.0154 14.9042 21.0154 14.4077C21.0154 13.8451 20.883 13.3597 20.6183 12.9515C20.3535 12.5378 19.9922 12.2206 19.5343 12C19.0765 11.7738 18.5607 11.6607 17.9871 11.6607C17.3803 11.6607 16.8508 11.7848 16.3984 12.0331C15.9461 12.2813 15.5986 12.6316 15.3559 13.0839C15.1132 13.5362 14.9918 14.0657 14.9918 14.6725H12.551C12.551 13.641 12.7882 12.7391 13.2625 11.9669C13.7369 11.1946 14.3878 10.5961 15.2152 10.1714C16.0426 9.74112 16.9831 9.52599 18.0367 9.52599C19.1013 9.52599 20.0391 9.73836 20.8499 10.1631C21.6663 10.5823 22.3034 11.156 22.7613 11.8841C23.2191 12.6067 23.448 13.4231 23.448 14.3333C23.448 14.9621 23.3294 15.5772 23.0922 16.1784C22.8605 16.7797 22.4551 17.4499 21.8759 18.189C21.2967 18.9227 20.4914 19.8135 19.4599 20.8616L16.0923 24.3864V24.5105H23.7211V26.7031H12.5675Z" fill="white"/>
</svg>
