<svg width="21" height="21" viewBox="0 0 21 21" fill="none" xmlns="http://www.w3.org/2000/svg">
<path d="M1 6.34961C1 3.31204 3.46243 0.849609 6.5 0.849609H14.5C17.5376 0.849609 20 3.31204 20 6.34961V14.3496C20 17.3872 17.5376 19.8496 14.5 19.8496H6.5C3.46243 19.8496 1 17.3872 1 14.3496V6.34961Z" fill="white"/>
<path d="M1 6.34961C1 3.31204 3.46243 0.849609 6.5 0.849609H14.5C17.5376 0.849609 20 3.31204 20 6.34961V14.3496C20 17.3872 17.5376 19.8496 14.5 19.8496H6.5C3.46243 19.8496 1 17.3872 1 14.3496V6.34961Z" stroke="#7A8187"/>
</svg>
