<svg width="252" height="141" viewBox="0 0 252 141" fill="none" xmlns="http://www.w3.org/2000/svg">
<g clip-path="url(#clip0_1_1471)">
<path d="M21.1574 121.949C21.3404 118.699 22.9314 115.836 25.3324 113.806C27.6874 111.812 30.8564 110.594 34.3144 110.594C37.7694 110.594 40.9394 111.812 43.2954 113.806C45.6944 115.836 47.2864 118.699 47.4704 121.946C47.6524 125.285 46.3104 128.389 43.9554 130.688C41.5544 133.028 38.1394 134.494 34.3144 134.494C30.4904 134.494 27.0684 133.028 24.6694 130.688C22.3124 128.389 20.9734 125.285 21.1574 121.949Z" fill="white"/>
<path d="M27.5632 122.24C27.6572 120.573 28.4732 119.104 29.7052 118.062C30.9142 117.039 32.5402 116.414 34.3142 116.414C36.0872 116.414 37.7132 117.039 38.9222 118.062C40.1532 119.104 40.9702 120.573 41.0642 122.239C41.1582 123.952 40.4692 125.544 39.2612 126.724C38.0292 127.924 36.2762 128.677 34.3142 128.677C32.3522 128.677 30.5962 127.924 29.3652 126.724C28.1562 125.544 27.4692 123.952 27.5632 122.24Z" fill="#265787"/>
<path d="M16.815 125.613C16.826 126.265 17.034 127.534 17.346 128.524C18.003 130.62 19.115 132.56 20.664 134.269C22.253 136.025 24.21 137.437 26.471 138.438C28.846 139.49 31.4209 140.027 34.0949 140.022C36.7639 140.019 39.338 139.472 41.714 138.412C43.975 137.4 45.93 135.983 47.516 134.226C49.064 132.509 50.175 130.566 50.833 128.47C51.164 127.411 51.3729 126.336 51.4569 125.257C51.5389 124.195 51.504 123.13 51.353 122.067C51.059 119.994 50.3419 118.05 49.2379 116.277C48.2279 114.648 46.926 113.222 45.379 112.022L45.382 112.019L29.763 100.026C29.749 100.016 29.737 100.004 29.722 99.9948C28.697 99.2081 26.974 99.2107 25.847 99.9992C24.708 100.796 24.577 102.115 25.591 102.946L25.5869 102.951L32.102 108.248L12.245 108.269H12.219C10.578 108.271 8.99996 109.348 8.68796 110.709C8.36696 112.095 9.48196 113.245 11.188 113.251L11.185 113.257L21.25 113.238L3.29099 127.023C3.26799 127.04 3.24296 127.057 3.22196 127.074C1.52796 128.371 0.979966 130.529 2.04697 131.894C3.12997 133.282 5.43299 133.285 7.14499 131.902L16.946 123.88C16.946 123.88 16.803 124.963 16.815 125.613ZM42.0009 129.239C39.9809 131.297 37.1539 132.463 34.0949 132.47C31.0309 132.475 28.203 131.319 26.184 129.265C25.197 128.264 24.472 127.112 24.025 125.885C23.587 124.68 23.417 123.4 23.529 122.109C23.636 120.847 24.012 119.643 24.612 118.554C25.201 117.483 26.0119 116.516 27.0139 115.698C28.9769 114.098 31.476 113.232 34.09 113.228C36.707 113.225 39.204 114.083 41.169 115.677C42.169 116.492 42.9799 117.456 43.5689 118.525C44.1709 119.613 44.544 120.813 44.655 122.078C44.767 123.368 44.596 124.645 44.158 125.852C43.71 127.082 42.9879 128.234 42.0009 129.239Z" fill="#EA7600"/>
<path d="M84.9785 99.0983C84.9785 98.3943 84.6705 97.8002 84.0325 97.3382C83.3945 96.8542 82.6024 96.6123 81.6564 96.6123C80.0944 96.6123 78.8844 97.2943 78.3564 98.3723L76.6185 97.5362C77.4765 95.8422 79.3684 94.7643 81.6564 94.7643C83.1744 94.7643 84.4284 95.1822 85.4404 95.9962C86.4524 96.8102 86.9584 97.8222 86.9584 99.0322C86.9584 100.462 86.1225 101.738 84.7365 102.442C86.3425 103.168 87.3325 104.576 87.3325 106.182C87.3325 107.458 86.8044 108.514 85.7264 109.372C84.6484 110.23 83.3284 110.648 81.7444 110.648C79.2144 110.648 77.1904 109.438 76.3984 107.59L78.2684 106.908C78.7304 108.052 80.0724 108.8 81.7444 108.8C82.7784 108.8 83.6365 108.536 84.3185 108.03C85.0005 107.524 85.3525 106.864 85.3525 106.094C85.3525 105.324 85.0225 104.708 84.3405 104.202C83.6585 103.696 82.8225 103.432 81.8325 103.432H80.6664V101.65H81.5024C82.4924 101.65 83.3064 101.408 83.9664 100.924C84.6484 100.44 84.9785 99.8243 84.9785 99.0983ZM96.2615 110.406H90.1675V95.0062H96.2615C98.5055 95.0062 100.398 95.7542 101.915 97.2282C103.433 98.7022 104.203 100.528 104.203 102.706C104.203 104.884 103.433 106.71 101.915 108.184C100.398 109.658 98.5055 110.406 96.2615 110.406ZM96.2615 96.8542H92.1475V108.558H96.2615C97.9335 108.558 99.3195 107.986 100.442 106.864C101.563 105.742 102.135 104.356 102.135 102.706C102.135 101.034 101.563 99.6483 100.442 98.5263C99.3195 97.4043 97.9115 96.8542 96.2615 96.8542ZM106.79 105.544V103.828H112.642V105.544H106.79ZM117.535 100.748V110.406H115.687V98.9662H123.057V100.748H117.535ZM126.838 115.356H124.99V98.9662H126.838V100.594C127.916 99.3403 129.302 98.7243 130.996 98.7243C132.602 98.7243 133.944 99.2962 135.022 100.44C136.1 101.562 136.65 102.992 136.65 104.686C136.65 106.38 136.1 107.81 135.022 108.954C133.944 110.076 132.602 110.648 130.996 110.648C129.302 110.648 127.916 110.032 126.838 108.778V115.356ZM130.798 100.572C129.698 100.572 128.774 100.968 128.004 101.76C127.256 102.53 126.882 103.52 126.882 104.686C126.882 105.852 127.256 106.842 128.004 107.634C128.774 108.404 129.698 108.8 130.798 108.8C131.92 108.8 132.844 108.404 133.592 107.634C134.362 106.842 134.736 105.852 134.736 104.686C134.736 103.52 134.362 102.53 133.592 101.76C132.844 100.968 131.92 100.572 130.798 100.572ZM144.207 98.7243C145.901 98.7243 147.309 99.3403 148.387 100.594V98.9662H150.235V110.406H148.387V108.778C147.309 110.032 145.901 110.648 144.207 110.648C142.601 110.648 141.259 110.076 140.181 108.954C139.103 107.81 138.575 106.38 138.575 104.686C138.575 102.992 139.103 101.562 140.181 100.44C141.259 99.2962 142.601 98.7243 144.207 98.7243ZM144.405 100.572C143.305 100.572 142.381 100.968 141.611 101.76C140.863 102.53 140.489 103.52 140.489 104.686C140.489 105.852 140.863 106.842 141.611 107.634C142.381 108.404 143.305 108.8 144.405 108.8C145.527 108.8 146.451 108.404 147.199 107.634C147.969 106.842 148.343 105.852 148.343 104.686C148.343 103.52 147.969 102.53 147.199 101.76C146.451 100.968 145.527 100.572 144.405 100.572ZM162.061 110.648C161.731 110.648 161.511 110.648 161.357 110.626V115.356H159.509V110.626C159.355 110.648 159.113 110.648 158.805 110.648C157.111 110.648 155.681 110.076 154.537 108.954C153.393 107.81 152.821 106.38 152.821 104.686C152.821 102.992 153.393 101.562 154.537 100.44C155.681 99.2962 157.111 98.7243 158.805 98.7243C159.113 98.7243 159.355 98.7242 159.509 98.7462V93.9062H161.357V98.7462C161.511 98.7242 161.731 98.7243 162.061 98.7243C163.755 98.7243 165.185 99.2962 166.307 100.44C167.451 101.562 168.023 102.992 168.023 104.686C168.023 106.38 167.451 107.81 166.307 108.954C165.185 110.076 163.755 110.648 162.061 110.648ZM158.805 100.572C157.639 100.572 156.671 100.968 155.901 101.76C155.131 102.53 154.735 103.52 154.735 104.686C154.735 105.852 155.131 106.842 155.901 107.634C156.671 108.404 157.639 108.8 158.805 108.8C158.959 108.8 159.179 108.778 159.509 108.756V100.616C159.179 100.594 158.959 100.572 158.805 100.572ZM162.061 100.572C161.885 100.572 161.643 100.594 161.357 100.616V108.756C161.643 108.778 161.885 108.8 162.061 108.8C163.227 108.8 164.173 108.404 164.943 107.634C165.713 106.842 166.109 105.852 166.109 104.686C166.109 103.52 165.713 102.53 164.943 101.76C164.173 100.968 163.227 100.572 162.061 100.572ZM179.334 102.068L172.206 110.406H170.644V98.9662H172.492V107.348L179.62 98.9662H181.182V110.406H179.334V102.068ZM193.943 110.406H191.633L186.485 104.488L191.193 98.9662H193.459L188.773 104.488L193.943 110.406ZM186.177 98.9662V110.406H184.329V98.9662H186.177ZM200.346 98.7243C202.04 98.7243 203.448 99.3403 204.526 100.594V98.9662H206.374V110.406H204.526V108.778C203.448 110.032 202.04 110.648 200.346 110.648C198.74 110.648 197.398 110.076 196.32 108.954C195.242 107.81 194.714 106.38 194.714 104.686C194.714 102.992 195.242 101.562 196.32 100.44C197.398 99.2962 198.74 98.7243 200.346 98.7243ZM200.544 100.572C199.444 100.572 198.52 100.968 197.75 101.76C197.002 102.53 196.628 103.52 196.628 104.686C196.628 105.852 197.002 106.842 197.75 107.634C198.52 108.404 199.444 108.8 200.544 108.8C201.666 108.8 202.59 108.404 203.338 107.634C204.108 106.842 204.482 105.852 204.482 104.686C204.482 103.52 204.108 102.53 203.338 101.76C202.59 100.968 201.666 100.572 200.544 100.572ZM77.0585 127.966H82.9545C84.6485 127.966 85.9904 128.934 86.3204 130.32C86.3424 130.43 86.3864 130.584 86.4084 130.782C86.4084 131.86 86.0125 132.718 85.2205 133.334C86.2765 133.862 86.9584 134.896 86.9584 136.062C86.9584 137.03 86.6285 137.822 85.9465 138.46C85.2645 139.098 84.4284 139.406 83.4164 139.406H77.0585V127.966ZM78.9064 134.258V137.624H83.4164C84.3184 137.624 85.0225 136.898 85.0225 135.952C85.0225 134.984 84.3184 134.258 83.4164 134.258H78.9064ZM82.9545 129.748H78.9064V132.696H82.9545C83.8565 132.696 84.4944 132.08 84.4944 131.222C84.4944 130.364 83.8565 129.748 82.9545 129.748ZM103.261 139.406H95.5175V124.006H102.821C104.075 124.006 105.109 124.402 105.945 125.172C106.803 125.942 107.221 126.888 107.221 128.032C107.221 129.418 106.649 130.496 105.483 131.266C107.001 131.97 107.969 133.4 107.969 135.094C107.969 136.304 107.507 137.338 106.605 138.174C105.703 138.988 104.603 139.406 103.261 139.406ZM103.261 132.322H97.4974V137.558H103.261C104.757 137.558 105.901 136.436 105.901 134.94C105.901 134.214 105.637 133.598 105.131 133.092C104.625 132.586 104.009 132.322 103.261 132.322ZM102.821 125.854H97.4974V130.474H102.821C104.163 130.474 105.175 129.484 105.175 128.164C105.175 126.844 104.163 125.854 102.821 125.854ZM112.422 139.406H110.574V122.906H112.422V139.406ZM126.691 134.324H116.857C116.989 135.358 117.451 136.216 118.221 136.898C118.991 137.58 119.937 137.91 121.037 137.91C122.489 137.91 123.611 137.36 124.425 136.26L126.229 136.832C125.173 138.57 123.259 139.648 121.037 139.648C119.299 139.648 117.847 139.076 116.681 137.954C115.515 136.81 114.943 135.38 114.943 133.686C114.943 131.992 115.515 130.562 116.637 129.44C117.759 128.296 119.167 127.724 120.839 127.724C122.511 127.724 123.919 128.296 125.041 129.44C126.163 130.562 126.735 131.992 126.735 133.686C126.735 133.818 126.713 134.038 126.691 134.324ZM116.879 132.828H124.821C124.645 131.838 124.183 131.024 123.435 130.386C122.687 129.748 121.807 129.44 120.795 129.44C119.805 129.44 118.947 129.748 118.221 130.386C117.495 131.024 117.055 131.838 116.879 132.828ZM129.093 139.406V127.966H130.941V129.88C131.843 128.45 133.185 127.724 135.011 127.724C136.331 127.724 137.431 128.164 138.289 129.022C139.169 129.88 139.609 130.98 139.609 132.278V139.406H137.761V132.762C137.761 131.838 137.453 131.068 136.815 130.43C136.199 129.792 135.429 129.484 134.505 129.484C133.515 129.484 132.657 129.814 131.975 130.452C131.293 131.09 130.941 131.86 130.941 132.806V139.406H129.093ZM147.731 127.724C149.425 127.724 150.833 128.34 151.911 129.594V122.906H153.759V139.406H151.911V137.778C150.833 139.032 149.425 139.648 147.731 139.648C146.125 139.648 144.783 139.076 143.705 137.954C142.627 136.81 142.099 135.38 142.099 133.686C142.099 131.992 142.627 130.562 143.705 129.44C144.783 128.296 146.125 127.724 147.731 127.724ZM147.929 129.572C146.829 129.572 145.905 129.968 145.135 130.76C144.387 131.53 144.013 132.52 144.013 133.686C144.013 134.852 144.387 135.842 145.135 136.634C145.905 137.404 146.829 137.8 147.929 137.8C149.051 137.8 149.975 137.404 150.723 136.634C151.493 135.842 151.867 134.852 151.867 133.686C151.867 132.52 151.493 131.53 150.723 130.76C149.975 129.968 149.051 129.572 147.929 129.572ZM168.026 134.324H158.192C158.324 135.358 158.786 136.216 159.556 136.898C160.326 137.58 161.272 137.91 162.372 137.91C163.824 137.91 164.946 137.36 165.76 136.26L167.564 136.832C166.508 138.57 164.594 139.648 162.372 139.648C160.634 139.648 159.182 139.076 158.016 137.954C156.85 136.81 156.278 135.38 156.278 133.686C156.278 131.992 156.85 130.562 157.972 129.44C159.094 128.296 160.502 127.724 162.174 127.724C163.846 127.724 165.254 128.296 166.376 129.44C167.498 130.562 168.07 131.992 168.07 133.686C168.07 133.818 168.048 134.038 168.026 134.324ZM158.214 132.828H166.156C165.98 131.838 165.518 131.024 164.77 130.386C164.022 129.748 163.142 129.44 162.13 129.44C161.14 129.44 160.282 129.748 159.556 130.386C158.83 131.024 158.39 131.838 158.214 132.828ZM172.277 132.938V139.406H170.429V127.966H172.277V129.902C173.135 128.45 174.499 127.724 176.347 127.724H176.655V129.77C176.413 129.682 176.149 129.638 175.841 129.638C174.851 129.638 173.993 129.946 173.311 130.584C172.629 131.222 172.277 131.992 172.277 132.938Z" fill="#1E1F24"/>
<path d="M1.5 60.9062V0.90625" stroke="#1D6CE3" stroke-width="1.5" stroke-miterlimit="10"/>
<path d="M1.5 23.9062H251.5" stroke="#1D6CE3" stroke-width="1.5" stroke-miterlimit="10"/>
</g>
<defs>
<clipPath id="clip0_1_1471">
<rect width="251" height="140" fill="white" transform="translate(0.5 0.90625)"/>
</clipPath>
</defs>
</svg>
