<svg width="1160" height="149" viewBox="0 0 1160 149" fill="none" xmlns="http://www.w3.org/2000/svg">
<g clip-path="url(#clip0_1_1522)">
<path d="M10.564 94.4829C12.83 94.4829 14.722 95.2529 16.24 96.7709C17.758 98.2889 18.528 100.159 18.528 102.425C18.528 104.691 17.758 106.583 16.24 108.101C14.722 109.619 12.83 110.367 10.564 110.367C8.29801 110.367 6.40601 109.619 4.88801 108.101C3.37001 106.583 2.62201 104.691 2.62201 102.425C2.62201 100.159 3.37001 98.2889 4.88801 96.7709C6.40601 95.2529 8.29801 94.4829 10.564 94.4829ZM10.564 108.453C12.258 108.453 13.644 107.881 14.766 106.737C15.888 105.571 16.46 104.141 16.46 102.425C16.46 100.709 15.888 99.2789 14.766 98.1349C13.644 96.9689 12.258 96.3969 10.564 96.3969C8.89201 96.3969 7.48401 96.9689 6.36201 98.1349C5.24001 99.2789 4.66801 100.709 4.66801 102.425C4.66801 104.141 5.24001 105.571 6.36201 106.737C7.48401 107.881 8.89201 108.453 10.564 108.453ZM32.0188 101.897L30.1708 102.447C29.4888 101.127 28.1468 100.291 26.5628 100.291C25.4188 100.291 24.4508 100.687 23.6808 101.479C22.9108 102.249 22.5148 103.239 22.5148 104.405C22.5148 105.571 22.9108 106.561 23.6808 107.353C24.4508 108.123 25.4188 108.519 26.5628 108.519C28.1468 108.519 29.4888 107.683 30.1708 106.363L32.0188 106.913C31.0728 109.025 29.0268 110.367 26.5628 110.367C24.8688 110.367 23.4388 109.795 22.2948 108.673C21.1728 107.529 20.6008 106.099 20.6008 104.405C20.6008 102.711 21.1728 101.281 22.2948 100.159C23.4388 99.0149 24.8688 98.4429 26.5628 98.4429C29.0268 98.4429 31.0728 99.7849 32.0188 101.897ZM36.2127 105.197V110.125H34.3647V98.6849H36.2127V103.415H43.0327V98.6849H44.8807V110.125H43.0327V105.197H36.2127ZM49.1073 108.673C47.9853 107.529 47.4133 106.099 47.4133 104.405C47.4133 102.711 47.9853 101.281 49.1073 100.159C50.2513 99.0149 51.6813 98.4429 53.3753 98.4429C55.0693 98.4429 56.4993 99.0149 57.6433 100.159C58.7873 101.281 59.3593 102.711 59.3593 104.405C59.3593 106.099 58.7873 107.529 57.6433 108.673C56.4993 109.795 55.0693 110.367 53.3753 110.367C51.6813 110.367 50.2513 109.795 49.1073 108.673ZM53.3753 108.519C54.5413 108.519 55.5093 108.123 56.2793 107.353C57.0493 106.561 57.4453 105.571 57.4453 104.405C57.4453 103.239 57.0493 102.249 56.2793 101.479C55.5093 100.687 54.5413 100.291 53.3753 100.291C52.2313 100.291 51.2633 100.687 50.4933 101.479C49.7233 102.249 49.3273 103.239 49.3273 104.405C49.3273 105.571 49.7233 106.561 50.4933 107.353C51.2633 108.123 52.2313 108.519 53.3753 108.519ZM61.8862 98.6849H67.7822C69.4762 98.6849 70.8182 99.6529 71.1482 101.039C71.1702 101.149 71.2142 101.303 71.2362 101.501C71.2362 102.579 70.8402 103.437 70.0482 104.053C71.1042 104.581 71.7862 105.615 71.7862 106.781C71.7862 107.749 71.4562 108.541 70.7742 109.179C70.0922 109.817 69.2562 110.125 68.2442 110.125H61.8862V98.6849ZM63.7342 104.977V108.343H68.2442C69.1462 108.343 69.8502 107.617 69.8502 106.671C69.8502 105.703 69.1462 104.977 68.2442 104.977H63.7342ZM67.7822 100.467H63.7342V103.415H67.7822C68.6842 103.415 69.3222 102.799 69.3222 101.941C69.3222 101.083 68.6842 100.467 67.7822 100.467ZM79.8078 110.125H74.1538V98.6849H76.0018V102.821H79.8078C80.8638 102.821 81.7438 103.173 82.4478 103.877C83.1518 104.559 83.5038 105.439 83.5038 106.473C83.5038 108.475 82.0958 109.949 80.0938 110.125H79.8078ZM87.1998 110.125H85.3518V98.6849H87.1998V110.125ZM79.8078 104.603H76.0018V108.343H79.8078C80.7978 108.343 81.5898 107.529 81.5898 106.473C81.5898 105.417 80.7978 104.603 79.8078 104.603ZM105.983 110.125H103.673L98.5246 104.207L103.233 98.6849H105.499L100.813 104.207L105.983 110.125ZM98.2166 98.6849V110.125H96.3686V98.6849H98.2166ZM108.447 108.673C107.325 107.529 106.753 106.099 106.753 104.405C106.753 102.711 107.325 101.281 108.447 100.159C109.591 99.0149 111.021 98.4429 112.715 98.4429C114.409 98.4429 115.839 99.0149 116.983 100.159C118.127 101.281 118.699 102.711 118.699 104.405C118.699 106.099 118.127 107.529 116.983 108.673C115.839 109.795 114.409 110.367 112.715 110.367C111.021 110.367 109.591 109.795 108.447 108.673ZM112.715 108.519C113.881 108.519 114.849 108.123 115.619 107.353C116.389 106.561 116.785 105.571 116.785 104.405C116.785 103.239 116.389 102.249 115.619 101.479C114.849 100.687 113.881 100.291 112.715 100.291C111.571 100.291 110.603 100.687 109.833 101.479C109.063 102.249 108.667 103.239 108.667 104.405C108.667 105.571 109.063 106.561 109.833 107.353C110.603 108.123 111.571 108.519 112.715 108.519ZM123.074 102.161V110.125H121.226V98.6849H123.074L127.452 106.297L131.808 98.6849H133.656V110.125H131.808V102.205L128.024 108.805H126.88L123.074 102.161ZM138.65 100.467V110.125H136.802V98.6849H147.12V110.125H145.272V100.467H138.65ZM151.373 108.673C150.251 107.529 149.679 106.099 149.679 104.405C149.679 102.711 150.251 101.281 151.373 100.159C152.517 99.0149 153.947 98.4429 155.641 98.4429C157.335 98.4429 158.765 99.0149 159.909 100.159C161.053 101.281 161.625 102.711 161.625 104.405C161.625 106.099 161.053 107.529 159.909 108.673C158.765 109.795 157.335 110.367 155.641 110.367C153.947 110.367 152.517 109.795 151.373 108.673ZM155.641 108.519C156.807 108.519 157.775 108.123 158.545 107.353C159.315 106.561 159.711 105.571 159.711 104.405C159.711 103.239 159.315 102.249 158.545 101.479C157.775 100.687 156.807 100.291 155.641 100.291C154.497 100.291 153.529 100.687 152.759 101.479C151.989 102.249 151.593 103.239 151.593 104.405C151.593 105.571 151.989 106.561 152.759 107.353C153.529 108.123 154.497 108.519 155.641 108.519ZM163.213 107.221L165.083 106.715C165.589 107.969 166.623 108.607 168.185 108.607C169.967 108.607 171.287 107.727 171.287 106.583C171.287 105.681 170.517 104.999 169.483 104.999H166.667V103.437H169.351C170.341 103.437 171.067 102.821 171.067 102.029C171.067 100.995 169.835 100.203 168.229 100.203C166.667 100.203 165.655 100.841 165.149 102.095L163.279 101.589C163.983 99.6309 165.875 98.4429 168.317 98.4429C169.659 98.4429 170.759 98.7729 171.639 99.4109C172.541 100.049 172.981 100.841 172.981 101.787C172.981 102.777 172.497 103.591 171.551 104.185C172.651 104.779 173.201 105.659 173.201 106.825C173.201 107.837 172.739 108.673 171.793 109.355C170.847 110.037 169.659 110.367 168.229 110.367C165.765 110.367 163.917 109.223 163.213 107.221ZM184.443 101.787L177.315 110.125H175.753V98.6849H177.601V107.067L184.729 98.6849H186.291V110.125H184.443V101.787ZM189.439 110.125V98.6849H191.287V108.343H197.799V98.6849H199.647V108.343H201.759V113.425H199.911V110.125H189.439ZM212.502 101.787L205.374 110.125H203.812V98.6849H205.66V107.067L212.788 98.6849H214.35V110.125H212.502V101.787ZM226.188 101.787L219.06 110.125H217.498V98.6849H219.346V107.067L226.474 98.6849H228.036V110.125H226.188V101.787ZM3.06201 127.685H8.95801C10.652 127.685 11.994 128.653 12.324 130.039C12.346 130.149 12.39 130.303 12.412 130.501C12.412 131.579 12.016 132.437 11.224 133.053C12.28 133.581 12.962 134.615 12.962 135.781C12.962 136.749 12.632 137.541 11.95 138.179C11.268 138.817 10.432 139.125 9.42001 139.125H3.06201V127.685ZM4.91001 133.977V137.343H9.42001C10.322 137.343 11.026 136.617 11.026 135.671C11.026 134.703 10.322 133.977 9.42001 133.977H4.91001ZM8.95801 129.467H4.91001V132.415H8.95801C9.86001 132.415 10.498 131.799 10.498 130.941C10.498 130.083 9.86001 129.467 8.95801 129.467ZM23.2147 129.467V139.125H21.3667V127.685H28.7367V129.467H23.2147ZM32.5174 144.075H30.6694V127.685H32.5174V129.313C33.5954 128.059 34.9814 127.443 36.6754 127.443C38.2814 127.443 39.6234 128.015 40.7014 129.159C41.7794 130.281 42.3294 131.711 42.3294 133.405C42.3294 135.099 41.7794 136.529 40.7014 137.673C39.6234 138.795 38.2814 139.367 36.6754 139.367C34.9814 139.367 33.5954 138.751 32.5174 137.497V144.075ZM36.4774 129.291C35.3774 129.291 34.4534 129.687 33.6834 130.479C32.9354 131.249 32.5614 132.239 32.5614 133.405C32.5614 134.571 32.9354 135.561 33.6834 136.353C34.4534 137.123 35.3774 137.519 36.4774 137.519C37.5994 137.519 38.5234 137.123 39.2714 136.353C40.0414 135.561 40.4154 134.571 40.4154 133.405C40.4154 132.239 40.0414 131.249 39.2714 130.479C38.5234 129.687 37.5994 129.291 36.4774 129.291ZM49.8871 127.443C51.5811 127.443 52.9891 128.059 54.0671 129.313V127.685H55.9151V139.125H54.0671V137.497C52.9891 138.751 51.5811 139.367 49.8871 139.367C48.2811 139.367 46.9391 138.795 45.8611 137.673C44.7831 136.529 44.2551 135.099 44.2551 133.405C44.2551 131.711 44.7831 130.281 45.8611 129.159C46.9391 128.015 48.2811 127.443 49.8871 127.443ZM50.0851 129.291C48.9851 129.291 48.0611 129.687 47.2911 130.479C46.5431 131.249 46.1691 132.239 46.1691 133.405C46.1691 134.571 46.5431 135.561 47.2911 136.353C48.0611 137.123 48.9851 137.519 50.0851 137.519C51.2071 137.519 52.1311 137.123 52.8791 136.353C53.6491 135.561 54.0231 134.571 54.0231 133.405C54.0231 132.239 53.6491 131.249 52.8791 130.479C52.1311 129.687 51.2071 129.291 50.0851 129.291ZM67.7408 139.367C67.4108 139.367 67.1908 139.367 67.0368 139.345V144.075H65.1888V139.345C65.0348 139.367 64.7928 139.367 64.4848 139.367C62.7908 139.367 61.3608 138.795 60.2168 137.673C59.0728 136.529 58.5008 135.099 58.5008 133.405C58.5008 131.711 59.0728 130.281 60.2168 129.159C61.3608 128.015 62.7908 127.443 64.4848 127.443C64.7928 127.443 65.0348 127.443 65.1888 127.465V122.625H67.0368V127.465C67.1908 127.443 67.4108 127.443 67.7408 127.443C69.4348 127.443 70.8648 128.015 71.9868 129.159C73.1308 130.281 73.7028 131.711 73.7028 133.405C73.7028 135.099 73.1308 136.529 71.9868 137.673C70.8648 138.795 69.4348 139.367 67.7408 139.367ZM64.4848 129.291C63.3188 129.291 62.3508 129.687 61.5808 130.479C60.8108 131.249 60.4148 132.239 60.4148 133.405C60.4148 134.571 60.8108 135.561 61.5808 136.353C62.3508 137.123 63.3188 137.519 64.4848 137.519C64.6388 137.519 64.8588 137.497 65.1888 137.475V129.335C64.8588 129.313 64.6388 129.291 64.4848 129.291ZM67.7408 129.291C67.5648 129.291 67.3228 129.313 67.0368 129.335V137.475C67.3228 137.497 67.5648 137.519 67.7408 137.519C68.9068 137.519 69.8528 137.123 70.6228 136.353C71.3928 135.561 71.7888 134.571 71.7888 133.405C71.7888 132.239 71.3928 131.249 70.6228 130.479C69.8528 129.687 68.9068 129.291 67.7408 129.291ZM85.0137 130.787L77.8857 139.125H76.3237V127.685H78.1717V136.067L85.2997 127.685H86.8617V139.125H85.0137V130.787ZM89.4593 131.293V127.685H91.3733V131.293C91.3733 132.415 92.2533 133.163 93.9473 133.163C94.5853 133.163 95.6853 133.075 97.2473 132.899V127.685H99.0953V139.125H97.2473V134.681C95.6853 134.857 94.5413 134.945 93.8153 134.945C92.4733 134.945 91.4173 134.593 90.6253 133.911C89.8553 133.229 89.4593 132.349 89.4593 131.293ZM113.366 134.043H103.532C103.664 135.077 104.126 135.935 104.896 136.617C105.666 137.299 106.612 137.629 107.712 137.629C109.164 137.629 110.286 137.079 111.1 135.979L112.904 136.551C111.848 138.289 109.934 139.367 107.712 139.367C105.974 139.367 104.522 138.795 103.356 137.673C102.19 136.529 101.618 135.099 101.618 133.405C101.618 131.711 102.19 130.281 103.312 129.159C104.434 128.015 105.842 127.443 107.514 127.443C109.186 127.443 110.594 128.015 111.716 129.159C112.838 130.281 113.41 131.711 113.41 133.405C113.41 133.537 113.388 133.757 113.366 134.043ZM103.554 132.547H111.496C111.32 131.557 110.858 130.743 110.11 130.105C109.362 129.467 108.482 129.159 107.47 129.159C106.48 129.159 105.622 129.467 104.896 130.105C104.17 130.743 103.73 131.557 103.554 132.547ZM126.593 130.897L124.745 131.447C124.063 130.127 122.721 129.291 121.137 129.291C119.993 129.291 119.025 129.687 118.255 130.479C117.485 131.249 117.089 132.239 117.089 133.405C117.089 134.571 117.485 135.561 118.255 136.353C119.025 137.123 119.993 137.519 121.137 137.519C122.721 137.519 124.063 136.683 124.745 135.363L126.593 135.913C125.647 138.025 123.601 139.367 121.137 139.367C119.443 139.367 118.013 138.795 116.869 137.673C115.747 136.529 115.175 135.099 115.175 133.405C115.175 131.711 115.747 130.281 116.869 129.159C118.013 128.015 119.443 127.443 121.137 127.443C123.601 127.443 125.647 128.785 126.593 130.897ZM138.553 139.125H136.243L131.095 133.207L135.803 127.685H138.069L133.383 133.207L138.553 139.125ZM130.787 127.685V139.125H128.939V127.685H130.787ZM141.017 137.673C139.895 136.529 139.323 135.099 139.323 133.405C139.323 131.711 139.895 130.281 141.017 129.159C142.161 128.015 143.591 127.443 145.285 127.443C146.979 127.443 148.409 128.015 149.553 129.159C150.697 130.281 151.269 131.711 151.269 133.405C151.269 135.099 150.697 136.529 149.553 137.673C148.409 138.795 146.979 139.367 145.285 139.367C143.591 139.367 142.161 138.795 141.017 137.673ZM145.285 137.519C146.451 137.519 147.419 137.123 148.189 136.353C148.959 135.561 149.355 134.571 149.355 133.405C149.355 132.239 148.959 131.249 148.189 130.479C147.419 129.687 146.451 129.291 145.285 129.291C144.141 129.291 143.173 129.687 142.403 130.479C141.633 131.249 141.237 132.239 141.237 133.405C141.237 134.571 141.633 135.561 142.403 136.353C143.173 137.123 144.141 137.519 145.285 137.519ZM155.644 131.161V139.125H153.796V127.685H155.644L160.022 135.297L164.378 127.685H166.226V139.125H164.378V131.205L160.594 137.805H159.45L155.644 131.161ZM176.18 139.125V142.425H174.332V137.343H176.048C176.708 136.749 177.038 135.473 177.038 133.515V127.685H186.014V137.343H188.104V142.425H186.256V139.125H176.18ZM178.094 137.343H184.166V129.467H178.886V133.559C178.886 135.143 178.622 136.397 178.094 137.343ZM198.838 130.787L191.71 139.125H190.148V127.685H191.996V136.067L199.124 127.685H200.686V139.125H198.838V130.787ZM203.173 136.221L205.043 135.715C205.549 136.969 206.583 137.607 208.145 137.607C209.927 137.607 211.247 136.727 211.247 135.583C211.247 134.681 210.477 133.999 209.443 133.999H206.627V132.437H209.311C210.301 132.437 211.027 131.821 211.027 131.029C211.027 129.995 209.795 129.203 208.189 129.203C206.627 129.203 205.615 129.841 205.109 131.095L203.239 130.589C203.943 128.631 205.835 127.443 208.277 127.443C209.619 127.443 210.719 127.773 211.599 128.411C212.501 129.049 212.941 129.841 212.941 130.787C212.941 131.777 212.457 132.591 211.511 133.185C212.611 133.779 213.161 134.659 213.161 135.825C213.161 136.837 212.699 137.673 211.753 138.355C210.807 139.037 209.619 139.367 208.189 139.367C205.725 139.367 203.877 138.223 203.173 136.221ZM220.752 127.443C222.446 127.443 223.854 128.059 224.932 129.313V127.685H226.78V139.125H224.932V137.497C223.854 138.751 222.446 139.367 220.752 139.367C219.146 139.367 217.804 138.795 216.726 137.673C215.648 136.529 215.12 135.099 215.12 133.405C215.12 131.711 215.648 130.281 216.726 129.159C217.804 128.015 219.146 127.443 220.752 127.443ZM220.95 129.291C219.85 129.291 218.926 129.687 218.156 130.479C217.408 131.249 217.034 132.239 217.034 133.405C217.034 134.571 217.408 135.561 218.156 136.353C218.926 137.123 219.85 137.519 220.95 137.519C222.072 137.519 222.996 137.123 223.744 136.353C224.514 135.561 224.888 134.571 224.888 133.405C224.888 132.239 224.514 131.249 223.744 130.479C222.996 129.687 222.072 129.291 220.95 129.291ZM238.584 130.787L231.456 139.125H229.894V127.685H231.742V136.067L238.87 127.685H240.432V139.125H238.584V130.787ZM231.522 122.889H233.106C233.106 123.967 233.964 124.759 235.174 124.759C236.384 124.759 237.242 123.967 237.242 122.889H238.804C238.804 123.857 238.452 124.671 237.77 125.309C237.088 125.947 236.208 126.255 235.174 126.255C234.14 126.255 233.26 125.947 232.556 125.309C231.874 124.671 231.522 123.857 231.522 122.889ZM245.428 134.197V139.125H243.58V127.685H245.428V132.415H252.248V127.685H254.096V139.125H252.248V134.197H245.428ZM268.376 134.043H258.542C258.674 135.077 259.136 135.935 259.906 136.617C260.676 137.299 261.622 137.629 262.722 137.629C264.174 137.629 265.296 137.079 266.11 135.979L267.914 136.551C266.858 138.289 264.944 139.367 262.722 139.367C260.984 139.367 259.532 138.795 258.366 137.673C257.2 136.529 256.628 135.099 256.628 133.405C256.628 131.711 257.2 130.281 258.322 129.159C259.444 128.015 260.852 127.443 262.524 127.443C264.196 127.443 265.604 128.015 266.726 129.159C267.848 130.281 268.42 131.711 268.42 133.405C268.42 133.537 268.398 133.757 268.376 134.043ZM258.564 132.547H266.506C266.33 131.557 265.868 130.743 265.12 130.105C264.372 129.467 263.492 129.159 262.48 129.159C261.49 129.159 260.632 129.467 259.906 130.105C259.18 130.743 258.74 131.557 258.564 132.547Z" fill="#1E1F24"/>
<path d="M355.858 96.573H350.094V94.725H363.602V96.573H357.838V110.125H355.858V96.573ZM372.686 101.787L365.558 110.125H363.996V98.685H365.844V107.067L372.972 98.685H374.534V110.125H372.686V101.787ZM379.529 100.467V110.125H377.681V98.685H387.999V110.125H386.151V100.467H379.529ZM392.252 108.673C391.13 107.529 390.558 106.099 390.558 104.405C390.558 102.711 391.13 101.281 392.252 100.159C393.396 99.015 394.826 98.443 396.52 98.443C398.214 98.443 399.644 99.015 400.788 100.159C401.932 101.281 402.504 102.711 402.504 104.405C402.504 106.099 401.932 107.529 400.788 108.673C399.644 109.795 398.214 110.367 396.52 110.367C394.826 110.367 393.396 109.795 392.252 108.673ZM396.52 108.519C397.686 108.519 398.654 108.123 399.424 107.353C400.194 106.561 400.59 105.571 400.59 104.405C400.59 103.239 400.194 102.249 399.424 101.479C398.654 100.687 397.686 100.291 396.52 100.291C395.376 100.291 394.408 100.687 393.638 101.479C392.868 102.249 392.472 103.239 392.472 104.405C392.472 105.571 392.868 106.561 393.638 107.353C394.408 108.123 395.376 108.519 396.52 108.519ZM406.879 100.467V110.125H405.031V98.685H412.401V100.467H406.879ZM416.181 115.075H414.333V98.685H416.181V100.313C417.259 99.059 418.645 98.443 420.339 98.443C421.945 98.443 423.287 99.015 424.365 100.159C425.443 101.281 425.993 102.711 425.993 104.405C425.993 106.099 425.443 107.529 424.365 108.673C423.287 109.795 421.945 110.367 420.339 110.367C418.645 110.367 417.259 109.751 416.181 108.497V115.075ZM420.141 100.291C419.041 100.291 418.117 100.687 417.347 101.479C416.599 102.249 416.225 103.239 416.225 104.405C416.225 105.571 416.599 106.561 417.347 107.353C418.117 108.123 419.041 108.519 420.141 108.519C421.263 108.519 422.187 108.123 422.935 107.353C423.705 106.561 424.079 105.571 424.079 104.405C424.079 103.239 423.705 102.249 422.935 101.479C422.187 100.687 421.263 100.291 420.141 100.291ZM433.551 98.443C435.245 98.443 436.653 99.059 437.731 100.313V98.685H439.579V110.125H437.731V108.497C436.653 109.751 435.245 110.367 433.551 110.367C431.945 110.367 430.603 109.795 429.525 108.673C428.447 107.529 427.919 106.099 427.919 104.405C427.919 102.711 428.447 101.281 429.525 100.159C430.603 99.015 431.945 98.443 433.551 98.443ZM433.749 100.291C432.649 100.291 431.725 100.687 430.955 101.479C430.207 102.249 429.833 103.239 429.833 104.405C429.833 105.571 430.207 106.561 430.955 107.353C431.725 108.123 432.649 108.519 433.749 108.519C434.871 108.519 435.795 108.123 436.543 107.353C437.313 106.561 437.687 105.571 437.687 104.405C437.687 103.239 437.313 102.249 436.543 101.479C435.795 100.687 434.871 100.291 433.749 100.291ZM451.405 110.367C451.075 110.367 450.855 110.367 450.701 110.345V115.075H448.853V110.345C448.699 110.367 448.457 110.367 448.149 110.367C446.455 110.367 445.025 109.795 443.881 108.673C442.737 107.529 442.165 106.099 442.165 104.405C442.165 102.711 442.737 101.281 443.881 100.159C445.025 99.015 446.455 98.443 448.149 98.443C448.457 98.443 448.699 98.443 448.853 98.465V93.625H450.701V98.465C450.855 98.443 451.075 98.443 451.405 98.443C453.099 98.443 454.529 99.015 455.651 100.159C456.795 101.281 457.367 102.711 457.367 104.405C457.367 106.099 456.795 107.529 455.651 108.673C454.529 109.795 453.099 110.367 451.405 110.367ZM448.149 100.291C446.983 100.291 446.015 100.687 445.245 101.479C444.475 102.249 444.079 103.239 444.079 104.405C444.079 105.571 444.475 106.561 445.245 107.353C446.015 108.123 446.983 108.519 448.149 108.519C448.303 108.519 448.523 108.497 448.853 108.475V100.335C448.523 100.313 448.303 100.291 448.149 100.291ZM451.405 100.291C451.229 100.291 450.987 100.313 450.701 100.335V108.475C450.987 108.497 451.229 108.519 451.405 108.519C452.571 108.519 453.517 108.123 454.287 107.353C455.057 106.561 455.453 105.571 455.453 104.405C455.453 103.239 455.057 102.249 454.287 101.479C453.517 100.687 452.571 100.291 451.405 100.291ZM468.678 101.787L461.55 110.125H459.988V98.685H461.836V107.067L468.964 98.685H470.526V110.125H468.678V101.787ZM483.287 110.125H480.977L475.829 104.207L480.537 98.685H482.803L478.117 104.207L483.287 110.125ZM475.521 98.685V110.125H473.673V98.685H475.521ZM489.69 98.443C491.384 98.443 492.792 99.059 493.87 100.313V98.685H495.718V110.125H493.87V108.497C492.792 109.751 491.384 110.367 489.69 110.367C488.084 110.367 486.742 109.795 485.664 108.673C484.586 107.529 484.058 106.099 484.058 104.405C484.058 102.711 484.586 101.281 485.664 100.159C486.742 99.015 488.084 98.443 489.69 98.443ZM489.888 100.291C488.788 100.291 487.864 100.687 487.094 101.479C486.346 102.249 485.972 103.239 485.972 104.405C485.972 105.571 486.346 106.561 487.094 107.353C487.864 108.123 488.788 108.519 489.888 108.519C491.01 108.519 491.934 108.123 492.682 107.353C493.452 106.561 493.826 105.571 493.826 104.405C493.826 103.239 493.452 102.249 492.682 101.479C491.934 100.687 491.01 100.291 489.888 100.291ZM359.752 130.787L352.624 139.125H351.062V127.685H352.91V136.067L360.038 127.685H361.6V139.125H359.752V130.787ZM372.633 144.075H370.785V127.685H372.633V129.313C373.711 128.059 375.097 127.443 376.791 127.443C378.397 127.443 379.739 128.015 380.817 129.159C381.895 130.281 382.445 131.711 382.445 133.405C382.445 135.099 381.895 136.529 380.817 137.673C379.739 138.795 378.397 139.367 376.791 139.367C375.097 139.367 373.711 138.751 372.633 137.497V144.075ZM376.593 129.291C375.493 129.291 374.569 129.687 373.799 130.479C373.051 131.249 372.677 132.239 372.677 133.405C372.677 134.571 373.051 135.561 373.799 136.353C374.569 137.123 375.493 137.519 376.593 137.519C377.715 137.519 378.639 137.123 379.387 136.353C380.157 135.561 380.531 134.571 380.531 133.405C380.531 132.239 380.157 131.249 379.387 130.479C378.639 129.687 377.715 129.291 376.593 129.291ZM390.002 127.443C391.696 127.443 393.104 128.059 394.182 129.313V127.685H396.03V139.125H394.182V137.497C393.104 138.751 391.696 139.367 390.002 139.367C388.396 139.367 387.054 138.795 385.976 137.673C384.898 136.529 384.37 135.099 384.37 133.405C384.37 131.711 384.898 130.281 385.976 129.159C387.054 128.015 388.396 127.443 390.002 127.443ZM390.2 129.291C389.1 129.291 388.176 129.687 387.406 130.479C386.658 131.249 386.284 132.239 386.284 133.405C386.284 134.571 386.658 135.561 387.406 136.353C388.176 137.123 389.1 137.519 390.2 137.519C391.322 137.519 392.246 137.123 392.994 136.353C393.764 135.561 394.138 134.571 394.138 133.405C394.138 132.239 393.764 131.249 392.994 130.479C392.246 129.687 391.322 129.291 390.2 129.291ZM398.616 130.809C398.616 125.727 400.794 123.241 405.392 122.801C407.306 122.603 408.714 122.449 409.572 122.383V124.231C407.768 124.407 406.426 124.539 405.524 124.649C401.894 125.001 400.42 126.981 400.508 130.589C401.146 128.719 402.884 127.443 405.106 127.443C406.734 127.443 408.098 128.015 409.22 129.159C410.342 130.303 410.892 131.733 410.892 133.427C410.892 135.121 410.32 136.551 409.198 137.673C408.076 138.795 406.69 139.367 404.996 139.367C403.17 139.367 401.652 138.641 400.442 137.211C399.232 135.781 398.616 133.647 398.616 130.809ZM405.04 137.519C406.162 137.519 407.086 137.123 407.834 136.353C408.582 135.561 408.956 134.571 408.956 133.405C408.956 132.239 408.582 131.249 407.834 130.479C407.086 129.687 406.162 129.291 405.04 129.291C403.918 129.291 402.972 129.687 402.202 130.479C401.454 131.249 401.08 132.239 401.08 133.405C401.08 134.571 401.454 135.561 402.202 136.353C402.972 137.123 403.918 137.519 405.04 137.519ZM414.531 137.673C413.409 136.529 412.837 135.099 412.837 133.405C412.837 131.711 413.409 130.281 414.531 129.159C415.675 128.015 417.105 127.443 418.799 127.443C420.493 127.443 421.923 128.015 423.067 129.159C424.211 130.281 424.783 131.711 424.783 133.405C424.783 135.099 424.211 136.529 423.067 137.673C421.923 138.795 420.493 139.367 418.799 139.367C417.105 139.367 415.675 138.795 414.531 137.673ZM418.799 137.519C419.965 137.519 420.933 137.123 421.703 136.353C422.473 135.561 422.869 134.571 422.869 133.405C422.869 132.239 422.473 131.249 421.703 130.479C420.933 129.687 419.965 129.291 418.799 129.291C417.655 129.291 416.687 129.687 415.917 130.479C415.147 131.249 414.751 132.239 414.751 133.405C414.751 134.571 415.147 135.561 415.917 136.353C416.687 137.123 417.655 137.519 418.799 137.519ZM430.133 139.125V129.467H425.843V127.685H436.271V129.467H431.981V139.125H430.133ZM442.704 127.443C444.398 127.443 445.806 128.059 446.884 129.313V127.685H448.732V139.125H446.884V137.497C445.806 138.751 444.398 139.367 442.704 139.367C441.098 139.367 439.756 138.795 438.678 137.673C437.6 136.529 437.072 135.099 437.072 133.405C437.072 131.711 437.6 130.281 438.678 129.159C439.756 128.015 441.098 127.443 442.704 127.443ZM442.902 129.291C441.802 129.291 440.878 129.687 440.108 130.479C439.36 131.249 438.986 132.239 438.986 133.405C438.986 134.571 439.36 135.561 440.108 136.353C440.878 137.123 441.802 137.519 442.902 137.519C444.024 137.519 444.948 137.123 445.696 136.353C446.466 135.561 446.84 134.571 446.84 133.405C446.84 132.239 446.466 131.249 445.696 130.479C444.948 129.687 444.024 129.291 442.902 129.291ZM468.706 130.897L466.858 131.447C466.176 130.127 464.834 129.291 463.25 129.291C462.106 129.291 461.138 129.687 460.368 130.479C459.598 131.249 459.202 132.239 459.202 133.405C459.202 134.571 459.598 135.561 460.368 136.353C461.138 137.123 462.106 137.519 463.25 137.519C464.834 137.519 466.176 136.683 466.858 135.363L468.706 135.913C467.76 138.025 465.714 139.367 463.25 139.367C461.556 139.367 460.126 138.795 458.982 137.673C457.86 136.529 457.288 135.099 457.288 133.405C457.288 131.711 457.86 130.281 458.982 129.159C460.126 128.015 461.556 127.443 463.25 127.443C465.714 127.443 467.76 128.785 468.706 130.897ZM480.191 139.125V129.467H475.901V127.685H486.329V129.467H482.039V139.125H480.191ZM498.878 134.043H489.044C489.176 135.077 489.638 135.935 490.408 136.617C491.178 137.299 492.124 137.629 493.224 137.629C494.676 137.629 495.798 137.079 496.612 135.979L498.416 136.551C497.36 138.289 495.446 139.367 493.224 139.367C491.486 139.367 490.034 138.795 488.868 137.673C487.702 136.529 487.13 135.099 487.13 133.405C487.13 131.711 487.702 130.281 488.824 129.159C489.946 128.015 491.354 127.443 493.026 127.443C494.698 127.443 496.106 128.015 497.228 129.159C498.35 130.281 498.922 131.711 498.922 133.405C498.922 133.537 498.9 133.757 498.878 134.043ZM489.066 132.547H497.008C496.832 131.557 496.37 130.743 495.622 130.105C494.874 129.467 493.994 129.159 492.982 129.159C491.992 129.159 491.134 129.467 490.408 130.105C489.682 130.743 489.242 131.557 489.066 132.547ZM510.895 139.125H508.585L503.437 133.207L508.145 127.685H510.411L505.725 133.207L510.895 139.125ZM503.129 127.685V139.125H501.281V127.685H503.129ZM523.083 130.897L521.235 131.447C520.553 130.127 519.211 129.291 517.627 129.291C516.483 129.291 515.515 129.687 514.745 130.479C513.975 131.249 513.579 132.239 513.579 133.405C513.579 134.571 513.975 135.561 514.745 136.353C515.515 137.123 516.483 137.519 517.627 137.519C519.211 137.519 520.553 136.683 521.235 135.363L523.083 135.913C522.137 138.025 520.091 139.367 517.627 139.367C515.933 139.367 514.503 138.795 513.359 137.673C512.237 136.529 511.665 135.099 511.665 133.405C511.665 131.711 512.237 130.281 513.359 129.159C514.503 128.015 515.933 127.443 517.627 127.443C520.091 127.443 522.137 128.785 523.083 130.897ZM528.531 139.125V129.467H524.241V127.685H534.669V129.467H530.379V139.125H528.531ZM537.164 137.673C536.042 136.529 535.47 135.099 535.47 133.405C535.47 131.711 536.042 130.281 537.164 129.159C538.308 128.015 539.738 127.443 541.432 127.443C543.126 127.443 544.556 128.015 545.7 129.159C546.844 130.281 547.416 131.711 547.416 133.405C547.416 135.099 546.844 136.529 545.7 137.673C544.556 138.795 543.126 139.367 541.432 139.367C539.738 139.367 538.308 138.795 537.164 137.673ZM541.432 137.519C542.598 137.519 543.566 137.123 544.336 136.353C545.106 135.561 545.502 134.571 545.502 133.405C545.502 132.239 545.106 131.249 544.336 130.479C543.566 129.687 542.598 129.291 541.432 129.291C540.288 129.291 539.32 129.687 538.55 130.479C537.78 131.249 537.384 132.239 537.384 133.405C537.384 134.571 537.78 135.561 538.55 136.353C539.32 137.123 540.288 137.519 541.432 137.519ZM551.791 131.161V139.125H549.943V127.685H551.791L556.169 135.297L560.525 127.685H562.373V139.125H560.525V131.205L556.741 137.805H555.597L551.791 131.161Z" fill="#1E1F24"/>
<path d="M650.858 96.5731H645.094V94.7251H658.602V96.5731H652.838V110.125H650.858V96.5731ZM670.021 105.043H660.187C660.319 106.077 660.781 106.935 661.551 107.617C662.321 108.299 663.267 108.629 664.367 108.629C665.819 108.629 666.941 108.079 667.755 106.979L669.559 107.551C668.503 109.289 666.589 110.367 664.367 110.367C662.629 110.367 661.177 109.795 660.011 108.673C658.845 107.529 658.273 106.099 658.273 104.405C658.273 102.711 658.845 101.281 659.967 100.159C661.089 99.0151 662.497 98.4431 664.169 98.4431C665.841 98.4431 667.249 99.0151 668.371 100.159C669.493 101.281 670.065 102.711 670.065 104.405C670.065 104.537 670.043 104.757 670.021 105.043ZM660.209 103.547H668.151C667.975 102.557 667.513 101.743 666.765 101.105C666.017 100.467 665.137 100.159 664.125 100.159C663.135 100.159 662.277 100.467 661.551 101.105C660.825 101.743 660.385 102.557 660.209 103.547ZM673.523 108.673C672.401 107.529 671.829 106.099 671.829 104.405C671.829 102.711 672.401 101.281 673.523 100.159C674.667 99.0151 676.097 98.4431 677.791 98.4431C679.485 98.4431 680.915 99.0151 682.059 100.159C683.203 101.281 683.775 102.711 683.775 104.405C683.775 106.099 683.203 107.529 682.059 108.673C680.915 109.795 679.485 110.367 677.791 110.367C676.097 110.367 674.667 109.795 673.523 108.673ZM677.791 108.519C678.957 108.519 679.925 108.123 680.695 107.353C681.465 106.561 681.861 105.571 681.861 104.405C681.861 103.239 681.465 102.249 680.695 101.479C679.925 100.687 678.957 100.291 677.791 100.291C676.647 100.291 675.679 100.687 674.909 101.479C674.139 102.249 673.743 103.239 673.743 104.405C673.743 105.571 674.139 106.561 674.909 107.353C675.679 108.123 676.647 108.519 677.791 108.519ZM688.15 115.075H686.302V98.6851H688.15V100.313C689.228 99.0591 690.614 98.4431 692.308 98.4431C693.914 98.4431 695.256 99.0151 696.334 100.159C697.412 101.281 697.962 102.711 697.962 104.405C697.962 106.099 697.412 107.529 696.334 108.673C695.256 109.795 693.914 110.367 692.308 110.367C690.614 110.367 689.228 109.751 688.15 108.497V115.075ZM692.11 100.291C691.01 100.291 690.086 100.687 689.316 101.479C688.568 102.249 688.194 103.239 688.194 104.405C688.194 105.571 688.568 106.561 689.316 107.353C690.086 108.123 691.01 108.519 692.11 108.519C693.232 108.519 694.156 108.123 694.904 107.353C695.674 106.561 696.048 105.571 696.048 104.405C696.048 103.239 695.674 102.249 694.904 101.479C694.156 100.687 693.232 100.291 692.11 100.291ZM709.172 101.787L702.044 110.125H700.482V98.6851H702.33V107.067L709.458 98.6851H711.02V110.125H709.172V101.787ZM718.765 105.967L715.861 110.125H713.683L716.631 105.901C714.937 105.549 713.749 104.097 713.749 102.315C713.749 101.281 714.101 100.401 714.783 99.7191C715.487 99.0371 716.367 98.6851 717.401 98.6851H723.627V110.125H721.779V105.967H718.765ZM717.401 104.185H721.779V100.467H717.401C716.411 100.467 715.663 101.259 715.663 102.315C715.663 103.371 716.411 104.185 717.401 104.185ZM732.794 110.125V98.6851H734.642V108.343H741.154V98.6851H743.002V108.343H745.114V113.425H743.266V110.125H732.794ZM747.167 98.6851H753.063C754.757 98.6851 756.099 99.6531 756.429 101.039C756.451 101.149 756.495 101.303 756.517 101.501C756.517 102.579 756.121 103.437 755.329 104.053C756.385 104.581 757.067 105.615 757.067 106.781C757.067 107.749 756.737 108.541 756.055 109.179C755.373 109.817 754.537 110.125 753.525 110.125H747.167V98.6851ZM749.015 104.977V108.343H753.525C754.427 108.343 755.131 107.617 755.131 106.671C755.131 105.703 754.427 104.977 753.525 104.977H749.015ZM753.063 100.467H749.015V103.415H753.063C753.965 103.415 754.603 102.799 754.603 101.941C754.603 101.083 753.965 100.467 753.063 100.467ZM770.589 105.043H760.755C760.887 106.077 761.349 106.935 762.119 107.617C762.889 108.299 763.835 108.629 764.935 108.629C766.387 108.629 767.509 108.079 768.323 106.979L770.127 107.551C769.071 109.289 767.157 110.367 764.935 110.367C763.197 110.367 761.745 109.795 760.579 108.673C759.413 107.529 758.841 106.099 758.841 104.405C758.841 102.711 759.413 101.281 760.535 100.159C761.657 99.0151 763.065 98.4431 764.737 98.4431C766.409 98.4431 767.817 99.0151 768.939 100.159C770.061 101.281 770.633 102.711 770.633 104.405C770.633 104.537 770.611 104.757 770.589 105.043ZM760.777 103.547H768.719C768.543 102.557 768.081 101.743 767.333 101.105C766.585 100.467 765.705 100.159 764.693 100.159C763.703 100.159 762.845 100.467 762.119 101.105C761.393 101.743 760.953 102.557 760.777 103.547ZM775.814 110.125V100.467H771.524V98.6851H781.952V100.467H777.662V110.125H775.814ZM788.385 98.4431C790.079 98.4431 791.487 99.0591 792.565 100.313V98.6851H794.413V110.125H792.565V108.497C791.487 109.751 790.079 110.367 788.385 110.367C786.779 110.367 785.437 109.795 784.359 108.673C783.281 107.529 782.753 106.099 782.753 104.405C782.753 102.711 783.281 101.281 784.359 100.159C785.437 99.0151 786.779 98.4431 788.385 98.4431ZM788.583 100.291C787.483 100.291 786.559 100.687 785.789 101.479C785.041 102.249 784.667 103.239 784.667 104.405C784.667 105.571 785.041 106.561 785.789 107.353C786.559 108.123 787.483 108.519 788.583 108.519C789.705 108.519 790.629 108.123 791.377 107.353C792.147 106.561 792.521 105.571 792.521 104.405C792.521 103.239 792.147 102.249 791.377 101.479C790.629 100.687 789.705 100.291 788.583 100.291Z" fill="#1E1F24"/>
<path d="M880.196 110.125H878.216V94.7251H880.196V101.413H889.326V94.7251H891.328V110.125H889.326V103.261H880.196V110.125ZM899.643 98.4431C901.337 98.4431 902.745 99.0591 903.823 100.313V98.6851H905.671V110.125H903.823V108.497C902.745 109.751 901.337 110.367 899.643 110.367C898.037 110.367 896.695 109.795 895.617 108.673C894.539 107.529 894.011 106.099 894.011 104.405C894.011 102.711 894.539 101.281 895.617 100.159C896.695 99.0151 898.037 98.4431 899.643 98.4431ZM899.841 100.291C898.741 100.291 897.817 100.687 897.047 101.479C896.299 102.249 895.925 103.239 895.925 104.405C895.925 105.571 896.299 106.561 897.047 107.353C897.817 108.123 898.741 108.519 899.841 108.519C900.963 108.519 901.887 108.123 902.635 107.353C903.405 106.561 903.779 105.571 903.779 104.405C903.779 103.239 903.405 102.249 902.635 101.479C901.887 100.687 900.963 100.291 899.841 100.291ZM919.609 101.897L917.761 102.447C917.079 101.127 915.737 100.291 914.153 100.291C913.009 100.291 912.041 100.687 911.271 101.479C910.501 102.249 910.105 103.239 910.105 104.405C910.105 105.571 910.501 106.561 911.271 107.353C912.041 108.123 913.009 108.519 914.153 108.519C915.737 108.519 917.079 107.683 917.761 106.363L919.609 106.913C918.663 109.025 916.617 110.367 914.153 110.367C912.459 110.367 911.029 109.795 909.885 108.673C908.763 107.529 908.191 106.099 908.191 104.405C908.191 102.711 908.763 101.281 909.885 100.159C911.029 99.0151 912.459 98.4431 914.153 98.4431C916.617 98.4431 918.663 99.7851 919.609 101.897ZM923.803 102.161V110.125H921.955V98.6851H923.803L928.181 106.297L932.537 98.6851H934.385V110.125H932.537V102.205L928.753 108.805H927.609L923.803 102.161ZM938.631 108.673C937.509 107.529 936.937 106.099 936.937 104.405C936.937 102.711 937.509 101.281 938.631 100.159C939.775 99.0151 941.205 98.4431 942.899 98.4431C944.593 98.4431 946.023 99.0151 947.167 100.159C948.311 101.281 948.883 102.711 948.883 104.405C948.883 106.099 948.311 107.529 947.167 108.673C946.023 109.795 944.593 110.367 942.899 110.367C941.205 110.367 939.775 109.795 938.631 108.673ZM942.899 108.519C944.065 108.519 945.033 108.123 945.803 107.353C946.573 106.561 946.969 105.571 946.969 104.405C946.969 103.239 946.573 102.249 945.803 101.479C945.033 100.687 944.065 100.291 942.899 100.291C941.755 100.291 940.787 100.687 940.017 101.479C939.247 102.249 938.851 103.239 938.851 104.405C938.851 105.571 939.247 106.561 940.017 107.353C940.787 108.123 941.755 108.519 942.899 108.519ZM954.232 110.125V100.467H949.942V98.6851H960.37V100.467H956.08V110.125H954.232ZM964.15 115.075H962.302V98.6851H964.15V100.313C965.228 99.0591 966.614 98.4431 968.308 98.4431C969.914 98.4431 971.256 99.0151 972.334 100.159C973.412 101.281 973.962 102.711 973.962 104.405C973.962 106.099 973.412 107.529 972.334 108.673C971.256 109.795 969.914 110.367 968.308 110.367C966.614 110.367 965.228 109.751 964.15 108.497V115.075ZM968.11 100.291C967.01 100.291 966.086 100.687 965.316 101.479C964.568 102.249 964.194 103.239 964.194 104.405C964.194 105.571 964.568 106.561 965.316 107.353C966.086 108.123 967.01 108.519 968.11 108.519C969.232 108.519 970.156 108.123 970.904 107.353C971.674 106.561 972.048 105.571 972.048 104.405C972.048 103.239 971.674 102.249 970.904 101.479C970.156 100.687 969.232 100.291 968.11 100.291ZM987.636 105.043H977.802C977.934 106.077 978.396 106.935 979.166 107.617C979.936 108.299 980.882 108.629 981.982 108.629C983.434 108.629 984.556 108.079 985.37 106.979L987.174 107.551C986.118 109.289 984.204 110.367 981.982 110.367C980.244 110.367 978.792 109.795 977.626 108.673C976.46 107.529 975.888 106.099 975.888 104.405C975.888 102.711 976.46 101.281 977.582 100.159C978.704 99.0151 980.112 98.4431 981.784 98.4431C983.456 98.4431 984.864 99.0151 985.986 100.159C987.108 101.281 987.68 102.711 987.68 104.405C987.68 104.537 987.658 104.757 987.636 105.043ZM977.824 103.547H985.766C985.59 102.557 985.128 101.743 984.38 101.105C983.632 100.467 982.752 100.159 981.74 100.159C980.75 100.159 979.892 100.467 979.166 101.105C978.44 101.743 978 102.557 977.824 103.547ZM991.887 105.197V110.125H990.039V98.6851H991.887V103.415H998.707V98.6851H1000.55V110.125H998.707V105.197H991.887ZM1005.53 105.197V110.125H1003.68V98.6851H1005.53V103.415H1012.35V98.6851H1014.2V110.125H1012.35V105.197H1005.53ZM1018.42 108.673C1017.3 107.529 1016.73 106.099 1016.73 104.405C1016.73 102.711 1017.3 101.281 1018.42 100.159C1019.57 99.0151 1021 98.4431 1022.69 98.4431C1024.39 98.4431 1025.82 99.0151 1026.96 100.159C1028.1 101.281 1028.68 102.711 1028.68 104.405C1028.68 106.099 1028.1 107.529 1026.96 108.673C1025.82 109.795 1024.39 110.367 1022.69 110.367C1021 110.367 1019.57 109.795 1018.42 108.673ZM1022.69 108.519C1023.86 108.519 1024.83 108.123 1025.6 107.353C1026.37 106.561 1026.76 105.571 1026.76 104.405C1026.76 103.239 1026.37 102.249 1025.6 101.479C1024.83 100.687 1023.86 100.291 1022.69 100.291C1021.55 100.291 1020.58 100.687 1019.81 101.479C1019.04 102.249 1018.64 103.239 1018.64 104.405C1018.64 105.571 1019.04 106.561 1019.81 107.353C1020.58 108.123 1021.55 108.519 1022.69 108.519ZM1042.03 101.897L1040.18 102.447C1039.5 101.127 1038.15 100.291 1036.57 100.291C1035.43 100.291 1034.46 100.687 1033.69 101.479C1032.92 102.249 1032.52 103.239 1032.52 104.405C1032.52 105.571 1032.92 106.561 1033.69 107.353C1034.46 108.123 1035.43 108.519 1036.57 108.519C1038.15 108.519 1039.5 107.683 1040.18 106.363L1042.03 106.913C1041.08 109.025 1039.03 110.367 1036.57 110.367C1034.88 110.367 1033.45 109.795 1032.3 108.673C1031.18 107.529 1030.61 106.099 1030.61 104.405C1030.61 102.711 1031.18 101.281 1032.3 100.159C1033.45 99.0151 1034.88 98.4431 1036.57 98.4431C1039.03 98.4431 1041.08 99.7851 1042.03 101.897ZM1047.47 110.125V100.467H1043.18V98.6851H1053.61V100.467H1049.32V110.125H1047.47ZM1061.2 110.125H1055.54V98.6851H1057.39V102.821H1061.2C1062.19 102.821 1063.05 103.129 1063.73 103.767C1064.41 104.405 1064.81 105.197 1064.89 106.187C1064.89 108.497 1063.49 110.125 1061.2 110.125ZM1057.39 104.603V108.343H1061.2C1062.19 108.343 1062.98 107.529 1062.98 106.473C1062.98 105.417 1062.19 104.603 1061.2 104.603H1057.39ZM886.752 130.787L879.624 139.125H878.062V127.685H879.91V136.067L887.038 127.685H888.6V139.125H886.752V130.787ZM899.633 144.075H897.785V127.685H899.633V129.313C900.711 128.059 902.097 127.443 903.791 127.443C905.397 127.443 906.739 128.015 907.817 129.159C908.895 130.281 909.445 131.711 909.445 133.405C909.445 135.099 908.895 136.529 907.817 137.673C906.739 138.795 905.397 139.367 903.791 139.367C902.097 139.367 900.711 138.751 899.633 137.497V144.075ZM903.593 129.291C902.493 129.291 901.569 129.687 900.799 130.479C900.051 131.249 899.677 132.239 899.677 133.405C899.677 134.571 900.051 135.561 900.799 136.353C901.569 137.123 902.493 137.519 903.593 137.519C904.715 137.519 905.639 137.123 906.387 136.353C907.157 135.561 907.531 134.571 907.531 133.405C907.531 132.239 907.157 131.249 906.387 130.479C905.639 129.687 904.715 129.291 903.593 129.291ZM917.002 127.443C918.696 127.443 920.104 128.059 921.182 129.313V127.685H923.03V139.125H921.182V137.497C920.104 138.751 918.696 139.367 917.002 139.367C915.396 139.367 914.054 138.795 912.976 137.673C911.898 136.529 911.37 135.099 911.37 133.405C911.37 131.711 911.898 130.281 912.976 129.159C914.054 128.015 915.396 127.443 917.002 127.443ZM917.2 129.291C916.1 129.291 915.176 129.687 914.406 130.479C913.658 131.249 913.284 132.239 913.284 133.405C913.284 134.571 913.658 135.561 914.406 136.353C915.176 137.123 916.1 137.519 917.2 137.519C918.322 137.519 919.246 137.123 919.994 136.353C920.764 135.561 921.138 134.571 921.138 133.405C921.138 132.239 920.764 131.249 919.994 130.479C919.246 129.687 918.322 129.291 917.2 129.291ZM925.616 130.809C925.616 125.727 927.794 123.241 932.392 122.801C934.306 122.603 935.714 122.449 936.572 122.383V124.231C934.768 124.407 933.426 124.539 932.524 124.649C928.894 125.001 927.42 126.981 927.508 130.589C928.146 128.719 929.884 127.443 932.106 127.443C933.734 127.443 935.098 128.015 936.22 129.159C937.342 130.303 937.892 131.733 937.892 133.427C937.892 135.121 937.32 136.551 936.198 137.673C935.076 138.795 933.69 139.367 931.996 139.367C930.17 139.367 928.652 138.641 927.442 137.211C926.232 135.781 925.616 133.647 925.616 130.809ZM932.04 137.519C933.162 137.519 934.086 137.123 934.834 136.353C935.582 135.561 935.956 134.571 935.956 133.405C935.956 132.239 935.582 131.249 934.834 130.479C934.086 129.687 933.162 129.291 932.04 129.291C930.918 129.291 929.972 129.687 929.202 130.479C928.454 131.249 928.08 132.239 928.08 133.405C928.08 134.571 928.454 135.561 929.202 136.353C929.972 137.123 930.918 137.519 932.04 137.519ZM941.531 137.673C940.409 136.529 939.837 135.099 939.837 133.405C939.837 131.711 940.409 130.281 941.531 129.159C942.675 128.015 944.105 127.443 945.799 127.443C947.493 127.443 948.923 128.015 950.067 129.159C951.211 130.281 951.783 131.711 951.783 133.405C951.783 135.099 951.211 136.529 950.067 137.673C948.923 138.795 947.493 139.367 945.799 139.367C944.105 139.367 942.675 138.795 941.531 137.673ZM945.799 137.519C946.965 137.519 947.933 137.123 948.703 136.353C949.473 135.561 949.869 134.571 949.869 133.405C949.869 132.239 949.473 131.249 948.703 130.479C947.933 129.687 946.965 129.291 945.799 129.291C944.655 129.291 943.687 129.687 942.917 130.479C942.147 131.249 941.751 132.239 941.751 133.405C941.751 134.571 942.147 135.561 942.917 136.353C943.687 137.123 944.655 137.519 945.799 137.519ZM957.133 139.125V129.467H952.843V127.685H963.271V129.467H958.981V139.125H957.133ZM969.704 127.443C971.398 127.443 972.806 128.059 973.884 129.313V127.685H975.732V139.125H973.884V137.497C972.806 138.751 971.398 139.367 969.704 139.367C968.098 139.367 966.756 138.795 965.678 137.673C964.6 136.529 964.072 135.099 964.072 133.405C964.072 131.711 964.6 130.281 965.678 129.159C966.756 128.015 968.098 127.443 969.704 127.443ZM969.902 129.291C968.802 129.291 967.878 129.687 967.108 130.479C966.36 131.249 965.986 132.239 965.986 133.405C965.986 134.571 966.36 135.561 967.108 136.353C967.878 137.123 968.802 137.519 969.902 137.519C971.024 137.519 971.948 137.123 972.696 136.353C973.466 135.561 973.84 134.571 973.84 133.405C973.84 132.239 973.466 131.249 972.696 130.479C971.948 129.687 971.024 129.291 969.902 129.291ZM995.706 130.897L993.858 131.447C993.176 130.127 991.834 129.291 990.25 129.291C989.106 129.291 988.138 129.687 987.368 130.479C986.598 131.249 986.202 132.239 986.202 133.405C986.202 134.571 986.598 135.561 987.368 136.353C988.138 137.123 989.106 137.519 990.25 137.519C991.834 137.519 993.176 136.683 993.858 135.363L995.706 135.913C994.76 138.025 992.714 139.367 990.25 139.367C988.556 139.367 987.126 138.795 985.982 137.673C984.86 136.529 984.288 135.099 984.288 133.405C984.288 131.711 984.86 130.281 985.982 129.159C987.126 128.015 988.556 127.443 990.25 127.443C992.714 127.443 994.76 128.785 995.706 130.897ZM1005.94 144.075H1004.09V127.685H1005.94V129.313C1007.02 128.059 1008.4 127.443 1010.1 127.443C1011.7 127.443 1013.04 128.015 1014.12 129.159C1015.2 130.281 1015.75 131.711 1015.75 133.405C1015.75 135.099 1015.2 136.529 1014.12 137.673C1013.04 138.795 1011.7 139.367 1010.1 139.367C1008.4 139.367 1007.02 138.751 1005.94 137.497V144.075ZM1009.9 129.291C1008.8 129.291 1007.87 129.687 1007.1 130.479C1006.36 131.249 1005.98 132.239 1005.98 133.405C1005.98 134.571 1006.36 135.561 1007.1 136.353C1007.87 137.123 1008.8 137.519 1009.9 137.519C1011.02 137.519 1011.94 137.123 1012.69 136.353C1013.46 135.561 1013.84 134.571 1013.84 133.405C1013.84 132.239 1013.46 131.249 1012.69 130.479C1011.94 129.687 1011.02 129.291 1009.9 129.291ZM1029.42 134.043H1019.59C1019.72 135.077 1020.18 135.935 1020.95 136.617C1021.72 137.299 1022.67 137.629 1023.77 137.629C1025.22 137.629 1026.34 137.079 1027.16 135.979L1028.96 136.551C1027.91 138.289 1025.99 139.367 1023.77 139.367C1022.03 139.367 1020.58 138.795 1019.41 137.673C1018.25 136.529 1017.68 135.099 1017.68 133.405C1017.68 131.711 1018.25 130.281 1019.37 129.159C1020.49 128.015 1021.9 127.443 1023.57 127.443C1025.24 127.443 1026.65 128.015 1027.77 129.159C1028.9 130.281 1029.47 131.711 1029.47 133.405C1029.47 133.537 1029.45 133.757 1029.42 134.043ZM1019.61 132.547H1027.55C1027.38 131.557 1026.92 130.743 1026.17 130.105C1025.42 129.467 1024.54 129.159 1023.53 129.159C1022.54 129.159 1021.68 129.467 1020.95 130.105C1020.23 130.743 1019.79 131.557 1019.61 132.547ZM1040.54 139.367C1040.21 139.367 1039.99 139.367 1039.83 139.345V144.075H1037.99V139.345C1037.83 139.367 1037.59 139.367 1037.28 139.367C1035.59 139.367 1034.16 138.795 1033.01 137.673C1031.87 136.529 1031.3 135.099 1031.3 133.405C1031.3 131.711 1031.87 130.281 1033.01 129.159C1034.16 128.015 1035.59 127.443 1037.28 127.443C1037.59 127.443 1037.83 127.443 1037.99 127.465V122.625H1039.83V127.465C1039.99 127.443 1040.21 127.443 1040.54 127.443C1042.23 127.443 1043.66 128.015 1044.78 129.159C1045.93 130.281 1046.5 131.711 1046.5 133.405C1046.5 135.099 1045.93 136.529 1044.78 137.673C1043.66 138.795 1042.23 139.367 1040.54 139.367ZM1037.28 129.291C1036.12 129.291 1035.15 129.687 1034.38 130.479C1033.61 131.249 1033.21 132.239 1033.21 133.405C1033.21 134.571 1033.61 135.561 1034.38 136.353C1035.15 137.123 1036.12 137.519 1037.28 137.519C1037.44 137.519 1037.66 137.497 1037.99 137.475V129.335C1037.66 129.313 1037.44 129.291 1037.28 129.291ZM1040.54 129.291C1040.36 129.291 1040.12 129.313 1039.83 129.335V137.475C1040.12 137.497 1040.36 137.519 1040.54 137.519C1041.7 137.519 1042.65 137.123 1043.42 136.353C1044.19 135.561 1044.59 134.571 1044.59 133.405C1044.59 132.239 1044.19 131.249 1043.42 130.479C1042.65 129.687 1041.7 129.291 1040.54 129.291ZM1060.27 134.043H1050.44C1050.57 135.077 1051.03 135.935 1051.8 136.617C1052.57 137.299 1053.52 137.629 1054.62 137.629C1056.07 137.629 1057.19 137.079 1058.01 135.979L1059.81 136.551C1058.76 138.289 1056.84 139.367 1054.62 139.367C1052.88 139.367 1051.43 138.795 1050.26 137.673C1049.1 136.529 1048.53 135.099 1048.53 133.405C1048.53 131.711 1049.1 130.281 1050.22 129.159C1051.34 128.015 1052.75 127.443 1054.42 127.443C1056.09 127.443 1057.5 128.015 1058.62 129.159C1059.75 130.281 1060.32 131.711 1060.32 133.405C1060.32 133.537 1060.3 133.757 1060.27 134.043ZM1050.46 132.547H1058.4C1058.23 131.557 1057.77 130.743 1057.02 130.105C1056.27 129.467 1055.39 129.159 1054.38 129.159C1053.39 129.159 1052.53 129.467 1051.8 130.105C1051.08 130.743 1050.64 131.557 1050.46 132.547ZM1064.53 144.075H1062.68V127.685H1064.53V129.313C1065.6 128.059 1066.99 127.443 1068.68 127.443C1070.29 127.443 1071.63 128.015 1072.71 129.159C1073.79 130.281 1074.34 131.711 1074.34 133.405C1074.34 135.099 1073.79 136.529 1072.71 137.673C1071.63 138.795 1070.29 139.367 1068.68 139.367C1066.99 139.367 1065.6 138.751 1064.53 137.497V144.075ZM1068.49 129.291C1067.39 129.291 1066.46 129.687 1065.69 130.479C1064.94 131.249 1064.57 132.239 1064.57 133.405C1064.57 134.571 1064.94 135.561 1065.69 136.353C1066.46 137.123 1067.39 137.519 1068.49 137.519C1069.61 137.519 1070.53 137.123 1071.28 136.353C1072.05 135.561 1072.42 134.571 1072.42 133.405C1072.42 132.239 1072.05 131.249 1071.28 130.479C1070.53 129.687 1069.61 129.291 1068.49 129.291ZM1088.01 134.043H1078.18C1078.31 135.077 1078.77 135.935 1079.54 136.617C1080.31 137.299 1081.26 137.629 1082.36 137.629C1083.81 137.629 1084.93 137.079 1085.74 135.979L1087.55 136.551C1086.49 138.289 1084.58 139.367 1082.36 139.367C1080.62 139.367 1079.17 138.795 1078 137.673C1076.83 136.529 1076.26 135.099 1076.26 133.405C1076.26 131.711 1076.83 130.281 1077.96 129.159C1079.08 128.015 1080.49 127.443 1082.16 127.443C1083.83 127.443 1085.24 128.015 1086.36 129.159C1087.48 130.281 1088.05 131.711 1088.05 133.405C1088.05 133.537 1088.03 133.757 1088.01 134.043ZM1078.2 132.547H1086.14C1085.96 131.557 1085.5 130.743 1084.75 130.105C1084.01 129.467 1083.13 129.159 1082.11 129.159C1081.12 129.159 1080.27 129.467 1079.54 130.105C1078.81 130.743 1078.37 131.557 1078.2 132.547ZM1092.26 134.197V139.125H1090.41V127.685H1092.26V132.415H1099.08V127.685H1100.93V139.125H1099.08V134.197H1092.26ZM1114.88 130.897L1113.03 131.447C1112.35 130.127 1111.01 129.291 1109.42 129.291C1108.28 129.291 1107.31 129.687 1106.54 130.479C1105.77 131.249 1105.38 132.239 1105.38 133.405C1105.38 134.571 1105.77 135.561 1106.54 136.353C1107.31 137.123 1108.28 137.519 1109.42 137.519C1111.01 137.519 1112.35 136.683 1113.03 135.363L1114.88 135.913C1113.93 138.025 1111.89 139.367 1109.42 139.367C1107.73 139.367 1106.3 138.795 1105.16 137.673C1104.03 136.529 1103.46 135.099 1103.46 133.405C1103.46 131.711 1104.03 130.281 1105.16 129.159C1106.3 128.015 1107.73 127.443 1109.42 127.443C1111.89 127.443 1113.93 128.785 1114.88 130.897ZM1122.26 127.443C1123.96 127.443 1125.37 128.059 1126.44 129.313V127.685H1128.29V139.125H1126.44V137.497C1125.37 138.751 1123.96 139.367 1122.26 139.367C1120.66 139.367 1119.32 138.795 1118.24 137.673C1117.16 136.529 1116.63 135.099 1116.63 133.405C1116.63 131.711 1117.16 130.281 1118.24 129.159C1119.32 128.015 1120.66 127.443 1122.26 127.443ZM1122.46 129.291C1121.36 129.291 1120.44 129.687 1119.67 130.479C1118.92 131.249 1118.55 132.239 1118.55 133.405C1118.55 134.571 1118.92 135.561 1119.67 136.353C1120.44 137.123 1121.36 137.519 1122.46 137.519C1123.58 137.519 1124.51 137.123 1125.26 136.353C1126.03 135.561 1126.4 134.571 1126.4 133.405C1126.4 132.239 1126.03 131.249 1125.26 130.479C1124.51 129.687 1123.58 129.291 1122.46 129.291ZM1133.25 131.161V139.125H1131.41V127.685H1133.25L1137.63 135.297L1141.99 127.685H1143.84V139.125H1141.99V131.205L1138.2 137.805H1137.06L1133.25 131.161ZM1155.67 130.787L1148.54 139.125H1146.98V127.685H1148.83V136.067L1155.96 127.685H1157.52V139.125H1155.67V130.787Z" fill="#1E1F24"/>
<path d="M1.5 60.125L1.5 0.125" stroke="#1D6CE3" stroke-width="1.5" stroke-miterlimit="10"/>
<path d="M349.5 60.125V23.125" stroke="#1D6CE3" stroke-width="1.5" stroke-miterlimit="10"/>
<path d="M644.5 60.125V23.125" stroke="#1D6CE3" stroke-width="1.5" stroke-miterlimit="10"/>
<path d="M876.5 60.125V23.125" stroke="#1D6CE3" stroke-width="1.5" stroke-miterlimit="10"/>
<path d="M1.5 23.125H876.5" stroke="#1D6CE3" stroke-width="1.5" stroke-miterlimit="10"/>
</g>
<defs>
<clipPath id="clip0_1_1522">
<rect width="1159" height="148" fill="white" transform="translate(0.5 0.125)"/>
</clipPath>
</defs>
</svg>
