<svg width="1049" height="149" viewBox="0 0 1049 149" fill="none" xmlns="http://www.w3.org/2000/svg">
<g clip-path="url(#clip0_1_1482)">
<mask id="mask0_1_1482" style="mask-type:luminance" maskUnits="userSpaceOnUse" x="1" y="94" width="51" height="51">
<path d="M51.5 94.5156H1.5V144.516H51.5V94.5156Z" fill="white"/>
</mask>
<g mask="url(#mask0_1_1482)">
<path d="M42.1944 94.5156H10.8056C5.66667 94.5156 1.5 98.7517 1.5 103.981V135.051C1.5 140.28 5.66667 144.516 10.8056 144.516H42.1944C47.3333 144.516 51.5 140.28 51.5 135.051V103.981C51.5 98.7517 47.3333 94.5156 42.1944 94.5156Z" fill="#2C2E37"/>
<path d="M20.6391 139.224C24.0141 139.224 26.7571 136.433 26.7571 132.995V126.766H20.6391C17.2641 126.766 14.521 129.558 14.521 132.995C14.521 136.433 17.2641 139.224 20.6391 139.224Z" fill="#0ACF83"/>
<path d="M14.5142 120.537C14.5142 117.099 17.2572 114.308 20.6322 114.308H26.7503V126.766H20.6322C17.2572 126.766 14.5142 123.974 14.5142 120.537Z" fill="#A259FF"/>
<path d="M14.5142 108.079C14.5142 104.641 17.2572 101.849 20.6322 101.849H26.7503V114.308H20.6322C17.2572 114.308 14.5142 111.516 14.5142 108.079Z" fill="#F24E1E"/>
<path d="M26.7563 101.849H32.8744C36.2494 101.849 38.9925 104.641 38.9925 108.079C38.9925 111.516 36.2494 114.308 32.8744 114.308H26.7563V101.849Z" fill="#FF7262"/>
<path d="M38.9925 120.537C38.9925 123.974 36.2494 126.766 32.8744 126.766C29.4994 126.766 26.7563 123.974 26.7563 120.537C26.7563 117.099 29.4994 114.308 32.8744 114.308C36.2494 114.308 38.9925 117.099 38.9925 120.537Z" fill="#1ABCFE"/>
</g>
<path d="M84.96 110.516H77.216V95.1155H84.52C85.774 95.1155 86.808 95.5115 87.644 96.2815C88.502 97.0515 88.92 97.9975 88.92 99.1415C88.92 100.528 88.348 101.606 87.182 102.376C88.7 103.08 89.668 104.51 89.668 106.204C89.668 107.414 89.206 108.448 88.304 109.284C87.402 110.097 86.302 110.516 84.96 110.516ZM84.96 103.432H79.196V108.668H84.96C86.456 108.668 87.6 107.545 87.6 106.049C87.6 105.323 87.336 104.707 86.83 104.201C86.324 103.696 85.708 103.432 84.96 103.432ZM84.52 96.9635H79.196V101.584H84.52C85.862 101.584 86.874 100.594 86.874 99.2735C86.874 97.9535 85.862 96.9635 84.52 96.9635ZM103.298 105.434H93.464C93.596 106.468 94.058 107.325 94.828 108.007C95.598 108.689 96.544 109.02 97.644 109.02C99.096 109.02 100.218 108.469 101.032 107.369L102.836 107.942C101.78 109.68 99.866 110.757 97.644 110.757C95.906 110.757 94.454 110.185 93.288 109.063C92.122 107.919 91.55 106.49 91.55 104.796C91.55 103.102 92.122 101.671 93.244 100.549C94.366 99.4055 95.774 98.8335 97.446 98.8335C99.118 98.8335 100.526 99.4055 101.648 100.549C102.77 101.671 103.342 103.102 103.342 104.796C103.342 104.928 103.32 105.148 103.298 105.434ZM93.486 103.938H101.428C101.252 102.948 100.79 102.134 100.042 101.496C99.294 100.858 98.414 100.549 97.402 100.549C96.412 100.549 95.554 100.858 94.828 101.496C94.102 102.134 93.662 102.948 93.486 103.938ZM105.044 102.2C105.044 97.1175 107.222 94.6315 111.82 94.1915C113.734 93.9935 115.142 93.8395 116 93.7735V95.6215C114.196 95.7975 112.854 95.9295 111.952 96.0395C108.322 96.3915 106.848 98.3715 106.936 101.979C107.574 100.109 109.312 98.8335 111.534 98.8335C113.162 98.8335 114.526 99.4055 115.648 100.549C116.77 101.693 117.32 103.124 117.32 104.818C117.32 106.512 116.748 107.941 115.626 109.063C114.504 110.185 113.118 110.757 111.424 110.757C109.598 110.757 108.08 110.032 106.87 108.602C105.66 107.172 105.044 105.038 105.044 102.2ZM111.468 108.91C112.59 108.91 113.514 108.514 114.262 107.743C115.01 106.951 115.384 105.962 115.384 104.796C115.384 103.63 115.01 102.639 114.262 101.869C113.514 101.077 112.59 100.682 111.468 100.682C110.346 100.682 109.4 101.077 108.63 101.869C107.882 102.639 107.508 103.63 107.508 104.796C107.508 105.962 107.882 106.951 108.63 107.743C109.4 108.514 110.346 108.91 111.468 108.91ZM134.586 102.178L127.458 110.516H125.896V99.0755H127.744V107.458L134.872 99.0755H136.434V110.516H134.586V102.178ZM156.663 104.355V95.1155H158.665V104.355C158.665 106.181 158.027 107.7 156.773 108.932C155.519 110.142 153.979 110.757 152.109 110.757C150.239 110.757 148.677 110.142 147.423 108.932C146.169 107.7 145.553 106.181 145.553 104.355V95.1155H147.533V104.355C147.533 105.653 147.973 106.754 148.831 107.612C149.711 108.47 150.811 108.91 152.109 108.91C153.407 108.91 154.485 108.47 155.343 107.612C156.223 106.732 156.663 105.653 156.663 104.355ZM163.866 110.516H161.886V95.1155H163.866V110.516ZM167.3 114.366H165.584L175.594 92.9375H177.31L167.3 114.366ZM189.92 104.355V95.1155H191.922V104.355C191.922 106.181 191.284 107.7 190.03 108.932C188.776 110.142 187.236 110.757 185.366 110.757C183.496 110.757 181.934 110.142 180.68 108.932C179.426 107.7 178.81 106.181 178.81 104.355V95.1155H180.79V104.355C180.79 105.653 181.23 106.754 182.088 107.612C182.968 108.47 184.068 108.91 185.366 108.91C186.664 108.91 187.742 108.47 188.6 107.612C189.48 106.732 189.92 105.653 189.92 104.355ZM199.461 102.662L193.807 95.1155H196.183L200.671 101.077L205.137 95.1155H207.513L201.859 102.662L207.733 110.516H205.357L200.671 104.268L195.963 110.516H193.587L199.461 102.662ZM209.576 105.654V103.938H215.428V105.654H209.576ZM219.242 110.516V113.816H217.394V108.734H219.11C219.77 108.14 220.1 106.864 220.1 104.906V99.0755H229.076V108.734H231.166V113.816H229.318V110.516H219.242ZM221.156 108.734H227.228V100.858H221.948V104.95C221.948 106.534 221.684 107.788 221.156 108.734ZM241.9 102.178L234.772 110.516H233.21V99.0755H235.058V107.458L242.186 99.0755H243.748V110.516H241.9V102.178ZM246.236 107.612L248.106 107.105C248.612 108.359 249.646 108.998 251.208 108.998C252.99 108.998 254.31 108.118 254.31 106.974C254.31 106.072 253.54 105.39 252.506 105.39H249.69V103.827H252.374C253.364 103.827 254.09 103.212 254.09 102.42C254.09 101.386 252.858 100.594 251.252 100.594C249.69 100.594 248.678 101.232 248.172 102.486L246.302 101.979C247.006 100.021 248.898 98.8335 251.34 98.8335C252.682 98.8335 253.782 99.1635 254.662 99.8015C255.564 100.44 256.004 101.232 256.004 102.178C256.004 103.168 255.52 103.982 254.574 104.576C255.674 105.17 256.224 106.049 256.224 107.215C256.224 108.227 255.762 109.064 254.816 109.746C253.87 110.428 252.682 110.757 251.252 110.757C248.788 110.757 246.94 109.614 246.236 107.612ZM263.815 98.8335C265.509 98.8335 266.917 99.4495 267.995 100.704V99.0755H269.843V110.516H267.995V108.888C266.917 110.142 265.509 110.757 263.815 110.757C262.209 110.757 260.867 110.185 259.789 109.063C258.711 107.919 258.183 106.49 258.183 104.796C258.183 103.102 258.711 101.671 259.789 100.549C260.867 99.4055 262.209 98.8335 263.815 98.8335ZM264.013 100.682C262.913 100.682 261.989 101.077 261.219 101.869C260.471 102.639 260.097 103.63 260.097 104.796C260.097 105.962 260.471 106.951 261.219 107.743C261.989 108.514 262.913 108.91 264.013 108.91C265.135 108.91 266.059 108.514 266.807 107.743C267.577 106.951 267.951 105.962 267.951 104.796C267.951 103.63 267.577 102.639 266.807 101.869C266.059 101.077 265.135 100.682 264.013 100.682ZM281.647 102.178L274.519 110.516H272.957V99.0755H274.805V107.458L281.933 99.0755H283.495V110.516H281.647V102.178ZM274.585 94.2795H276.169C276.169 95.3575 277.027 96.1495 278.237 96.1495C279.447 96.1495 280.305 95.3575 280.305 94.2795H281.867C281.867 95.2475 281.515 96.0615 280.833 96.6995C280.151 97.3375 279.271 97.6455 278.237 97.6455C277.203 97.6455 276.323 97.3375 275.619 96.6995C274.937 96.0615 274.585 95.2475 274.585 94.2795ZM288.49 105.588V110.516H286.642V99.0755H288.49V103.806H295.31V99.0755H297.158V110.516H295.31V105.588H288.49ZM77.062 128.076H82.958C84.652 128.076 85.994 129.044 86.324 130.43C86.346 130.54 86.39 130.694 86.412 130.892C86.412 131.97 86.016 132.827 85.224 133.443C86.28 133.971 86.962 135.006 86.962 136.172C86.962 137.14 86.632 137.932 85.95 138.57C85.268 139.208 84.432 139.516 83.42 139.516H77.062V128.076ZM78.91 134.368V137.734H83.42C84.322 137.734 85.026 137.008 85.026 136.062C85.026 135.094 84.322 134.368 83.42 134.368H78.91ZM82.958 129.857H78.91V132.805H82.958C83.86 132.805 84.498 132.189 84.498 131.331C84.498 130.473 83.86 129.857 82.958 129.857ZM95.5207 124.116H106.609V125.964H97.5007V130.715H105.487V132.564H97.5007V139.516H95.5207V124.116ZM110.814 139.516H108.966V128.076H110.814V139.516ZM108.966 126.206C108.504 125.7 108.504 124.842 108.966 124.38C109.472 123.874 110.308 123.874 110.814 124.38C111.32 124.842 111.32 125.7 110.814 126.206C110.308 126.668 109.472 126.668 108.966 126.206ZM118.967 139.758C117.361 139.758 116.019 139.186 114.941 138.064C113.863 136.92 113.335 135.49 113.335 133.796C113.335 132.102 113.863 130.672 114.941 129.549C116.019 128.405 117.361 127.834 118.967 127.834C120.661 127.834 122.069 128.45 123.147 129.704V128.076H124.995V139.032C124.995 140.638 124.445 142.001 123.323 143.079C122.201 144.157 120.837 144.708 119.209 144.708C118.087 144.708 117.031 144.422 116.063 143.872C115.117 143.322 114.413 142.618 113.973 141.76L115.821 141.165C116.437 142.155 117.735 142.859 119.143 142.859C120.287 142.859 121.233 142.486 122.003 141.76C122.773 141.034 123.169 140.132 123.147 139.032V137.887C122.069 139.141 120.661 139.758 118.967 139.758ZM119.165 129.682C118.065 129.682 117.141 130.078 116.371 130.87C115.623 131.64 115.249 132.63 115.249 133.796C115.249 134.962 115.623 135.951 116.371 136.743C117.141 137.514 118.065 137.91 119.165 137.91C120.287 137.91 121.211 137.514 121.959 136.743C122.729 135.951 123.103 134.962 123.103 133.796C123.103 132.63 122.729 131.64 121.959 130.87C121.211 130.078 120.287 129.682 119.165 129.682ZM128.109 139.516V128.076H129.957V129.747C130.815 128.471 132.069 127.834 133.719 127.834C135.391 127.834 136.821 128.692 137.547 130.034C137.789 129.594 138.097 129.22 138.713 128.714C139.351 128.186 140.385 127.834 141.595 127.834C142.893 127.834 143.949 128.23 144.807 129.044C145.665 129.858 146.083 130.869 146.083 132.079V139.516H144.235V132.586C144.235 130.892 142.981 129.594 141.287 129.594C140.363 129.594 139.593 129.879 138.955 130.473C138.339 131.045 138.031 131.749 138.031 132.607V139.516H136.183V132.586C136.183 130.892 134.907 129.594 133.213 129.594C132.289 129.594 131.519 129.879 130.881 130.473C130.265 131.045 129.957 131.749 129.957 132.607V139.516H128.109ZM154.223 127.834C155.917 127.834 157.325 128.45 158.403 129.704V128.076H160.251V139.516H158.403V137.887C157.325 139.141 155.917 139.758 154.223 139.758C152.617 139.758 151.275 139.186 150.197 138.064C149.119 136.92 148.591 135.49 148.591 133.796C148.591 132.102 149.119 130.672 150.197 129.549C151.275 128.405 152.617 127.834 154.223 127.834ZM154.421 129.682C153.321 129.682 152.397 130.078 151.627 130.87C150.879 131.64 150.505 132.63 150.505 133.796C150.505 134.962 150.879 135.951 151.627 136.743C152.397 137.514 153.321 137.91 154.421 137.91C155.543 137.91 156.467 137.514 157.215 136.743C157.985 135.951 158.359 134.962 158.359 133.796C158.359 132.63 157.985 131.64 157.215 130.87C156.467 130.078 155.543 129.682 154.421 129.682Z" fill="#1E1F24"/>
<mask id="mask1_1_1482" style="mask-type:luminance" maskUnits="userSpaceOnUse" x="379" y="90" width="51" height="51">
<path d="M429.5 90.5156H379.5V140.516H429.5V90.5156Z" fill="white"/>
</mask>
<g mask="url(#mask1_1_1482)">
<mask id="mask2_1_1482" style="mask-type:luminance" maskUnits="userSpaceOnUse" x="379" y="90" width="51" height="51">
<path d="M429.5 90.5156H379.5V140.516H429.5V90.5156Z" fill="white"/>
</mask>
<g mask="url(#mask2_1_1482)">
<path d="M388.354 90.5156H420.646C425.542 90.5156 429.5 94.5754 429.5 99.5968V131.435C429.5 136.456 425.542 140.516 420.646 140.516H388.354C383.458 140.516 379.5 136.456 379.5 131.435V99.5968C379.5 94.5754 383.458 90.5156 388.354 90.5156Z" fill="#001E36"/>
<path d="M389.918 126.079V104.758C389.918 104.613 389.98 104.53 390.126 104.53C390.48 104.53 390.814 104.53 391.293 104.509C391.793 104.488 392.314 104.488 392.876 104.468C393.439 104.447 394.043 104.447 394.689 104.426C395.335 104.405 395.96 104.405 396.585 104.405C398.293 104.405 399.71 104.613 400.876 105.048C401.918 105.4 402.876 105.98 403.668 106.747C404.335 107.41 404.855 108.218 405.189 109.109C405.501 109.979 405.668 110.87 405.668 111.802C405.668 113.584 405.251 115.055 404.418 116.216C403.585 117.376 402.418 118.246 401.064 118.744C399.647 119.262 398.085 119.448 396.376 119.448C395.876 119.448 395.543 119.448 395.335 119.427C395.126 119.407 394.835 119.407 394.439 119.407V126.058C394.46 126.203 394.355 126.327 394.21 126.348C394.189 126.348 394.168 126.348 394.126 126.348H390.168C390.001 126.348 389.918 126.265 389.918 126.079ZM394.46 108.529V115.491C394.751 115.511 395.022 115.532 395.272 115.532H396.376C397.189 115.532 398.001 115.408 398.772 115.159C399.439 114.973 400.022 114.579 400.48 114.061C400.918 113.543 401.126 112.838 401.126 111.927C401.147 111.284 400.98 110.642 400.647 110.083C400.293 109.544 399.793 109.13 399.189 108.902C398.418 108.591 397.585 108.467 396.73 108.487C396.189 108.487 395.71 108.487 395.314 108.508C394.897 108.487 394.605 108.508 394.46 108.529Z" fill="#31A8FF"/>
<path d="M418.669 114.226C418.044 113.894 417.377 113.666 416.669 113.521C415.898 113.355 415.127 113.252 414.335 113.252C413.919 113.231 413.481 113.293 413.085 113.397C412.814 113.459 412.585 113.604 412.439 113.811C412.335 113.977 412.273 114.184 412.273 114.371C412.273 114.557 412.356 114.744 412.481 114.909C412.669 115.137 412.919 115.324 413.189 115.469C413.669 115.717 414.169 115.945 414.669 116.153C415.794 116.525 416.877 117.043 417.877 117.665C418.564 118.1 419.127 118.68 419.523 119.385C419.856 120.048 420.023 120.773 420.002 121.519C420.023 122.493 419.731 123.467 419.189 124.275C418.606 125.104 417.794 125.746 416.856 126.119C415.835 126.554 414.585 126.782 413.085 126.782C412.127 126.782 411.189 126.699 410.252 126.513C409.523 126.388 408.794 126.16 408.127 125.849C407.981 125.767 407.877 125.622 407.898 125.456V121.851C407.898 121.788 407.919 121.705 407.981 121.664C408.044 121.623 408.106 121.643 408.169 121.685C408.981 122.161 409.835 122.493 410.752 122.7C411.544 122.907 412.377 123.011 413.21 123.011C414.002 123.011 414.564 122.907 414.939 122.721C415.273 122.576 415.502 122.223 415.502 121.851C415.502 121.56 415.335 121.291 415.002 121.022C414.669 120.752 413.981 120.442 412.96 120.048C411.898 119.675 410.919 119.178 410.002 118.556C409.356 118.1 408.814 117.499 408.419 116.795C408.085 116.132 407.919 115.407 407.939 114.681C407.939 113.79 408.189 112.941 408.648 112.174C409.169 111.345 409.939 110.682 410.835 110.268C411.814 109.771 413.044 109.543 414.523 109.543C415.377 109.543 416.252 109.605 417.106 109.729C417.731 109.812 418.335 109.978 418.898 110.206C418.981 110.227 419.064 110.309 419.106 110.392C419.127 110.475 419.148 110.558 419.148 110.641V114.018C419.148 114.101 419.106 114.184 419.044 114.226C418.856 114.267 418.752 114.267 418.669 114.226Z" fill="#31A8FF"/>
</g>
</g>
<path d="M457.196 115.119V121.015H455.216V105.615H461.97C463.4 105.615 464.588 106.077 465.534 106.979C466.48 107.881 466.964 109.025 466.964 110.367C466.964 111.709 466.48 112.853 465.534 113.755C464.588 114.657 463.4 115.119 461.97 115.119H457.196ZM461.97 107.463H457.196V113.271H461.97C462.806 113.271 463.51 112.985 464.06 112.435C464.61 111.885 464.896 111.181 464.896 110.367C464.896 108.695 463.642 107.463 461.97 107.463ZM473.764 109.333C475.458 109.333 476.866 109.949 477.944 111.203V109.575H479.792V121.015H477.944V119.387C476.866 120.641 475.458 121.257 473.764 121.257C472.158 121.257 470.816 120.685 469.738 119.563C468.66 118.419 468.132 116.989 468.132 115.295C468.132 113.601 468.66 112.171 469.738 111.049C470.816 109.905 472.158 109.333 473.764 109.333ZM473.962 111.181C472.862 111.181 471.938 111.577 471.168 112.369C470.42 113.139 470.046 114.129 470.046 115.295C470.046 116.461 470.42 117.451 471.168 118.243C471.938 119.013 472.862 119.409 473.962 119.409C475.084 119.409 476.008 119.013 476.756 118.243C477.526 117.451 477.9 116.461 477.9 115.295C477.9 114.129 477.526 113.139 476.756 112.369C476.008 111.577 475.084 111.181 473.962 111.181ZM482.378 112.699C482.378 107.617 484.556 105.131 489.154 104.691C491.068 104.493 492.476 104.339 493.334 104.273V106.121C491.53 106.297 490.188 106.429 489.286 106.539C485.656 106.891 484.182 108.871 484.27 112.479C484.908 110.609 486.646 109.333 488.868 109.333C490.496 109.333 491.86 109.905 492.982 111.049C494.104 112.193 494.654 113.623 494.654 115.317C494.654 117.011 494.082 118.441 492.96 119.563C491.838 120.685 490.452 121.257 488.758 121.257C486.932 121.257 485.414 120.531 484.204 119.101C482.994 117.671 482.378 115.537 482.378 112.699ZM488.802 119.409C489.924 119.409 490.848 119.013 491.596 118.243C492.344 117.451 492.718 116.461 492.718 115.295C492.718 114.129 492.344 113.139 491.596 112.369C490.848 111.577 489.924 111.181 488.802 111.181C487.68 111.181 486.734 111.577 485.964 112.369C485.216 113.139 484.842 114.129 484.842 115.295C484.842 116.461 485.216 117.451 485.964 118.243C486.734 119.013 487.68 119.409 488.802 119.409ZM498.293 119.563C497.171 118.419 496.599 116.989 496.599 115.295C496.599 113.601 497.171 112.171 498.293 111.049C499.437 109.905 500.867 109.333 502.561 109.333C504.255 109.333 505.685 109.905 506.829 111.049C507.973 112.171 508.545 113.601 508.545 115.295C508.545 116.989 507.973 118.419 506.829 119.563C505.685 120.685 504.255 121.257 502.561 121.257C500.867 121.257 499.437 120.685 498.293 119.563ZM502.561 119.409C503.727 119.409 504.695 119.013 505.465 118.243C506.235 117.451 506.631 116.461 506.631 115.295C506.631 114.129 506.235 113.139 505.465 112.369C504.695 111.577 503.727 111.181 502.561 111.181C501.417 111.181 500.449 111.577 499.679 112.369C498.909 113.139 498.513 114.129 498.513 115.295C498.513 116.461 498.909 117.451 499.679 118.243C500.449 119.013 501.417 119.409 502.561 119.409ZM513.894 121.015V111.357H509.604V109.575H520.032V111.357H515.742V121.015H513.894ZM526.465 109.333C528.159 109.333 529.567 109.949 530.645 111.203V109.575H532.493V121.015H530.645V119.387C529.567 120.641 528.159 121.257 526.465 121.257C524.859 121.257 523.517 120.685 522.439 119.563C521.361 118.419 520.833 116.989 520.833 115.295C520.833 113.601 521.361 112.171 522.439 111.049C523.517 109.905 524.859 109.333 526.465 109.333ZM526.663 111.181C525.563 111.181 524.639 111.577 523.869 112.369C523.121 113.139 522.747 114.129 522.747 115.295C522.747 116.461 523.121 117.451 523.869 118.243C524.639 119.013 525.563 119.409 526.663 119.409C527.785 119.409 528.709 119.013 529.457 118.243C530.227 117.451 530.601 116.461 530.601 115.295C530.601 114.129 530.227 113.139 529.457 112.369C528.709 111.577 527.785 111.181 526.663 111.181ZM541.644 109.575H547.54C549.234 109.575 550.576 110.543 550.906 111.929C550.928 112.039 550.972 112.193 550.994 112.391C550.994 113.469 550.598 114.327 549.806 114.943C550.862 115.471 551.544 116.505 551.544 117.671C551.544 118.639 551.214 119.431 550.532 120.069C549.85 120.707 549.014 121.015 548.002 121.015H541.644V109.575ZM543.492 115.867V119.233H548.002C548.904 119.233 549.608 118.507 549.608 117.561C549.608 116.593 548.904 115.867 548.002 115.867H543.492ZM547.54 111.357H543.492V114.305H547.54C548.442 114.305 549.08 113.689 549.08 112.831C549.08 111.973 548.442 111.357 547.54 111.357ZM562.083 115.119V121.015H560.103V105.615H566.857C568.287 105.615 569.475 106.077 570.421 106.979C571.367 107.881 571.851 109.025 571.851 110.367C571.851 111.709 571.367 112.853 570.421 113.755C569.475 114.657 568.287 115.119 566.857 115.119H562.083ZM566.857 107.463H562.083V113.271H566.857C567.693 113.271 568.397 112.985 568.947 112.435C569.497 111.885 569.783 111.181 569.783 110.367C569.783 108.695 568.529 107.463 566.857 107.463ZM574.408 121.015V104.515H576.256V111.489C577.158 110.059 578.522 109.333 580.348 109.333C581.69 109.333 582.79 109.773 583.67 110.631C584.55 111.489 584.99 112.589 584.99 113.887V121.015H583.142V114.371C583.142 113.447 582.834 112.677 582.196 112.039C581.558 111.401 580.788 111.093 579.842 111.093C578.83 111.093 577.972 111.423 577.29 112.061C576.608 112.699 576.256 113.469 576.256 114.415V121.015H574.408ZM589.172 119.563C588.05 118.419 587.478 116.989 587.478 115.295C587.478 113.601 588.05 112.171 589.172 111.049C590.316 109.905 591.746 109.333 593.44 109.333C595.134 109.333 596.564 109.905 597.708 111.049C598.852 112.171 599.424 113.601 599.424 115.295C599.424 116.989 598.852 118.419 597.708 119.563C596.564 120.685 595.134 121.257 593.44 121.257C591.746 121.257 590.316 120.685 589.172 119.563ZM593.44 119.409C594.606 119.409 595.574 119.013 596.344 118.243C597.114 117.451 597.51 116.461 597.51 115.295C597.51 114.129 597.114 113.139 596.344 112.369C595.574 111.577 594.606 111.181 593.44 111.181C592.296 111.181 591.328 111.577 590.558 112.369C589.788 113.139 589.392 114.129 589.392 115.295C589.392 116.461 589.788 117.451 590.558 118.243C591.328 119.013 592.296 119.409 593.44 119.409ZM600.633 111.203V109.575H602.481V107.287H604.329V109.575H607.519V111.203H604.329V117.429C604.329 118.463 605.033 119.233 605.979 119.233H607.519V121.015H605.847C604.901 121.015 604.087 120.685 603.449 120.047C602.811 119.409 602.481 118.595 602.481 117.649V111.203H600.633ZM610.85 119.563C609.728 118.419 609.156 116.989 609.156 115.295C609.156 113.601 609.728 112.171 610.85 111.049C611.994 109.905 613.424 109.333 615.118 109.333C616.812 109.333 618.242 109.905 619.386 111.049C620.53 112.171 621.102 113.601 621.102 115.295C621.102 116.989 620.53 118.419 619.386 119.563C618.242 120.685 616.812 121.257 615.118 121.257C613.424 121.257 611.994 120.685 610.85 119.563ZM615.118 119.409C616.284 119.409 617.252 119.013 618.022 118.243C618.792 117.451 619.188 116.461 619.188 115.295C619.188 114.129 618.792 113.139 618.022 112.369C617.252 111.577 616.284 111.181 615.118 111.181C613.974 111.181 613.006 111.577 612.236 112.369C611.466 113.139 611.07 114.129 611.07 115.295C611.07 116.461 611.466 117.451 612.236 118.243C613.006 119.013 613.974 119.409 615.118 119.409ZM631.394 112.061L629.656 112.369C629.414 111.511 628.512 110.961 627.192 110.961C625.938 110.961 624.992 111.555 624.992 112.457C624.992 113.051 625.388 113.513 626.202 113.799L628.996 114.789C630.734 115.427 631.614 116.483 631.614 117.913C631.614 120.025 629.81 121.257 627.324 121.257C624.86 121.257 623.232 120.091 622.902 118.265L624.64 117.957C624.882 118.947 625.894 119.629 627.368 119.629C628.776 119.629 629.854 118.947 629.854 117.979C629.854 117.297 629.348 116.769 628.336 116.417L625.608 115.471C624.002 114.921 623.21 113.953 623.21 112.589C623.21 110.499 624.926 109.333 627.324 109.333C629.546 109.333 631.064 110.389 631.394 112.061ZM634.113 121.015V104.515H635.961V111.489C636.863 110.059 638.227 109.333 640.053 109.333C641.395 109.333 642.495 109.773 643.375 110.631C644.255 111.489 644.695 112.589 644.695 113.887V121.015H642.847V114.371C642.847 113.447 642.539 112.677 641.901 112.039C641.263 111.401 640.493 111.093 639.547 111.093C638.535 111.093 637.677 111.423 636.995 112.061C636.313 112.699 635.961 113.469 635.961 114.415V121.015H634.113ZM648.877 119.563C647.755 118.419 647.183 116.989 647.183 115.295C647.183 113.601 647.755 112.171 648.877 111.049C650.021 109.905 651.451 109.333 653.145 109.333C654.839 109.333 656.269 109.905 657.413 111.049C658.557 112.171 659.129 113.601 659.129 115.295C659.129 116.989 658.557 118.419 657.413 119.563C656.269 120.685 654.839 121.257 653.145 121.257C651.451 121.257 650.021 120.685 648.877 119.563ZM653.145 119.409C654.311 119.409 655.279 119.013 656.049 118.243C656.819 117.451 657.215 116.461 657.215 115.295C657.215 114.129 656.819 113.139 656.049 112.369C655.279 111.577 654.311 111.181 653.145 111.181C652.001 111.181 651.033 111.577 650.263 112.369C649.493 113.139 649.097 114.129 649.097 115.295C649.097 116.461 649.493 117.451 650.263 118.243C651.033 119.013 652.001 119.409 653.145 119.409ZM663.504 125.965H661.656V109.575H663.504V111.203C664.582 109.949 665.968 109.333 667.662 109.333C669.268 109.333 670.61 109.905 671.688 111.049C672.766 112.171 673.316 113.601 673.316 115.295C673.316 116.989 672.766 118.419 671.688 119.563C670.61 120.685 669.268 121.257 667.662 121.257C665.968 121.257 664.582 120.641 663.504 119.387V125.965ZM667.464 111.181C666.364 111.181 665.44 111.577 664.67 112.369C663.922 113.139 663.548 114.129 663.548 115.295C663.548 116.461 663.922 117.451 664.67 118.243C665.44 119.013 666.364 119.409 667.464 119.409C668.586 119.409 669.51 119.013 670.258 118.243C671.028 117.451 671.402 116.461 671.402 115.295C671.402 114.129 671.028 113.139 670.258 112.369C669.51 111.577 668.586 111.181 667.464 111.181Z" fill="#1E1F24"/>
<mask id="mask3_1_1482" style="mask-type:luminance" maskUnits="userSpaceOnUse" x="754" y="94" width="51" height="51">
<path d="M804.5 94.5156H754.5V144.516H804.5V94.5156Z" fill="white"/>
</mask>
<g mask="url(#mask3_1_1482)">
<path d="M763.354 94.5156H795.646C800.542 94.5156 804.5 98.5754 804.5 103.597V135.435C804.5 140.456 800.542 144.516 795.646 144.516H763.354C758.458 144.516 754.5 140.456 754.5 135.435V103.597C754.5 98.5754 758.458 94.5156 763.354 94.5156Z" fill="#330000"/>
<path d="M778.728 124.515H770.978L769.395 129.536C769.353 129.728 769.186 129.857 768.999 129.835H765.082C764.853 129.835 764.79 129.707 764.853 129.451L771.561 109.643C771.624 109.429 771.686 109.194 771.77 108.938C771.853 108.489 771.895 108.019 771.895 107.549C771.874 107.442 771.957 107.335 772.061 107.314C772.082 107.314 772.103 107.314 772.124 107.314H777.457C777.624 107.314 777.707 107.378 777.728 107.485L785.332 129.493C785.395 129.728 785.332 129.835 785.124 129.835H780.77C780.624 129.857 780.478 129.75 780.436 129.6L778.728 124.515ZM772.186 120.177H777.478C777.353 119.728 777.186 119.194 776.999 118.639C776.811 118.062 776.624 117.442 776.436 116.801C776.228 116.139 776.04 115.498 775.832 114.835C775.624 114.173 775.436 113.553 775.27 112.933C775.103 112.335 774.957 111.78 774.811 111.267H774.77C774.582 112.186 774.353 113.104 774.061 114.023C773.749 115.049 773.436 116.117 773.103 117.186C772.811 118.275 772.499 119.28 772.186 120.177Z" fill="#FF9A00"/>
<path d="M789.874 110.968C789.186 110.989 788.52 110.711 788.02 110.22C787.54 109.686 787.29 108.98 787.311 108.254C787.29 107.527 787.561 106.844 788.061 106.352C788.561 105.861 789.228 105.604 789.915 105.604C790.728 105.604 791.353 105.861 791.811 106.352C792.27 106.865 792.52 107.549 792.499 108.254C792.52 108.98 792.27 109.686 791.77 110.22C791.29 110.733 790.582 111.01 789.874 110.968ZM787.54 129.515V113.062C787.54 112.848 787.624 112.762 787.811 112.762H791.936C792.124 112.762 792.207 112.869 792.207 113.062V129.515C792.207 129.75 792.124 129.856 791.936 129.856H787.853C787.645 129.856 787.54 129.728 787.54 129.515Z" fill="#FF9A00"/>
</g>
<path d="M837.96 110.516H830.216V95.1156H837.52C838.774 95.1156 839.808 95.5116 840.644 96.2816C841.502 97.0516 841.92 97.9976 841.92 99.1416C841.92 100.528 841.348 101.606 840.182 102.376C841.7 103.08 842.668 104.51 842.668 106.204C842.668 107.414 842.206 108.448 841.304 109.284C840.402 110.098 839.302 110.516 837.96 110.516ZM837.96 103.432H832.196V108.668H837.96C839.456 108.668 840.6 107.546 840.6 106.05C840.6 105.324 840.336 104.708 839.83 104.202C839.324 103.696 838.708 103.432 837.96 103.432ZM837.52 96.9636H832.196V101.584H837.52C838.862 101.584 839.874 100.594 839.874 99.2736C839.874 97.9536 838.862 96.9636 837.52 96.9636ZM856.298 105.434H846.464C846.596 106.468 847.058 107.326 847.828 108.008C848.598 108.69 849.544 109.02 850.644 109.02C852.096 109.02 853.218 108.47 854.032 107.37L855.836 107.942C854.78 109.68 852.866 110.758 850.644 110.758C848.906 110.758 847.454 110.186 846.288 109.064C845.122 107.92 844.55 106.49 844.55 104.796C844.55 103.102 845.122 101.672 846.244 100.55C847.366 99.4056 848.774 98.8336 850.446 98.8336C852.118 98.8336 853.526 99.4056 854.648 100.55C855.77 101.672 856.342 103.102 856.342 104.796C856.342 104.928 856.32 105.148 856.298 105.434ZM846.486 103.938H854.428C854.252 102.948 853.79 102.134 853.042 101.496C852.294 100.858 851.414 100.55 850.402 100.55C849.412 100.55 848.554 100.858 847.828 101.496C847.102 102.134 846.662 102.948 846.486 103.938ZM868.315 110.516H866.005L860.857 104.598L865.565 99.0756H867.831L863.145 104.598L868.315 110.516ZM860.549 99.0756V110.516H858.701V99.0756H860.549ZM873.361 110.516V100.858H869.071V99.0756H879.499V100.858H875.209V110.516H873.361ZM881.994 109.064C880.872 107.92 880.3 106.49 880.3 104.796C880.3 103.102 880.872 101.672 881.994 100.55C883.138 99.4056 884.568 98.8336 886.262 98.8336C887.956 98.8336 889.386 99.4056 890.53 100.55C891.674 101.672 892.246 103.102 892.246 104.796C892.246 106.49 891.674 107.92 890.53 109.064C889.386 110.186 887.956 110.758 886.262 110.758C884.568 110.758 883.138 110.186 881.994 109.064ZM886.262 108.91C887.428 108.91 888.396 108.514 889.166 107.744C889.936 106.952 890.332 105.962 890.332 104.796C890.332 103.63 889.936 102.64 889.166 101.87C888.396 101.078 887.428 100.682 886.262 100.682C885.118 100.682 884.15 101.078 883.38 101.87C882.61 102.64 882.214 103.63 882.214 104.796C882.214 105.962 882.61 106.952 883.38 107.744C884.15 108.514 885.118 108.91 886.262 108.91ZM896.621 115.466H894.773V99.0756H896.621V100.704C897.699 99.4496 899.085 98.8336 900.779 98.8336C902.385 98.8336 903.727 99.4056 904.805 100.55C905.883 101.672 906.433 103.102 906.433 104.796C906.433 106.49 905.883 107.92 904.805 109.064C903.727 110.186 902.385 110.758 900.779 110.758C899.085 110.758 897.699 110.142 896.621 108.888V115.466ZM900.581 100.682C899.481 100.682 898.557 101.078 897.787 101.87C897.039 102.64 896.665 103.63 896.665 104.796C896.665 105.962 897.039 106.952 897.787 107.744C898.557 108.514 899.481 108.91 900.581 108.91C901.703 108.91 902.627 108.514 903.375 107.744C904.145 106.952 904.519 105.962 904.519 104.796C904.519 103.63 904.145 102.64 903.375 101.87C902.627 101.078 901.703 100.682 900.581 100.682ZM910.801 105.588V110.516H908.953V99.0756H910.801V103.806H917.621V99.0756H919.469V110.516H917.621V105.588H910.801ZM927.633 98.8336C929.327 98.8336 930.735 99.4496 931.813 100.704V99.0756H933.661V110.516H931.813V108.888C930.735 110.142 929.327 110.758 927.633 110.758C926.027 110.758 924.685 110.186 923.607 109.064C922.529 107.92 922.001 106.49 922.001 104.796C922.001 103.102 922.529 101.672 923.607 100.55C924.685 99.4056 926.027 98.8336 927.633 98.8336ZM927.831 100.682C926.731 100.682 925.807 101.078 925.037 101.87C924.289 102.64 923.915 103.63 923.915 104.796C923.915 105.962 924.289 106.952 925.037 107.744C925.807 108.514 926.731 108.91 927.831 108.91C928.953 108.91 929.877 108.514 930.625 107.744C931.395 106.952 931.769 105.962 931.769 104.796C931.769 103.63 931.395 102.64 930.625 101.87C929.877 101.078 928.953 100.682 927.831 100.682ZM941.373 106.358L938.469 110.516H936.291L939.239 106.292C937.545 105.94 936.357 104.488 936.357 102.706C936.357 101.672 936.709 100.792 937.391 100.11C938.095 99.4276 938.975 99.0756 940.009 99.0756H946.235V110.516H944.387V106.358H941.373ZM940.009 104.576H944.387V100.858H940.009C939.019 100.858 938.271 101.65 938.271 102.706C938.271 103.762 939.019 104.576 940.009 104.576ZM957.25 100.858V110.516H955.402V99.0756H962.772V100.858H957.25ZM966.553 115.466H964.705V99.0756H966.553V100.704C967.631 99.4496 969.017 98.8336 970.711 98.8336C972.317 98.8336 973.659 99.4056 974.737 100.55C975.815 101.672 976.365 103.102 976.365 104.796C976.365 106.49 975.815 107.92 974.737 109.064C973.659 110.186 972.317 110.758 970.711 110.758C969.017 110.758 967.631 110.142 966.553 108.888V115.466ZM970.513 100.682C969.413 100.682 968.489 101.078 967.719 101.87C966.971 102.64 966.597 103.63 966.597 104.796C966.597 105.962 966.971 106.952 967.719 107.744C968.489 108.514 969.413 108.91 970.513 108.91C971.635 108.91 972.559 108.514 973.307 107.744C974.077 106.952 974.451 105.962 974.451 104.796C974.451 103.63 974.077 102.64 973.307 101.87C972.559 101.078 971.635 100.682 970.513 100.682ZM983.922 98.8336C985.616 98.8336 987.024 99.4496 988.102 100.704V99.0756H989.95V110.516H988.102V108.888C987.024 110.142 985.616 110.758 983.922 110.758C982.316 110.758 980.974 110.186 979.896 109.064C978.818 107.92 978.29 106.49 978.29 104.796C978.29 103.102 978.818 101.672 979.896 100.55C980.974 99.4056 982.316 98.8336 983.922 98.8336ZM984.12 100.682C983.02 100.682 982.096 101.078 981.326 101.87C980.578 102.64 980.204 103.63 980.204 104.796C980.204 105.962 980.578 106.952 981.326 107.744C982.096 108.514 983.02 108.91 984.12 108.91C985.242 108.91 986.166 108.514 986.914 107.744C987.684 106.952 988.058 105.962 988.058 104.796C988.058 103.63 987.684 102.64 986.914 101.87C986.166 101.078 985.242 100.682 984.12 100.682ZM1001.78 110.758C1001.45 110.758 1001.23 110.758 1001.07 110.736V115.466H999.224V110.736C999.07 110.758 998.828 110.758 998.52 110.758C996.826 110.758 995.396 110.186 994.252 109.064C993.108 107.92 992.536 106.49 992.536 104.796C992.536 103.102 993.108 101.672 994.252 100.55C995.396 99.4056 996.826 98.8336 998.52 98.8336C998.828 98.8336 999.07 98.8336 999.224 98.8556V94.0156H1001.07V98.8556C1001.23 98.8336 1001.45 98.8336 1001.78 98.8336C1003.47 98.8336 1004.9 99.4056 1006.02 100.55C1007.17 101.672 1007.74 103.102 1007.74 104.796C1007.74 106.49 1007.17 107.92 1006.02 109.064C1004.9 110.186 1003.47 110.758 1001.78 110.758ZM998.52 100.682C997.354 100.682 996.386 101.078 995.616 101.87C994.846 102.64 994.45 103.63 994.45 104.796C994.45 105.962 994.846 106.952 995.616 107.744C996.386 108.514 997.354 108.91 998.52 108.91C998.674 108.91 998.894 108.888 999.224 108.866V100.726C998.894 100.704 998.674 100.682 998.52 100.682ZM1001.78 100.682C1001.6 100.682 1001.36 100.704 1001.07 100.726V108.866C1001.36 108.888 1001.6 108.91 1001.78 108.91C1002.94 108.91 1003.89 108.514 1004.66 107.744C1005.43 106.952 1005.82 105.962 1005.82 104.796C1005.82 103.63 1005.43 102.64 1004.66 101.87C1003.89 101.078 1002.94 100.682 1001.78 100.682ZM1019.05 102.178L1011.92 110.516H1010.36V99.0756H1012.21V107.458L1019.33 99.0756H1020.9V110.516H1019.05V102.178ZM1033.66 110.516H1031.35L1026.2 104.598L1030.91 99.0756H1033.17L1028.49 104.598L1033.66 110.516ZM1025.89 99.0756V110.516H1024.04V99.0756H1025.89ZM1040.06 98.8336C1041.75 98.8336 1043.16 99.4496 1044.24 100.704V99.0756H1046.09V110.516H1044.24V108.888C1043.16 110.142 1041.75 110.758 1040.06 110.758C1038.45 110.758 1037.11 110.186 1036.03 109.064C1034.96 107.92 1034.43 106.49 1034.43 104.796C1034.43 103.102 1034.96 101.672 1036.03 100.55C1037.11 99.4056 1038.45 98.8336 1040.06 98.8336ZM1040.26 100.682C1039.16 100.682 1038.23 101.078 1037.46 101.87C1036.72 102.64 1036.34 103.63 1036.34 104.796C1036.34 105.962 1036.72 106.952 1037.46 107.744C1038.23 108.514 1039.16 108.91 1040.26 108.91C1041.38 108.91 1042.3 108.514 1043.05 107.744C1043.82 106.952 1044.2 105.962 1044.2 104.796C1044.2 103.63 1043.82 102.64 1043.05 101.87C1042.3 101.078 1041.38 100.682 1040.26 100.682ZM830.062 128.076H835.958C837.652 128.076 838.994 129.044 839.324 130.43C839.346 130.54 839.39 130.694 839.412 130.892C839.412 131.97 839.016 132.828 838.224 133.444C839.28 133.972 839.962 135.006 839.962 136.172C839.962 137.14 839.632 137.932 838.95 138.57C838.268 139.208 837.432 139.516 836.42 139.516H830.062V128.076ZM831.91 134.368V137.734H836.42C837.322 137.734 838.026 137.008 838.026 136.062C838.026 135.094 837.322 134.368 836.42 134.368H831.91ZM835.958 129.858H831.91V132.806H835.958C836.86 132.806 837.498 132.19 837.498 131.332C837.498 130.474 836.86 129.858 835.958 129.858ZM849.269 139.516H847.179L853.933 124.116H855.539L862.293 139.516H860.203L858.707 136.062H850.765L849.269 139.516ZM857.893 134.214L854.747 126.954L851.579 134.214H857.893ZM868.873 127.834C870.567 127.834 871.975 128.45 873.053 129.704V123.016H874.901V139.516H873.053V137.888C871.975 139.142 870.567 139.758 868.873 139.758C867.267 139.758 865.925 139.186 864.847 138.064C863.769 136.92 863.241 135.49 863.241 133.796C863.241 132.102 863.769 130.672 864.847 129.55C865.925 128.406 867.267 127.834 868.873 127.834ZM869.071 129.682C867.971 129.682 867.047 130.078 866.277 130.87C865.529 131.64 865.155 132.63 865.155 133.796C865.155 134.962 865.529 135.952 866.277 136.744C867.047 137.514 867.971 137.91 869.071 137.91C870.193 137.91 871.117 137.514 871.865 136.744C872.635 135.952 873.009 134.962 873.009 133.796C873.009 132.63 872.635 131.64 871.865 130.87C871.117 130.078 870.193 129.682 869.071 129.682ZM879.115 138.064C877.993 136.92 877.421 135.49 877.421 133.796C877.421 132.102 877.993 130.672 879.115 129.55C880.259 128.406 881.689 127.834 883.383 127.834C885.077 127.834 886.507 128.406 887.651 129.55C888.795 130.672 889.367 132.102 889.367 133.796C889.367 135.49 888.795 136.92 887.651 138.064C886.507 139.186 885.077 139.758 883.383 139.758C881.689 139.758 880.259 139.186 879.115 138.064ZM883.383 137.91C884.549 137.91 885.517 137.514 886.287 136.744C887.057 135.952 887.453 134.962 887.453 133.796C887.453 132.63 887.057 131.64 886.287 130.87C885.517 130.078 884.549 129.682 883.383 129.682C882.239 129.682 881.271 130.078 880.501 130.87C879.731 131.64 879.335 132.63 879.335 133.796C879.335 134.962 879.731 135.952 880.501 136.744C881.271 137.514 882.239 137.91 883.383 137.91ZM891.894 139.516V123.016H893.742V129.704C894.82 128.45 896.206 127.834 897.9 127.834C899.506 127.834 900.848 128.406 901.926 129.55C903.004 130.672 903.554 132.102 903.554 133.796C903.554 135.49 903.004 136.92 901.926 138.064C900.848 139.186 899.506 139.758 897.9 139.758C896.206 139.758 894.82 139.142 893.742 137.888V139.516H891.894ZM897.702 129.682C896.602 129.682 895.678 130.078 894.908 130.87C894.16 131.64 893.786 132.63 893.786 133.796C893.786 134.962 894.16 135.952 894.908 136.744C895.678 137.514 896.602 137.91 897.702 137.91C898.824 137.91 899.748 137.514 900.496 136.744C901.266 135.952 901.64 134.962 901.64 133.796C901.64 132.63 901.266 131.64 900.496 130.87C899.748 130.078 898.824 129.682 897.702 129.682ZM917.228 134.434H907.394C907.526 135.468 907.988 136.326 908.758 137.008C909.528 137.69 910.474 138.02 911.574 138.02C913.026 138.02 914.148 137.47 914.962 136.37L916.766 136.942C915.71 138.68 913.796 139.758 911.574 139.758C909.836 139.758 908.384 139.186 907.218 138.064C906.052 136.92 905.48 135.49 905.48 133.796C905.48 132.102 906.052 130.672 907.174 129.55C908.296 128.406 909.704 127.834 911.376 127.834C913.048 127.834 914.456 128.406 915.578 129.55C916.7 130.672 917.272 132.102 917.272 133.796C917.272 133.928 917.25 134.148 917.228 134.434ZM907.416 132.938H915.358C915.182 131.948 914.72 131.134 913.972 130.496C913.224 129.858 912.344 129.55 911.332 129.55C910.342 129.55 909.484 129.858 908.758 130.496C908.032 131.134 907.592 131.948 907.416 132.938ZM927.801 139.516H925.821V124.116H927.801V139.516ZM932.93 139.516H931.082V123.016H932.93V139.516ZM937.892 139.516H936.044V123.016H937.892V139.516ZM940.963 135.204V128.076H942.811V134.72C942.811 135.644 943.119 136.414 943.735 137.052C944.373 137.69 945.143 137.998 946.089 137.998C947.079 137.998 947.915 137.69 948.597 137.052C949.279 136.414 949.631 135.622 949.631 134.676V128.076H951.479V139.516H949.631V137.624C948.773 139.054 947.409 139.758 945.583 139.758C944.241 139.758 943.141 139.318 942.261 138.46C941.403 137.602 940.963 136.502 940.963 135.204ZM962.373 130.562L960.635 130.87C960.393 130.012 959.491 129.462 958.171 129.462C956.917 129.462 955.971 130.056 955.971 130.958C955.971 131.552 956.367 132.014 957.181 132.3L959.975 133.29C961.713 133.928 962.593 134.984 962.593 136.414C962.593 138.526 960.789 139.758 958.303 139.758C955.839 139.758 954.211 138.592 953.881 136.766L955.619 136.458C955.861 137.448 956.873 138.13 958.347 138.13C959.755 138.13 960.833 137.448 960.833 136.48C960.833 135.798 960.327 135.27 959.315 134.918L956.587 133.972C954.981 133.422 954.189 132.454 954.189 131.09C954.189 129 955.905 127.834 958.303 127.834C960.525 127.834 962.043 128.89 962.373 130.562ZM963.859 129.704V128.076H965.707V125.788H967.555V128.076H970.745V129.704H967.555V135.93C967.555 136.964 968.259 137.734 969.205 137.734H970.745V139.516H969.073C968.127 139.516 967.313 139.186 966.675 138.548C966.037 137.91 965.707 137.096 965.707 136.15V129.704H963.859ZM974.91 133.048V139.516H973.062V128.076H974.91V130.012C975.768 128.56 977.132 127.834 978.98 127.834H979.288V129.88C979.046 129.792 978.782 129.748 978.474 129.748C977.484 129.748 976.626 130.056 975.944 130.694C975.262 131.332 974.91 132.102 974.91 133.048ZM985.813 127.834C987.507 127.834 988.915 128.45 989.993 129.704V128.076H991.841V139.516H989.993V137.888C988.915 139.142 987.507 139.758 985.813 139.758C984.207 139.758 982.865 139.186 981.787 138.064C980.709 136.92 980.181 135.49 980.181 133.796C980.181 132.102 980.709 130.672 981.787 129.55C982.865 128.406 984.207 127.834 985.813 127.834ZM986.011 129.682C984.911 129.682 983.987 130.078 983.217 130.87C982.469 131.64 982.095 132.63 982.095 133.796C982.095 134.962 982.469 135.952 983.217 136.744C983.987 137.514 984.911 137.91 986.011 137.91C987.133 137.91 988.057 137.514 988.805 136.744C989.575 135.952 989.949 134.962 989.949 133.796C989.949 132.63 989.575 131.64 988.805 130.87C988.057 130.078 987.133 129.682 986.011 129.682ZM993.723 129.704V128.076H995.571V125.788H997.419V128.076H1000.61V129.704H997.419V135.93C997.419 136.964 998.123 137.734 999.069 137.734H1000.61V139.516H998.937C997.991 139.516 997.177 139.186 996.539 138.548C995.901 137.91 995.571 137.096 995.571 136.15V129.704H993.723ZM1003.94 138.064C1002.82 136.92 1002.25 135.49 1002.25 133.796C1002.25 132.102 1002.82 130.672 1003.94 129.55C1005.08 128.406 1006.51 127.834 1008.21 127.834C1009.9 127.834 1011.33 128.406 1012.48 129.55C1013.62 130.672 1014.19 132.102 1014.19 133.796C1014.19 135.49 1013.62 136.92 1012.48 138.064C1011.33 139.186 1009.9 139.758 1008.21 139.758C1006.51 139.758 1005.08 139.186 1003.94 138.064ZM1008.21 137.91C1009.37 137.91 1010.34 137.514 1011.11 136.744C1011.88 135.952 1012.28 134.962 1012.28 133.796C1012.28 132.63 1011.88 131.64 1011.11 130.87C1010.34 130.078 1009.37 129.682 1008.21 129.682C1007.06 129.682 1006.1 130.078 1005.33 130.87C1004.56 131.64 1004.16 132.63 1004.16 133.796C1004.16 134.962 1004.56 135.952 1005.33 136.744C1006.1 137.514 1007.06 137.91 1008.21 137.91ZM1018.57 133.048V139.516H1016.72V128.076H1018.57V130.012C1019.42 128.56 1020.79 127.834 1022.64 127.834H1022.94V129.88C1022.7 129.792 1022.44 129.748 1022.13 129.748C1021.14 129.748 1020.28 130.056 1019.6 130.694C1018.92 131.332 1018.57 132.102 1018.57 133.048Z" fill="#1E1F24"/>
<path d="M1.5 60.5156L1.5 0.515625" stroke="#1D6CE3" stroke-width="1.5" stroke-miterlimit="10"/>
<path d="M379.5 60.5156V23.5156" stroke="#1D6CE3" stroke-width="1.5" stroke-miterlimit="10"/>
<path d="M754.5 60.5156V23.5156" stroke="#1D6CE3" stroke-width="1.5" stroke-miterlimit="10"/>
<path d="M1.5 23.5156H754.5" stroke="#1D6CE3" stroke-width="1.5" stroke-miterlimit="10"/>
</g>
<defs>
<clipPath id="clip0_1_1482">
<rect width="1048" height="148" fill="white" transform="translate(0.5 0.515625)"/>
</clipPath>
</defs>
</svg>
