<svg width="311" height="25" viewBox="0 0 311 25" fill="none" xmlns="http://www.w3.org/2000/svg">
<g clip-path="url(#clip0_1_1010)">
<g clip-path="url(#clip1_1_1010)">
<mask id="mask0_1_1010" style="mask-type:luminance" maskUnits="userSpaceOnUse" x="0" y="0" width="25" height="25">
<path d="M24.5 0.634766H0.5V24.6348H24.5V0.634766Z" fill="white"/>
</mask>
<g mask="url(#mask0_1_1010)">
<path d="M19.7331 1.43555H5.26647C3.07574 1.43555 1.2998 3.25702 1.2998 5.50392V19.7671C1.2998 22.014 3.07574 23.8355 5.26647 23.8355H19.7331C21.9239 23.8355 23.6998 22.014 23.6998 19.7671V5.50392C23.6998 3.25702 21.9239 1.43555 19.7331 1.43555Z" fill="#00005B"/>
<path d="M10.2989 14.8386H6.8277L6.12146 17.093C6.11185 17.1341 6.08857 17.1704 6.05565 17.1957C6.02273 17.221 5.98223 17.2338 5.94113 17.2317H4.18302C4.08276 17.2317 4.04769 17.1752 4.07783 17.0622L7.08318 8.22162C7.11321 8.12916 7.14329 8.03877 7.17333 7.92052C7.21268 7.7149 7.23281 7.5059 7.23343 7.29635C7.2314 7.2817 7.23272 7.26676 7.23728 7.25272C7.24185 7.23868 7.24954 7.22592 7.25974 7.21545C7.26995 7.20498 7.28238 7.19709 7.29607 7.19241C7.30977 7.18772 7.32433 7.18637 7.33862 7.18845H9.72787C9.79783 7.18845 9.8379 7.21414 9.8481 7.26553L13.2591 17.0776C13.2892 17.1804 13.2591 17.2318 13.169 17.2317H11.2155C11.182 17.2356 11.1482 17.2267 11.1205 17.2069C11.0929 17.187 11.0732 17.1575 11.0653 17.1239L10.2989 14.8386ZM7.3687 12.9377H9.74291C9.6828 12.7323 9.61266 12.5011 9.5325 12.2441C9.4522 11.9874 9.36706 11.7126 9.27707 11.4196C9.18692 11.1268 9.09676 10.8339 9.00659 10.5411C8.91644 10.2483 8.83379 9.96575 8.75862 9.69346C8.68352 9.42135 8.61591 9.1722 8.55578 8.94599H8.54074C8.45619 9.36224 8.35087 9.77376 8.22519 10.1789C8.08478 10.6413 7.94203 11.1139 7.79694 11.5968C7.65162 12.0799 7.50887 12.5268 7.3687 12.9377Z" fill="#9999FF"/>
<path d="M18.7886 13.9607H15.8284C15.8646 14.2611 15.9619 14.5503 16.1139 14.8098C16.2819 15.0667 16.5196 15.2676 16.7976 15.3877C17.1743 15.555 17.5818 15.6369 17.9922 15.6279C18.3178 15.6215 18.6422 15.585 18.9614 15.5188C19.2469 15.4792 19.5267 15.4044 19.7947 15.296C19.8447 15.255 19.8699 15.2806 19.8699 15.373V16.8372C19.8723 16.8771 19.8646 16.9169 19.8473 16.9528C19.8301 16.9808 19.807 17.0045 19.7797 17.0221C19.4824 17.1572 19.1696 17.2527 18.8487 17.3066C18.4128 17.3905 17.9698 17.4292 17.5264 17.4221C16.8149 17.4221 16.2189 17.3091 15.7382 17.0831C15.2838 16.8778 14.8824 16.5664 14.5661 16.1738C14.2707 15.8038 14.0509 15.3766 13.92 14.9177C13.7903 14.4647 13.7245 13.995 13.7246 13.5229C13.7232 13.0074 13.8019 12.495 13.9576 12.0048C14.1075 11.5267 14.3446 11.0822 14.6563 10.6948C14.9637 10.312 15.3482 10.0018 15.7833 9.78553C16.224 9.5647 16.745 9.48549 17.346 9.48549C17.8445 9.47256 18.3396 9.57254 18.7961 9.7783C19.18 9.94621 19.5179 10.208 19.7804 10.5407C20.0265 10.8665 20.2148 11.2343 20.3363 11.6272C20.4547 12.0059 20.5156 12.4009 20.5167 12.7986C20.5167 13.0247 20.5092 13.2302 20.4941 13.415C20.4791 13.6 20.4666 13.7335 20.4566 13.8157C20.4527 13.8497 20.4367 13.881 20.4118 13.9038C20.3869 13.9265 20.3547 13.9391 20.3213 13.939C20.2612 13.939 20.1585 13.9467 20.0133 13.9622C19.868 13.9776 19.6876 13.9878 19.4723 13.993C19.2568 13.9983 19.029 13.9607 18.7886 13.9607ZM15.8284 12.5567H17.7968C18.0373 12.5567 18.2151 12.5541 18.3303 12.549C18.4074 12.5411 18.4818 12.5158 18.5482 12.4749V12.3824C18.5452 12.2619 18.5249 12.1425 18.4881 12.0279C18.407 11.765 18.244 11.5366 18.0241 11.3779C17.8042 11.2192 17.5396 11.139 17.2709 11.1495C17.0181 11.1338 16.7662 11.1939 16.5461 11.3225C16.3259 11.4512 16.147 11.6427 16.0312 11.8738C15.9283 12.0888 15.8598 12.3194 15.8284 12.5567Z" fill="#9999FF"/>
</g>
</g>
</g>
<path d="M43.5385 10.9727H41.4268C41.3666 10.6264 41.2555 10.3196 41.0937 10.0524C40.9318 9.78136 40.7304 9.55174 40.4895 9.36353C40.2486 9.17532 39.9738 9.03416 39.6652 8.94006C39.3603 8.84219 39.0309 8.79325 38.6771 8.79325C38.0484 8.79325 37.4913 8.95135 37.0058 9.26754C36.5202 9.57997 36.14 10.0392 35.8652 10.6452C35.5904 11.2475 35.453 11.9834 35.453 12.8529C35.453 13.7375 35.5904 14.4828 35.8652 15.0889C36.1437 15.6912 36.5239 16.1466 37.0058 16.4553C37.4913 16.7602 38.0466 16.9126 38.6714 16.9126C39.0177 16.9126 39.3414 16.8675 39.6426 16.7771C39.9475 16.683 40.2204 16.5456 40.4613 16.365C40.706 16.1843 40.9111 15.9622 41.0767 15.6987C41.2461 15.4352 41.3628 15.1341 41.4268 14.7953L43.5385 14.8066C43.4595 15.3561 43.2882 15.8718 43.0247 16.3537C42.765 16.8355 42.4243 17.2608 42.0027 17.6297C41.5811 17.9949 41.088 18.2809 40.5234 18.488C39.9588 18.6912 39.332 18.7929 38.6432 18.7929C37.6268 18.7929 36.7197 18.5576 35.9217 18.0871C35.1237 17.6165 34.495 16.9371 34.0358 16.0488C33.5766 15.1604 33.3469 14.0951 33.3469 12.8529C33.3469 11.607 33.5784 10.5417 34.0414 9.65714C34.5044 8.76879 35.1349 8.08935 35.933 7.61882C36.731 7.1483 37.6344 6.91303 38.6432 6.91303C39.2869 6.91303 39.8854 7.00337 40.4387 7.18405C40.992 7.36474 41.4852 7.63011 41.918 7.98018C42.3509 8.32649 42.7066 8.75185 42.9852 9.25625C43.2675 9.75689 43.452 10.329 43.5385 10.9727ZM46.7146 21.887C46.436 21.887 46.1782 21.8645 45.941 21.8193C45.7077 21.7779 45.5213 21.7289 45.382 21.6725L45.8563 20.0802C46.1537 20.1668 46.4191 20.2082 46.6525 20.2044C46.8858 20.2007 47.091 20.1273 47.2679 19.9842C47.4486 19.845 47.601 19.6116 47.7253 19.2841L47.9003 18.8154L44.7553 9.96204H46.9235L48.9223 16.5118H49.0126L51.0171 9.96204H53.1909L49.7184 19.685C49.5566 20.1442 49.342 20.5376 49.0747 20.8651C48.8075 21.1963 48.48 21.4485 48.0923 21.6217C47.7083 21.7986 47.2491 21.887 46.7146 21.887ZM54.6053 18.6348V9.96204H61.9286V18.6348H59.958V11.639H56.5589V18.6348H54.6053ZM67.8699 18.8042C67.0003 18.8042 66.2494 18.6235 65.617 18.2621C64.9884 17.897 64.5047 17.3813 64.1659 16.715C63.8271 16.045 63.6577 15.2564 63.6577 14.3492C63.6577 13.4571 63.8271 12.6741 64.1659 12.0004C64.5084 11.3228 64.9865 10.7958 65.6001 10.4194C66.2136 10.0392 66.9345 9.84911 67.7626 9.84911C68.2971 9.84911 68.8015 9.93569 69.2758 10.1088C69.7539 10.2782 70.1755 10.5417 70.5406 10.8993C70.9095 11.2569 71.1993 11.7124 71.4101 12.2657C71.6209 12.8153 71.7263 13.4703 71.7263 14.2306V14.8574H64.6176V13.4797H69.767C69.7633 13.0882 69.6786 12.74 69.513 12.4351C69.3473 12.1265 69.1158 11.8837 68.8185 11.7067C68.5248 11.5298 68.1823 11.4414 67.7908 11.4414C67.373 11.4414 67.006 11.543 66.6898 11.7463C66.3736 11.9458 66.1271 12.2093 65.9501 12.5368C65.777 12.8605 65.6885 13.2162 65.6848 13.6039V14.8066C65.6848 15.311 65.777 15.7439 65.9614 16.1052C66.1459 16.4628 66.4037 16.7376 66.735 16.9296C67.0662 17.1178 67.4539 17.2119 67.8981 17.2119C68.1955 17.2119 68.4646 17.1705 68.7055 17.0877C68.9464 17.0011 69.1554 16.875 69.3323 16.7094C69.5092 16.5438 69.6428 16.3386 69.7332 16.0939L71.6416 16.3085C71.5212 16.8129 71.2915 17.2533 70.9528 17.6297C70.6177 18.0024 70.1886 18.2922 69.6654 18.4993C69.1422 18.7025 68.5437 18.8042 67.8699 18.8042ZM73.4555 21.887V9.96204H75.4656V11.3962H75.5841C75.6895 11.1854 75.8382 10.9614 76.0302 10.7243C76.2222 10.4834 76.4819 10.2782 76.8094 10.1088C77.1369 9.93569 77.5547 9.84911 78.0629 9.84911C78.7329 9.84911 79.3371 10.0204 79.8753 10.3629C80.4174 10.7017 80.8465 11.2042 81.1627 11.8705C81.4827 12.533 81.6426 13.3461 81.6426 14.3097C81.6426 15.262 81.4864 16.0713 81.174 16.7376C80.8616 17.4039 80.4362 17.912 79.8979 18.2621C79.3596 18.6122 78.7498 18.7872 78.0685 18.7872C77.5716 18.7872 77.1595 18.7044 76.832 18.5388C76.5045 18.3732 76.241 18.1737 76.0415 17.9403C75.8458 17.7031 75.6933 17.4792 75.5841 17.2684H75.4994V21.887H73.4555ZM75.4599 14.2984C75.4599 14.8593 75.539 15.3505 75.6971 15.7721C75.8589 16.1937 76.0904 16.523 76.3916 16.7602C76.6965 16.9936 77.0654 17.1103 77.4982 17.1103C77.9499 17.1103 78.3282 16.9898 78.6331 16.7489C78.9381 16.5042 79.1677 16.1711 79.322 15.7495C79.4801 15.3241 79.5591 14.8404 79.5591 14.2984C79.5591 13.7601 79.482 13.2821 79.3276 12.8642C79.1733 12.4464 78.9437 12.1189 78.6388 11.8818C78.3339 11.6446 77.9537 11.5261 77.4982 11.5261C77.0616 11.5261 76.6908 11.6409 76.3859 11.8705C76.081 12.1001 75.8495 12.4219 75.6914 12.836C75.5371 13.2501 75.4599 13.7375 75.4599 14.2984ZM88.9122 18.6348H86.6763L90.7473 7.07113H93.3333L97.4099 18.6348H95.174L92.0855 9.44258H91.9951L88.9122 18.6348ZM88.9857 14.1008H95.0837V15.7834H88.9857V14.1008ZM103.127 9.96204V11.543H98V9.96204H103.127ZM99.2817 18.6348V9.14332C99.2817 8.55987 99.4021 8.07429 99.6431 7.68658C99.8877 7.29886 100.215 7.00902 100.626 6.81705C101.036 6.62507 101.491 6.52908 101.992 6.52908C102.346 6.52908 102.66 6.55732 102.935 6.61378C103.21 6.67024 103.413 6.72106 103.545 6.76623L103.138 8.34719C103.052 8.32084 102.942 8.2945 102.811 8.26815C102.679 8.23803 102.532 8.22298 102.37 8.22298C101.99 8.22298 101.721 8.3152 101.563 8.49964C101.408 8.68033 101.331 8.94006 101.331 9.27884V18.6348H99.2817ZM109.058 9.96204V11.543H104.073V9.96204H109.058ZM105.303 7.8842H107.347V16.0262C107.347 16.301 107.389 16.5118 107.472 16.6586C107.558 16.8016 107.671 16.8995 107.81 16.9522C107.95 17.0049 108.104 17.0312 108.273 17.0312C108.401 17.0312 108.518 17.0218 108.624 17.003C108.733 16.9842 108.815 16.9672 108.872 16.9522L109.216 18.5501C109.107 18.5877 108.951 18.6291 108.748 18.6743C108.548 18.7195 108.304 18.7458 108.014 18.7533C107.502 18.7684 107.041 18.6912 106.63 18.5218C106.22 18.3487 105.894 18.0814 105.654 17.7201C105.416 17.3587 105.3 16.907 105.303 16.365V7.8842ZM114.514 18.8042C113.644 18.8042 112.894 18.6235 112.261 18.2621C111.633 17.897 111.149 17.3813 110.81 16.715C110.471 16.045 110.302 15.2564 110.302 14.3492C110.302 13.4571 110.471 12.6741 110.81 12.0004C111.153 11.3228 111.631 10.7958 112.244 10.4194C112.858 10.0392 113.579 9.84911 114.407 9.84911C114.941 9.84911 115.446 9.93569 115.92 10.1088C116.398 10.2782 116.82 10.5417 117.185 10.8993C117.554 11.2569 117.843 11.7124 118.054 12.2657C118.265 12.8153 118.37 13.4703 118.37 14.2306V14.8574H111.262V13.4797H116.411C116.407 13.0882 116.323 12.74 116.157 12.4351C115.991 12.1265 115.76 11.8837 115.463 11.7067C115.169 11.5298 114.826 11.4414 114.435 11.4414C114.017 11.4414 113.65 11.543 113.334 11.7463C113.018 11.9458 112.771 12.2093 112.594 12.5368C112.421 12.8605 112.333 13.2162 112.329 13.6039V14.8066C112.329 15.311 112.421 15.7439 112.606 16.1052C112.79 16.4628 113.048 16.7376 113.379 16.9296C113.71 17.1178 114.098 17.2119 114.542 17.2119C114.84 17.2119 115.109 17.1705 115.35 17.0877C115.591 17.0011 115.799 16.875 115.976 16.7094C116.153 16.5438 116.287 16.3386 116.377 16.0939L118.286 16.3085C118.165 16.8129 117.936 17.2533 117.597 17.6297C117.262 18.0024 116.833 18.2922 116.31 18.4993C115.786 18.7025 115.188 18.8042 114.514 18.8042ZM120.1 18.6348V9.96204H122.081V11.4075H122.172C122.33 10.9069 122.601 10.521 122.985 10.25C123.373 9.97521 123.815 9.83782 124.312 9.83782C124.425 9.83782 124.551 9.84347 124.69 9.85476C124.833 9.86229 124.952 9.87546 125.046 9.89428V11.7745C124.959 11.7444 124.822 11.718 124.634 11.6955C124.449 11.6691 124.27 11.6559 124.097 11.6559C123.725 11.6559 123.39 11.7369 123.092 11.8987C122.799 12.0568 122.567 12.277 122.398 12.5593C122.228 12.8417 122.144 13.1673 122.144 13.5362V18.6348H120.1ZM130.438 18.6348V7.07113H137.959V8.82713H132.533V11.9665H137.569V13.7225H132.533V16.8788H138.004V18.6348H130.438ZM144.399 9.96204V11.543H139.272V9.96204H144.399ZM140.553 18.6348V9.14332C140.553 8.55987 140.674 8.07429 140.915 7.68658C141.159 7.29886 141.487 7.00902 141.897 6.81705C142.307 6.62507 142.763 6.52908 143.264 6.52908C143.617 6.52908 143.932 6.55732 144.207 6.61378C144.481 6.67024 144.685 6.72106 144.816 6.76623L144.41 8.34719C144.323 8.32084 144.214 8.2945 144.082 8.26815C143.951 8.23803 143.804 8.22298 143.642 8.22298C143.262 8.22298 142.993 8.3152 142.834 8.49964C142.68 8.68033 142.603 8.94006 142.603 9.27884V18.6348H140.553ZM150.392 9.96204V11.543H145.265V9.96204H150.392ZM146.547 18.6348V9.14332C146.547 8.55987 146.667 8.07429 146.908 7.68658C147.153 7.29886 147.48 7.00902 147.891 6.81705C148.301 6.62507 148.757 6.52908 149.257 6.52908C149.611 6.52908 149.925 6.55732 150.2 6.61378C150.475 6.67024 150.678 6.72106 150.81 6.76623L150.403 8.34719C150.317 8.32084 150.208 8.2945 150.076 8.26815C149.944 8.23803 149.797 8.22298 149.635 8.22298C149.255 8.22298 148.986 8.3152 148.828 8.49964C148.674 8.68033 148.597 8.94006 148.597 9.27884V18.6348H146.547ZM155.506 18.8042C154.637 18.8042 153.886 18.6235 153.253 18.2621C152.625 17.897 152.141 17.3813 151.802 16.715C151.463 16.045 151.294 15.2564 151.294 14.3492C151.294 13.4571 151.463 12.6741 151.802 12.0004C152.145 11.3228 152.623 10.7958 153.236 10.4194C153.85 10.0392 154.571 9.84911 155.399 9.84911C155.933 9.84911 156.438 9.93569 156.912 10.1088C157.39 10.2782 157.812 10.5417 158.177 10.8993C158.546 11.2569 158.836 11.7124 159.046 12.2657C159.257 12.8153 159.363 13.4703 159.363 14.2306V14.8574H152.254V13.4797H157.403C157.4 13.0882 157.315 12.74 157.149 12.4351C156.984 12.1265 156.752 11.8837 156.455 11.7067C156.161 11.5298 155.819 11.4414 155.427 11.4414C155.009 11.4414 154.642 11.543 154.326 11.7463C154.01 11.9458 153.763 12.2093 153.586 12.5368C153.413 12.8605 153.325 13.2162 153.321 13.6039V14.8066C153.321 15.311 153.413 15.7439 153.598 16.1052C153.782 16.4628 154.04 16.7376 154.371 16.9296C154.703 17.1178 155.09 17.2119 155.534 17.2119C155.832 17.2119 156.101 17.1705 156.342 17.0877C156.583 17.0011 156.792 16.875 156.969 16.7094C157.146 16.5438 157.279 16.3386 157.369 16.0939L159.278 16.3085C159.157 16.8129 158.928 17.2533 158.589 17.6297C158.254 18.0024 157.825 18.2922 157.302 18.4993C156.779 18.7025 156.18 18.8042 155.506 18.8042ZM164.875 18.8042C164.009 18.8042 163.266 18.6141 162.645 18.2339C162.027 17.8537 161.551 17.3286 161.216 16.6586C160.885 15.9848 160.719 15.2093 160.719 14.3323C160.719 13.4515 160.889 12.6741 161.227 12.0004C161.566 11.3228 162.044 10.7958 162.661 10.4194C163.283 10.0392 164.017 9.84911 164.864 9.84911C165.567 9.84911 166.19 9.97898 166.732 10.2387C167.278 10.4947 167.713 10.8579 168.037 11.3284C168.36 11.7952 168.545 12.341 168.59 12.9659H166.636C166.557 12.548 166.369 12.1999 166.072 11.9213C165.778 11.639 165.385 11.4978 164.892 11.4978C164.474 11.4978 164.107 11.6108 163.791 11.8366C163.475 12.0587 163.228 12.3787 163.051 12.7965C162.878 13.2143 162.791 13.715 162.791 14.2984C162.791 14.8894 162.878 15.3975 163.051 15.8229C163.224 16.2445 163.467 16.5701 163.779 16.7997C164.096 17.0256 164.466 17.1385 164.892 17.1385C165.193 17.1385 165.462 17.082 165.699 16.9691C165.94 16.8524 166.141 16.6849 166.303 16.4666C166.465 16.2483 166.576 15.9829 166.636 15.6705H168.59C168.541 16.284 168.36 16.8279 168.048 17.3022C167.736 17.7728 167.31 18.1417 166.772 18.4089C166.234 18.6724 165.601 18.8042 164.875 18.8042ZM174.599 9.96204V11.543H169.614V9.96204H174.599ZM170.844 7.8842H172.888V16.0262C172.888 16.301 172.93 16.5118 173.013 16.6586C173.099 16.8016 173.212 16.8995 173.351 16.9522C173.491 17.0049 173.645 17.0312 173.814 17.0312C173.942 17.0312 174.059 17.0218 174.164 17.003C174.274 16.9842 174.356 16.9672 174.413 16.9522L174.757 18.5501C174.648 18.5877 174.492 18.6291 174.289 18.6743C174.089 18.7195 173.844 18.7458 173.555 18.7533C173.043 18.7684 172.582 18.6912 172.171 18.5218C171.761 18.3487 171.435 18.0814 171.194 17.7201C170.957 17.3587 170.841 16.907 170.844 16.365V7.8842ZM183.039 12.2544L181.176 12.4577C181.123 12.2695 181.031 12.0926 180.899 11.927C180.771 11.7613 180.598 11.6277 180.38 11.5261C180.161 11.4244 179.894 11.3736 179.578 11.3736C179.152 11.3736 178.795 11.4658 178.505 11.6503C178.219 11.8347 178.078 12.0738 178.082 12.3674C178.078 12.6196 178.17 12.8247 178.358 12.9828C178.55 13.1409 178.866 13.2708 179.307 13.3724L180.786 13.6886C181.607 13.8655 182.217 14.146 182.616 14.5299C183.018 14.9138 183.222 15.4164 183.225 16.0375C183.222 16.5833 183.062 17.0651 182.745 17.4829C182.433 17.897 181.998 18.2207 181.441 18.4541C180.884 18.6875 180.244 18.8042 179.521 18.8042C178.46 18.8042 177.605 18.5821 176.958 18.1379C176.31 17.69 175.925 17.067 175.8 16.269L177.794 16.077C177.884 16.4685 178.076 16.764 178.37 16.9635C178.663 17.163 179.045 17.2627 179.516 17.2627C180.001 17.2627 180.391 17.163 180.684 16.9635C180.982 16.764 181.131 16.5174 181.131 16.2238C181.131 15.9754 181.035 15.7702 180.843 15.6083C180.654 15.4465 180.361 15.3223 179.962 15.2357L178.482 14.9251C177.651 14.752 177.035 14.4603 176.636 14.05C176.237 13.6359 176.039 13.1127 176.043 12.4803C176.039 11.9458 176.184 11.4828 176.478 11.0913C176.775 10.6961 177.188 10.3912 177.715 10.1766C178.245 9.95827 178.857 9.84911 179.55 9.84911C180.566 9.84911 181.366 10.0656 181.949 10.4984C182.536 10.9313 182.9 11.5167 183.039 12.2544Z" fill="#1E1F24"/>
<defs>
<clipPath id="clip0_1_1010">
<rect width="310" height="24" fill="white" transform="translate(0.5 0.634766)"/>
</clipPath>
<clipPath id="clip1_1_1010">
<rect width="24" height="24" fill="white" transform="translate(0.5 0.634766)"/>
</clipPath>
</defs>
</svg>
