<svg width="311" height="25" viewBox="0 0 311 25" fill="none" xmlns="http://www.w3.org/2000/svg">
<g clip-path="url(#clip0_1_1123)">
<g clip-path="url(#clip1_1_1123)">
<mask id="mask0_1_1123" style="mask-type:luminance" maskUnits="userSpaceOnUse" x="0" y="0" width="25" height="25">
<path d="M24.5 0.734375H0.5V24.7344H24.5V0.734375Z" fill="white"/>
</mask>
<g mask="url(#mask0_1_1123)">
<path d="M5.26647 1.53418H19.7331C21.9265 1.53418 23.6998 3.35298 23.6998 5.60255V19.8658C23.6998 22.1154 21.9265 23.9342 19.7331 23.9342H5.26647C3.07314 23.9342 1.2998 22.1154 1.2998 19.8658V5.60255C1.2998 3.35298 3.07314 1.53418 5.26647 1.53418Z" fill="#330000"/>
<path d="M12.154 14.9736H8.68196L7.97263 17.2231C7.95396 17.3093 7.87929 17.3667 7.79529 17.3572H6.04063C5.93796 17.3572 5.90996 17.2997 5.93796 17.1849L8.94329 8.311C8.97129 8.21527 8.99929 8.10997 9.03663 7.9951C9.07396 7.79408 9.09263 7.58348 9.09263 7.37288C9.08329 7.32502 9.12063 7.27715 9.16729 7.26758C9.17663 7.26758 9.18596 7.26758 9.19529 7.26758H11.5846C11.6593 7.26758 11.6966 7.2963 11.706 7.34416L15.1126 17.204C15.1406 17.3093 15.1126 17.3572 15.0193 17.3572H13.0686C13.0033 17.3667 12.938 17.3189 12.9193 17.2519L12.154 14.9736ZM9.22329 13.0303H11.594C11.538 12.8293 11.4633 12.59 11.3793 12.3411C11.2953 12.0826 11.2113 11.805 11.1273 11.5178C11.034 11.2211 10.95 10.9339 10.8566 10.6371C10.7633 10.3404 10.6793 10.0628 10.6046 9.78519C10.53 9.51715 10.4646 9.26826 10.3993 9.03852H10.3806C10.2966 9.45015 10.194 9.86177 10.0633 10.2734C9.92329 10.7329 9.78329 11.2115 9.63396 11.6902C9.50329 12.1784 9.36329 12.6283 9.22329 13.0303Z" fill="#FF9A00"/>
<path d="M17.1476 8.90468C16.8396 8.91426 16.5409 8.78981 16.3169 8.56964C16.1022 8.33032 15.9902 8.01443 15.9996 7.68896C15.9902 7.36349 16.1116 7.05716 16.3356 6.83699C16.5596 6.61682 16.8582 6.50195 17.1662 6.50195C17.5302 6.50195 17.8102 6.61682 18.0156 6.83699C18.2209 7.06673 18.3329 7.37306 18.3236 7.68896C18.3329 8.01443 18.2209 8.33032 17.9969 8.56964C17.7822 8.79938 17.4649 8.92383 17.1476 8.90468ZM16.1022 17.2138V9.8428C16.1022 9.74708 16.1396 9.70879 16.2236 9.70879H18.0716C18.1556 9.70879 18.1929 9.75665 18.1929 9.8428V17.2138C18.1929 17.3191 18.1556 17.3669 18.0716 17.3669H16.2422C16.1489 17.3669 16.1022 17.3095 16.1022 17.2138Z" fill="#FF9A00"/>
</g>
</g>
</g>
<path d="M43.5385 11.0723H41.4268C41.3666 10.726 41.2555 10.4192 41.0937 10.152C40.9318 9.88097 40.7304 9.65135 40.4895 9.46314C40.2486 9.27493 39.9738 9.13377 39.6652 9.03967C39.3603 8.9418 39.0309 8.89286 38.6771 8.89286C38.0484 8.89286 37.4913 9.05096 37.0058 9.36715C36.5202 9.67958 36.14 10.1388 35.8652 10.7449C35.5904 11.3471 35.453 12.083 35.453 12.9526C35.453 13.8371 35.5904 14.5825 35.8652 15.1885C36.1437 15.7908 36.5239 16.2462 37.0058 16.5549C37.4913 16.8598 38.0466 17.0123 38.6714 17.0123C39.0177 17.0123 39.3414 16.9671 39.6426 16.8767C39.9475 16.7826 40.2204 16.6452 40.4613 16.4646C40.706 16.2839 40.9111 16.0618 41.0767 15.7983C41.2461 15.5348 41.3628 15.2337 41.4268 14.8949L43.5385 14.9062C43.4595 15.4558 43.2882 15.9714 43.0247 16.4533C42.765 16.9351 42.4243 17.3604 42.0027 17.7293C41.5811 18.0945 41.088 18.3805 40.5234 18.5876C39.9588 18.7908 39.332 18.8925 38.6432 18.8925C37.6268 18.8925 36.7197 18.6572 35.9217 18.1867C35.1237 17.7162 34.495 17.0367 34.0358 16.1484C33.5766 15.26 33.3469 14.1947 33.3469 12.9526C33.3469 11.7066 33.5784 10.6413 34.0414 9.75675C34.5044 8.8684 35.1349 8.18896 35.933 7.71843C36.731 7.2479 37.6344 7.01264 38.6432 7.01264C39.2869 7.01264 39.8854 7.10298 40.4387 7.28366C40.992 7.46435 41.4852 7.72972 41.918 8.07979C42.3509 8.4261 42.7066 8.85146 42.9852 9.35586C43.2675 9.8565 43.452 10.4287 43.5385 11.0723ZM46.7146 21.9866C46.436 21.9866 46.1782 21.9641 45.941 21.9189C45.7077 21.8775 45.5213 21.8286 45.382 21.7721L45.8563 20.1798C46.1537 20.2664 46.4191 20.3078 46.6525 20.304C46.8858 20.3003 47.091 20.2269 47.2679 20.0838C47.4486 19.9446 47.601 19.7112 47.7253 19.3837L47.9003 18.9151L44.7553 10.0616H46.9235L48.9223 16.6114H49.0126L51.0171 10.0616H53.1909L49.7184 19.7846C49.5566 20.2438 49.342 20.6372 49.0747 20.9647C48.8075 21.2959 48.48 21.5481 48.0923 21.7213C47.7083 21.8982 47.2491 21.9866 46.7146 21.9866ZM54.6053 18.7344V10.0616H61.9286V18.7344H59.958V11.7386H56.5589V18.7344H54.6053ZM67.8699 18.9038C67.0003 18.9038 66.2494 18.7231 65.617 18.3617C64.9884 17.9966 64.5047 17.4809 64.1659 16.8146C63.8271 16.1446 63.6577 15.356 63.6577 14.4488C63.6577 13.5567 63.8271 12.7738 64.1659 12.1C64.5084 11.4224 64.9865 10.8954 65.6001 10.519C66.2136 10.1388 66.9345 9.94872 67.7626 9.94872C68.2971 9.94872 68.8015 10.0353 69.2758 10.2085C69.7539 10.3778 70.1755 10.6413 70.5406 10.9989C70.9095 11.3565 71.1993 11.812 71.4101 12.3653C71.6209 12.9149 71.7263 13.5699 71.7263 14.3303V14.957H64.6176V13.5793H69.767C69.7633 13.1878 69.6786 12.8396 69.513 12.5347C69.3473 12.2261 69.1158 11.9833 68.8185 11.8064C68.5248 11.6294 68.1823 11.541 67.7908 11.541C67.373 11.541 67.006 11.6426 66.6898 11.8459C66.3736 12.0454 66.1271 12.3089 65.9501 12.6364C65.777 12.9601 65.6885 13.3158 65.6848 13.7035V14.9062C65.6848 15.4106 65.777 15.8435 65.9614 16.2048C66.1459 16.5624 66.4037 16.8372 66.735 17.0292C67.0662 17.2174 67.4539 17.3115 67.8981 17.3115C68.1955 17.3115 68.4646 17.2701 68.7055 17.1873C68.9464 17.1007 69.1554 16.9746 69.3323 16.809C69.5092 16.6434 69.6428 16.4382 69.7332 16.1935L71.6416 16.4081C71.5212 16.9125 71.2915 17.3529 70.9528 17.7293C70.6177 18.102 70.1886 18.3918 69.6654 18.5989C69.1422 18.8021 68.5437 18.9038 67.8699 18.9038ZM73.4555 21.9866V10.0616H75.4656V11.4958H75.5841C75.6895 11.285 75.8382 11.061 76.0302 10.8239C76.2222 10.583 76.4819 10.3778 76.8094 10.2085C77.1369 10.0353 77.5547 9.94872 78.0629 9.94872C78.7329 9.94872 79.3371 10.12 79.8753 10.4625C80.4174 10.8013 80.8465 11.3038 81.1627 11.9701C81.4827 12.6326 81.6426 13.4457 81.6426 14.4093C81.6426 15.3616 81.4864 16.171 81.174 16.8372C80.8616 17.5035 80.4362 18.0116 79.8979 18.3617C79.3596 18.7118 78.7498 18.8868 78.0685 18.8868C77.5716 18.8868 77.1595 18.804 76.832 18.6384C76.5045 18.4728 76.241 18.2733 76.0415 18.0399C75.8458 17.8027 75.6933 17.5788 75.5841 17.368H75.4994V21.9866H73.4555ZM75.4599 14.398C75.4599 14.9589 75.539 15.4501 75.6971 15.8717C75.8589 16.2933 76.0904 16.6227 76.3916 16.8598C76.6965 17.0932 77.0654 17.2099 77.4982 17.2099C77.9499 17.2099 78.3282 17.0894 78.6331 16.8485C78.9381 16.6038 79.1677 16.2707 79.322 15.8491C79.4801 15.4238 79.5591 14.9401 79.5591 14.398C79.5591 13.8597 79.482 13.3817 79.3276 12.9638C79.1733 12.546 78.9437 12.2185 78.6388 11.9814C78.3339 11.7442 77.9537 11.6257 77.4982 11.6257C77.0616 11.6257 76.6908 11.7405 76.3859 11.9701C76.081 12.1997 75.8495 12.5216 75.6914 12.9356C75.5371 13.3497 75.4599 13.8371 75.4599 14.398ZM89.5221 7.17074V18.7344H87.4273V7.17074H89.5221ZM93.7441 7.17074V18.7344H91.7001V7.17074H93.7441ZM97.8899 7.17074V18.7344H95.8459V7.17074H97.8899ZM105.519 15.0869V10.0616H107.563V18.7344H105.582V17.1929H105.491C105.295 17.6785 104.974 18.0756 104.526 18.3843C104.082 18.693 103.534 18.8473 102.883 18.8473C102.314 18.8473 101.812 18.7212 101.375 18.469C100.942 18.213 100.603 17.8423 100.359 17.3567C100.114 16.8673 99.9917 16.2763 99.9917 15.5837V10.0616H102.036V15.2675C102.036 15.8171 102.186 16.2538 102.487 16.5775C102.789 16.9012 103.184 17.0631 103.673 17.0631C103.974 17.0631 104.266 16.9897 104.548 16.8429C104.831 16.6961 105.062 16.4777 105.243 16.1879C105.427 15.8943 105.519 15.5273 105.519 15.0869ZM116.52 12.354L114.657 12.5573C114.604 12.3691 114.512 12.1922 114.38 12.0266C114.252 11.8609 114.079 11.7273 113.86 11.6257C113.642 11.524 113.375 11.4732 113.059 11.4732C112.633 11.4732 112.276 11.5654 111.986 11.7499C111.7 11.9343 111.559 12.1734 111.562 12.467C111.559 12.7192 111.651 12.9243 111.839 13.0824C112.031 13.2405 112.347 13.3704 112.788 13.472L114.267 13.7882C115.088 13.9651 115.697 14.2456 116.096 14.6295C116.499 15.0135 116.702 15.516 116.706 16.1371C116.702 16.6829 116.542 17.1647 116.226 17.5825C115.914 17.9966 115.479 18.3203 114.922 18.5537C114.365 18.7871 113.725 18.9038 113.002 18.9038C111.941 18.9038 111.086 18.6817 110.439 18.2375C109.791 17.7896 109.406 17.1666 109.281 16.3686L111.274 16.1766C111.365 16.5681 111.557 16.8636 111.85 17.0631C112.144 17.2626 112.526 17.3623 112.997 17.3623C113.482 17.3623 113.872 17.2626 114.165 17.0631C114.463 16.8636 114.611 16.617 114.611 16.3234C114.611 16.075 114.515 15.8698 114.323 15.708C114.135 15.5461 113.842 15.4219 113.443 15.3353L111.963 15.0248C111.131 14.8516 110.516 14.5599 110.117 14.1496C109.718 13.7355 109.52 13.2123 109.524 12.5799C109.52 12.0454 109.665 11.5824 109.959 11.1909C110.256 10.7957 110.668 10.4908 111.195 10.2762C111.726 10.0579 112.338 9.94872 113.03 9.94872C114.047 9.94872 114.847 10.1652 115.43 10.598C116.017 11.0309 116.381 11.6163 116.52 12.354ZM122.722 10.0616V11.6426H117.737V10.0616H122.722ZM118.968 7.98381H121.012V16.1258C121.012 16.4006 121.053 16.6114 121.136 16.7582C121.222 16.9012 121.335 16.9991 121.475 17.0518C121.614 17.1045 121.768 17.1308 121.938 17.1308C122.065 17.1308 122.182 17.1214 122.288 17.1026C122.397 17.0838 122.48 17.0668 122.536 17.0518L122.88 18.6497C122.771 18.6873 122.615 18.7287 122.412 18.7739C122.212 18.8191 121.968 18.8454 121.678 18.8529C121.166 18.868 120.705 18.7908 120.294 18.6214C119.884 18.4483 119.559 18.181 119.318 17.8197C119.08 17.4583 118.964 17.0066 118.968 16.4646V7.98381ZM124.432 18.7344V10.0616H126.414V11.5071H126.504C126.662 11.0065 126.933 10.6206 127.317 10.3496C127.705 10.0748 128.147 9.93743 128.644 9.93743C128.757 9.93743 128.883 9.94308 129.022 9.95437C129.165 9.9619 129.284 9.97507 129.378 9.99389V11.8741C129.291 11.844 129.154 11.8176 128.966 11.7951C128.781 11.7687 128.602 11.7555 128.429 11.7555C128.057 11.7555 127.722 11.8365 127.424 11.9983C127.131 12.1564 126.899 12.3766 126.73 12.6589C126.56 12.9413 126.476 13.2669 126.476 13.6358V18.7344H124.432ZM133.076 18.9094C132.527 18.9094 132.032 18.8115 131.591 18.6158C131.155 18.4163 130.808 18.1227 130.552 17.735C130.3 17.3473 130.174 16.8692 130.174 16.3008C130.174 15.8115 130.264 15.4068 130.445 15.0869C130.626 14.7669 130.872 14.5109 131.185 14.319C131.497 14.127 131.849 13.9821 132.241 13.8842C132.636 13.7826 133.044 13.7092 133.466 13.664C133.974 13.6113 134.386 13.5642 134.702 13.5228C135.019 13.4777 135.248 13.4099 135.391 13.3196C135.538 13.2255 135.611 13.0805 135.611 12.8848V12.8509C135.611 12.4256 135.485 12.0962 135.233 11.8628C134.981 11.6294 134.618 11.5127 134.143 11.5127C133.643 11.5127 133.246 11.6219 132.952 11.8402C132.662 12.0586 132.466 12.3164 132.365 12.6138L130.456 12.3428C130.607 11.8158 130.855 11.3754 131.202 11.0215C131.548 10.6639 131.971 10.3967 132.472 10.2197C132.973 10.0391 133.526 9.94872 134.132 9.94872C134.55 9.94872 134.966 9.99766 135.38 10.0955C135.794 10.1934 136.172 10.3553 136.515 10.5811C136.857 10.8032 137.132 11.1062 137.339 11.4902C137.55 11.8741 137.655 12.354 137.655 12.93V18.7344H135.69V17.543H135.623C135.499 17.7839 135.323 18.0098 135.098 18.2206C134.876 18.4276 134.595 18.5951 134.256 18.7231C133.921 18.8473 133.528 18.9094 133.076 18.9094ZM133.607 17.4075C134.017 17.4075 134.373 17.3266 134.674 17.1647C134.975 16.9991 135.207 16.7808 135.369 16.5097C135.534 16.2387 135.617 15.9432 135.617 15.6233V14.6013C135.553 14.654 135.444 14.7029 135.29 14.7481C135.139 14.7933 134.97 14.8328 134.781 14.8667C134.593 14.9005 134.407 14.9306 134.222 14.957C134.038 14.9833 133.878 15.0059 133.743 15.0248C133.438 15.0662 133.165 15.1339 132.924 15.228C132.683 15.3221 132.493 15.4539 132.354 15.6233C132.214 15.7889 132.145 16.0034 132.145 16.2669C132.145 16.6434 132.282 16.9276 132.557 17.1195C132.832 17.3115 133.182 17.4075 133.607 17.4075ZM144.041 10.0616V11.6426H139.056V10.0616H144.041ZM140.287 7.98381H142.331V16.1258C142.331 16.4006 142.372 16.6114 142.455 16.7582C142.541 16.9012 142.654 16.9991 142.794 17.0518C142.933 17.1045 143.087 17.1308 143.257 17.1308C143.385 17.1308 143.501 17.1214 143.607 17.1026C143.716 17.0838 143.799 17.0668 143.855 17.0518L144.199 18.6497C144.09 18.6873 143.934 18.7287 143.731 18.7739C143.531 18.8191 143.287 18.8454 142.997 18.8529C142.485 18.868 142.024 18.7908 141.613 18.6214C141.203 18.4483 140.878 18.181 140.637 17.8197C140.4 17.4583 140.283 17.0066 140.287 16.4646V7.98381ZM149.441 18.9038C148.594 18.9038 147.86 18.7174 147.239 18.3448C146.618 17.9721 146.136 17.4508 145.793 16.7808C145.454 16.1107 145.285 15.3278 145.285 14.4319C145.285 13.536 145.454 12.7512 145.793 12.0774C146.136 11.4036 146.618 10.8804 147.239 10.5077C147.86 10.1351 148.594 9.94872 149.441 9.94872C150.288 9.94872 151.022 10.1351 151.643 10.5077C152.264 10.8804 152.744 11.4036 153.083 12.0774C153.425 12.7512 153.596 13.536 153.596 14.4319C153.596 15.3278 153.425 16.1107 153.083 16.7808C152.744 17.4508 152.264 17.9721 151.643 18.3448C151.022 18.7174 150.288 18.9038 149.441 18.9038ZM149.452 17.2663C149.911 17.2663 150.295 17.1402 150.604 16.888C150.912 16.6321 151.142 16.2895 151.293 15.8604C151.447 15.4313 151.524 14.9532 151.524 14.4262C151.524 13.8955 151.447 13.4156 151.293 12.9864C151.142 12.5536 150.912 12.2091 150.604 11.9532C150.295 11.6972 149.911 11.5692 149.452 11.5692C148.981 11.5692 148.59 11.6972 148.278 11.9532C147.969 12.2091 147.737 12.5536 147.583 12.9864C147.432 13.4156 147.357 13.8955 147.357 14.4262C147.357 14.9532 147.432 15.4313 147.583 15.8604C147.737 16.2895 147.969 16.6321 148.278 16.888C148.59 17.1402 148.981 17.2663 149.452 17.2663ZM155.331 18.7344V10.0616H157.313V11.5071H157.403C157.561 11.0065 157.832 10.6206 158.216 10.3496C158.604 10.0748 159.046 9.93743 159.543 9.93743C159.656 9.93743 159.782 9.94308 159.922 9.95437C160.065 9.9619 160.183 9.97507 160.277 9.99389V11.8741C160.191 11.844 160.053 11.8176 159.865 11.7951C159.681 11.7687 159.502 11.7555 159.329 11.7555C158.956 11.7555 158.621 11.8365 158.324 11.9983C158.03 12.1564 157.799 12.3766 157.629 12.6589C157.46 12.9413 157.375 13.2669 157.375 13.6358V18.7344H155.331Z" fill="#1E1F24"/>
<defs>
<clipPath id="clip0_1_1123">
<rect width="310" height="24" fill="white" transform="translate(0.5 0.734375)"/>
</clipPath>
<clipPath id="clip1_1_1123">
<rect width="24" height="24" fill="white" transform="translate(0.5 0.734375)"/>
</clipPath>
</defs>
</svg>
