<svg width="311" height="25" viewBox="0 0 311 25" fill="none" xmlns="http://www.w3.org/2000/svg">
<g clip-path="url(#clip0_1_838)">
<g clip-path="url(#clip1_1_838)">
<path d="M9.93578 13.7379C10.0232 12.1778 10.7872 10.8033 11.9397 9.82903C13.07 8.87202 14.5913 8.28711 16.2512 8.28711C17.9094 8.28711 19.4307 8.87202 20.5618 9.82903C21.7135 10.8033 22.4775 12.1778 22.5657 13.7362C22.6532 15.3392 22.0089 16.8283 20.8786 17.9322C19.7261 19.055 18.0868 19.7596 16.2512 19.7596C14.4155 19.7596 12.773 19.055 11.6213 17.9322C10.4902 16.8283 9.84751 15.3392 9.93578 13.7379Z" fill="white"/>
<path d="M13.011 13.877C13.0558 13.0765 13.4478 12.3712 14.0392 11.8713C14.6191 11.3803 15.3997 11.0801 16.2514 11.0801C17.1023 11.0801 17.8829 11.3803 18.4633 11.8713C19.0542 12.3712 19.4462 13.0765 19.4915 13.8761C19.5363 14.6986 19.2057 15.4627 18.6258 16.0291C18.0344 16.6052 17.1933 16.9667 16.2514 16.9667C15.3096 16.9667 14.4667 16.6052 13.8758 16.0291C13.2954 15.4627 12.9657 14.6986 13.011 13.877Z" fill="#265787"/>
<path d="M7.85101 15.4953C7.85651 15.8085 7.95641 16.4173 8.10627 16.8927C8.42121 17.8989 8.95543 18.8297 9.69877 19.6501C10.4616 20.4933 11.4009 21.1706 12.4859 21.6515C13.6263 22.1565 14.8619 22.4139 16.1454 22.4118C17.4268 22.4101 18.6624 22.1477 19.8029 21.6388C20.8878 21.1533 21.8263 20.473 22.5878 19.6294C23.3307 18.8056 23.8641 17.873 24.1799 16.8668C24.3387 16.3584 24.439 15.8424 24.4792 15.3247C24.5186 14.8146 24.5021 14.3037 24.4297 13.7931C24.2883 12.7984 23.9441 11.8649 23.4141 11.0141C22.9294 10.2322 22.3046 9.54775 21.5617 8.97162L21.5634 8.97034L14.0661 3.2137C14.0593 3.20862 14.0538 3.20313 14.0466 3.19847C13.5547 2.82087 12.7276 2.82215 12.1866 3.20059C11.6397 3.58326 11.577 4.21611 12.0638 4.61529L12.0617 4.61741L15.1887 7.16025L5.65782 7.17042H5.64512C4.85734 7.17126 4.10003 7.68812 3.95017 8.3413C3.79609 9.00675 4.33115 9.55875 5.15027 9.56171L5.149 9.56468L9.97985 9.55537L1.35949 16.1722C1.34848 16.1802 1.33663 16.1887 1.32647 16.1967C0.513285 16.8194 0.250414 17.8548 0.762623 18.5101C1.28245 19.1764 2.38772 19.1777 3.20938 18.5139L7.91408 14.6635C7.91408 14.6635 7.84551 15.1833 7.85101 15.4953ZM19.9404 17.2359C18.971 18.2235 17.6139 18.7836 16.1454 18.7866C14.6748 18.7891 13.3177 18.2341 12.3483 17.2482C11.8746 16.7678 11.5266 16.2149 11.312 15.6261C11.1016 15.0474 11.0199 14.4332 11.0741 13.8135C11.1253 13.2077 11.3057 12.6299 11.5935 12.1071C11.8763 11.5932 12.2657 11.1288 12.7466 10.736C13.6889 9.9681 14.8886 9.55239 16.1433 9.5507C17.3993 9.54901 18.5981 9.9609 19.5412 10.7262C20.0213 11.1174 20.4103 11.5801 20.6931 12.0931C20.9822 12.6155 21.1613 13.1912 21.2146 13.7986C21.2679 14.4175 21.1862 15.0309 20.9759 15.61C20.7608 16.2005 20.4141 16.7534 19.9404 17.2359Z" fill="#EA7600"/>
</g>
</g>
<path d="M43.5385 10.8536H41.4268C41.3666 10.5073 41.2555 10.2005 41.0937 9.93324C40.9318 9.66222 40.7304 9.4326 40.4895 9.24439C40.2486 9.05618 39.9738 8.91502 39.6652 8.82092C39.3603 8.72305 39.0309 8.67411 38.6771 8.67411C38.0484 8.67411 37.4913 8.83221 37.0058 9.1484C36.5202 9.46083 36.14 9.92006 35.8652 10.5261C35.5904 11.1284 35.453 11.8643 35.453 12.7338C35.453 13.6184 35.5904 14.3637 35.8652 14.9697C36.1437 15.572 36.5239 16.0275 37.0058 16.3362C37.4913 16.6411 38.0466 16.7935 38.6714 16.7935C39.0177 16.7935 39.3414 16.7483 39.6426 16.658C39.9475 16.5639 40.2204 16.4265 40.4613 16.2458C40.706 16.0651 40.9111 15.843 41.0767 15.5795C41.2461 15.3161 41.3628 15.0149 41.4268 14.6761L43.5385 14.6874C43.4595 15.237 43.2882 15.7527 43.0247 16.2345C42.765 16.7163 42.4243 17.1417 42.0027 17.5106C41.5811 17.8757 41.088 18.1618 40.5234 18.3688C39.9588 18.5721 39.332 18.6737 38.6432 18.6737C37.6268 18.6737 36.7197 18.4385 35.9217 17.9679C35.1237 17.4974 34.495 16.818 34.0358 15.9296C33.5766 15.0413 33.3469 13.976 33.3469 12.7338C33.3469 11.4879 33.5784 10.4226 34.0414 9.538C34.5044 8.64965 35.1349 7.97021 35.933 7.49968C36.731 7.02915 37.6344 6.79389 38.6432 6.79389C39.2869 6.79389 39.8854 6.88423 40.4387 7.06491C40.992 7.2456 41.4852 7.51097 41.918 7.86104C42.3509 8.20735 42.7066 8.63271 42.9852 9.13711C43.2675 9.63775 43.452 10.2099 43.5385 10.8536ZM46.7146 21.7679C46.436 21.7679 46.1782 21.7453 45.941 21.7001C45.7077 21.6587 45.5213 21.6098 45.382 21.5533L45.8563 19.9611C46.1537 20.0477 46.4191 20.0891 46.6525 20.0853C46.8858 20.0815 47.091 20.0081 47.2679 19.8651C47.4486 19.7258 47.601 19.4924 47.7253 19.165L47.9003 18.6963L44.7553 9.8429H46.9235L48.9223 16.3926H49.0126L51.0171 9.8429H53.1909L49.7184 19.5658C49.5566 20.0251 49.342 20.4184 49.0747 20.7459C48.8075 21.0772 48.48 21.3294 48.0923 21.5025C47.7083 21.6794 47.2491 21.7679 46.7146 21.7679ZM54.6053 18.5156V9.8429H61.9286V18.5156H59.958V11.5199H56.5589V18.5156H54.6053ZM67.8699 18.685C67.0003 18.685 66.2494 18.5043 65.617 18.143C64.9884 17.7778 64.5047 17.2621 64.1659 16.5959C63.8271 15.9259 63.6577 15.1373 63.6577 14.2301C63.6577 13.338 63.8271 12.555 64.1659 11.8812C64.5084 11.2037 64.9865 10.6767 65.6001 10.3002C66.2136 9.92006 66.9345 9.72997 67.7626 9.72997C68.2971 9.72997 68.8015 9.81655 69.2758 9.9897C69.7539 10.1591 70.1755 10.4226 70.5406 10.7802C70.9095 11.1378 71.1993 11.5933 71.4101 12.1466C71.6209 12.6962 71.7263 13.3511 71.7263 14.1115V14.7382H64.6176V13.3605H69.767C69.7633 12.9691 69.6786 12.6209 69.513 12.316C69.3473 12.0073 69.1158 11.7645 68.8185 11.5876C68.5248 11.4107 68.1823 11.3222 67.7908 11.3222C67.373 11.3222 67.006 11.4239 66.6898 11.6271C66.3736 11.8266 66.1271 12.0901 65.9501 12.4176C65.777 12.7413 65.6885 13.0971 65.6848 13.4848V14.6874C65.6848 15.1918 65.777 15.6247 65.9614 15.9861C66.1459 16.3437 66.4037 16.6185 66.735 16.8104C67.0662 16.9987 67.4539 17.0928 67.8981 17.0928C68.1955 17.0928 68.4646 17.0513 68.7055 16.9685C68.9464 16.882 69.1554 16.7559 69.3323 16.5902C69.5092 16.4246 69.6428 16.2195 69.7332 15.9748L71.6416 16.1893C71.5212 16.6937 71.2915 17.1342 70.9528 17.5106C70.6177 17.8832 70.1886 18.1731 69.6654 18.3801C69.1422 18.5834 68.5437 18.685 67.8699 18.685ZM73.4555 21.7679V9.8429H75.4656V11.2771H75.5841C75.6895 11.0663 75.8382 10.8423 76.0302 10.6051C76.2222 10.3642 76.4819 10.1591 76.8094 9.9897C77.1369 9.81655 77.5547 9.72997 78.0629 9.72997C78.7329 9.72997 79.3371 9.90124 79.8753 10.2438C80.4174 10.5826 80.8465 11.0851 81.1627 11.7513C81.4827 12.4138 81.6426 13.2269 81.6426 14.1906C81.6426 15.1429 81.4864 15.9522 81.174 16.6185C80.8616 17.2847 80.4362 17.7929 79.8979 18.143C79.3596 18.493 78.7498 18.6681 78.0685 18.6681C77.5716 18.6681 77.1595 18.5853 76.832 18.4196C76.5045 18.254 76.241 18.0545 76.0415 17.8211C75.8458 17.584 75.6933 17.36 75.5841 17.1492H75.4994V21.7679H73.4555ZM75.4599 14.1793C75.4599 14.7401 75.539 15.2314 75.6971 15.6529C75.8589 16.0745 76.0904 16.4039 76.3916 16.6411C76.6965 16.8744 77.0654 16.9911 77.4982 16.9911C77.9499 16.9911 78.3282 16.8707 78.6331 16.6298C78.9381 16.3851 79.1677 16.052 79.322 15.6304C79.4801 15.205 79.5591 14.7213 79.5591 14.1793C79.5591 13.641 79.482 13.1629 79.3276 12.7451C79.1733 12.3273 78.9437 11.9998 78.6388 11.7626C78.3339 11.5255 77.9537 11.4069 77.4982 11.4069C77.0616 11.4069 76.6908 11.5217 76.3859 11.7513C76.081 11.981 75.8495 12.3028 75.6914 12.7169C75.5371 13.1309 75.4599 13.6184 75.4599 14.1793ZM87.4273 18.5156V6.95199H91.854C92.6896 6.95199 93.3841 7.08374 93.9375 7.34723C94.4946 7.60696 94.9105 7.96268 95.1853 8.41438C95.4638 8.86609 95.6031 9.37802 95.6031 9.95018C95.6031 10.4207 95.5128 10.8235 95.3321 11.1585C95.1514 11.4897 94.9086 11.7589 94.6037 11.9659C94.2988 12.1729 93.9582 12.3216 93.5817 12.412V12.5249C93.992 12.5475 94.3854 12.6736 94.7618 12.9032C95.142 13.129 95.4526 13.449 95.6935 13.8631C95.9344 14.2771 96.0548 14.7778 96.0548 15.365C96.0548 15.9635 95.9099 16.5018 95.6201 16.9798C95.3302 17.4541 94.8936 17.8287 94.3101 18.1034C93.7267 18.3782 92.9926 18.5156 92.1081 18.5156H87.4273ZM89.5221 16.7653H91.7749C92.5353 16.7653 93.083 16.6203 93.418 16.3305C93.7568 16.0369 93.9262 15.6605 93.9262 15.2012C93.9262 14.8587 93.8415 14.55 93.6721 14.2752C93.5027 13.9967 93.2618 13.7784 92.9494 13.6203C92.6369 13.4584 92.2643 13.3775 91.8314 13.3775H89.5221V16.7653ZM89.5221 11.8699H91.5942C91.9556 11.8699 92.2812 11.804 92.5711 11.6723C92.8609 11.5368 93.0886 11.3467 93.2543 11.102C93.4236 10.8536 93.5083 10.56 93.5083 10.2212C93.5083 9.77326 93.3502 9.40437 93.0341 9.11452C92.7216 8.82468 92.2567 8.67976 91.6394 8.67976H89.5221V11.8699ZM99.8308 6.95199V18.5156H97.7868V6.95199H99.8308ZM105.772 18.685C104.903 18.685 104.152 18.5043 103.519 18.143C102.891 17.7778 102.407 17.2621 102.068 16.5959C101.729 15.9259 101.56 15.1373 101.56 14.2301C101.56 13.338 101.729 12.555 102.068 11.8812C102.411 11.2037 102.889 10.6767 103.502 10.3002C104.116 9.92006 104.837 9.72997 105.665 9.72997C106.199 9.72997 106.704 9.81655 107.178 9.9897C107.656 10.1591 108.078 10.4226 108.443 10.7802C108.812 11.1378 109.102 11.5933 109.312 12.1466C109.523 12.6962 109.629 13.3511 109.629 14.1115V14.7382H102.52V13.3605H107.669C107.666 12.9691 107.581 12.6209 107.415 12.316C107.25 12.0073 107.018 11.7645 106.721 11.5876C106.427 11.4107 106.085 11.3222 105.693 11.3222C105.275 11.3222 104.908 11.4239 104.592 11.6271C104.276 11.8266 104.029 12.0901 103.852 12.4176C103.679 12.7413 103.591 13.0971 103.587 13.4848V14.6874C103.587 15.1918 103.679 15.6247 103.864 15.9861C104.048 16.3437 104.306 16.6185 104.637 16.8104C104.968 16.9987 105.356 17.0928 105.8 17.0928C106.098 17.0928 106.367 17.0513 106.608 16.9685C106.849 16.882 107.058 16.7559 107.235 16.5902C107.411 16.4246 107.545 16.2195 107.635 15.9748L109.544 16.1893C109.423 16.6937 109.194 17.1342 108.855 17.5106C108.52 17.8832 108.091 18.1731 107.568 18.3801C107.044 18.5834 106.446 18.685 105.772 18.685ZM113.402 13.4339V18.5156H111.358V9.8429H113.311V11.3166H113.413C113.612 10.831 113.931 10.4452 114.367 10.1591C114.808 9.87301 115.352 9.72997 115.999 9.72997C116.598 9.72997 117.119 9.85795 117.563 10.1139C118.011 10.3699 118.357 10.7407 118.602 11.2262C118.85 11.7118 118.973 12.3009 118.969 12.9935V18.5156H116.925V13.3097C116.925 12.73 116.774 12.2765 116.473 11.949C116.176 11.6215 115.764 11.4577 115.237 11.4577C114.879 11.4577 114.561 11.5368 114.283 11.6949C114.008 11.8492 113.791 12.0732 113.633 12.3668C113.479 12.6604 113.402 13.0161 113.402 13.4339ZM124.265 18.6681C123.584 18.6681 122.974 18.493 122.436 18.143C121.898 17.7929 121.472 17.2847 121.16 16.6185C120.847 15.9522 120.691 15.1429 120.691 14.1906C120.691 13.2269 120.849 12.4138 121.165 11.7513C121.485 11.0851 121.916 10.5826 122.458 10.2438C123 9.90124 123.605 9.72997 124.271 9.72997C124.779 9.72997 125.197 9.81655 125.524 9.9897C125.852 10.1591 126.112 10.3642 126.304 10.6051C126.495 10.8423 126.644 11.0663 126.75 11.2771H126.834V6.95199H128.884V18.5156H126.874V17.1492H126.75C126.644 17.36 126.492 17.584 126.292 17.8211C126.093 18.0545 125.829 18.254 125.502 18.4196C125.174 18.5853 124.762 18.6681 124.265 18.6681ZM124.835 16.9911C125.268 16.9911 125.637 16.8744 125.942 16.6411C126.247 16.4039 126.479 16.0745 126.637 15.6529C126.795 15.2314 126.874 14.7401 126.874 14.1793C126.874 13.6184 126.795 13.1309 126.637 12.7169C126.482 12.3028 126.253 11.981 125.948 11.7513C125.647 11.5217 125.276 11.4069 124.835 11.4069C124.38 11.4069 124 11.5255 123.695 11.7626C123.39 11.9998 123.16 12.3273 123.006 12.7451C122.852 13.1629 122.775 13.641 122.775 14.1793C122.775 14.7213 122.852 15.205 123.006 15.6304C123.164 16.052 123.396 16.3851 123.701 16.6298C124.009 16.8707 124.388 16.9911 124.835 16.9911ZM134.901 18.685C134.032 18.685 133.281 18.5043 132.649 18.143C132.02 17.7778 131.536 17.2621 131.197 16.5959C130.859 15.9259 130.689 15.1373 130.689 14.2301C130.689 13.338 130.859 12.555 131.197 11.8812C131.54 11.2037 132.018 10.6767 132.632 10.3002C133.245 9.92006 133.966 9.72997 134.794 9.72997C135.329 9.72997 135.833 9.81655 136.307 9.9897C136.785 10.1591 137.207 10.4226 137.572 10.7802C137.941 11.1378 138.231 11.5933 138.442 12.1466C138.652 12.6962 138.758 13.3511 138.758 14.1115V14.7382H131.649V13.3605H136.799C136.795 12.9691 136.71 12.6209 136.544 12.316C136.379 12.0073 136.147 11.7645 135.85 11.5876C135.556 11.4107 135.214 11.3222 134.822 11.3222C134.405 11.3222 134.038 11.4239 133.721 11.6271C133.405 11.8266 133.159 12.0901 132.982 12.4176C132.809 12.7413 132.72 13.0971 132.716 13.4848V14.6874C132.716 15.1918 132.809 15.6247 132.993 15.9861C133.177 16.3437 133.435 16.6185 133.767 16.8104C134.098 16.9987 134.485 17.0928 134.93 17.0928C135.227 17.0928 135.496 17.0513 135.737 16.9685C135.978 16.882 136.187 16.7559 136.364 16.5902C136.541 16.4246 136.674 16.2195 136.765 15.9748L138.673 16.1893C138.553 16.6937 138.323 17.1342 137.984 17.5106C137.649 17.8832 137.22 18.1731 136.697 18.3801C136.174 18.5834 135.575 18.685 134.901 18.685ZM140.487 18.5156V9.8429H142.469V11.2884H142.559C142.717 10.7877 142.988 10.4019 143.372 10.1309C143.76 9.85607 144.202 9.71868 144.699 9.71868C144.812 9.71868 144.938 9.72433 145.077 9.73562C145.221 9.74315 145.339 9.75632 145.433 9.77514V11.6554C145.347 11.6252 145.209 11.5989 145.021 11.5763C144.837 11.55 144.658 11.5368 144.485 11.5368C144.112 11.5368 143.777 11.6177 143.48 11.7796C143.186 11.9377 142.954 12.1579 142.785 12.4402C142.616 12.7225 142.531 13.0481 142.531 13.417V18.5156H140.487Z" fill="#1E1F24"/>
<defs>
<clipPath id="clip0_1_838">
<rect width="310" height="24" fill="white" transform="translate(0.5 0.515625)"/>
</clipPath>
<clipPath id="clip1_1_838">
<rect width="24" height="24" fill="white" transform="translate(0.5 0.515625)"/>
</clipPath>
</defs>
</svg>
