<svg width="311" height="25" viewBox="0 0 311 25" fill="none" xmlns="http://www.w3.org/2000/svg">
<g clip-path="url(#clip0_1_1112)">
<g clip-path="url(#clip1_1_1112)">
<mask id="mask0_1_1112" style="mask-type:luminance" maskUnits="userSpaceOnUse" x="0" y="0" width="25" height="25">
<path d="M24.5 0.734375H0.5V24.7344H24.5V0.734375Z" fill="white"/>
</mask>
<g mask="url(#mask0_1_1112)">
<path d="M19.7331 1.53418H5.26647C3.07574 1.53418 1.2998 3.35565 1.2998 5.60255V19.8658C1.2998 22.1127 3.07574 23.9342 5.26647 23.9342H19.7331C21.9239 23.9342 23.6998 22.1127 23.6998 19.8658V5.60255C23.6998 3.35565 21.9239 1.53418 19.7331 1.53418Z" fill="#00005B"/>
<path d="M10.2989 14.9363H6.8277L6.12146 17.1907C6.11185 17.2318 6.08857 17.2681 6.05565 17.2934C6.02273 17.3187 5.98223 17.3315 5.94113 17.3294H4.18302C4.08276 17.3294 4.04769 17.2729 4.07783 17.1599L7.08318 8.31927C7.11321 8.22681 7.14329 8.13642 7.17333 8.01817C7.21268 7.81255 7.23281 7.60355 7.23343 7.394C7.2314 7.37935 7.23272 7.36441 7.23728 7.35037C7.24185 7.33633 7.24954 7.32357 7.25974 7.3131C7.26995 7.30263 7.28238 7.29474 7.29607 7.29006C7.30977 7.28537 7.32433 7.28402 7.33862 7.2861H9.72787C9.79783 7.2861 9.8379 7.31179 9.8481 7.36318L13.2591 17.1753C13.2892 17.2781 13.2591 17.3295 13.169 17.3294H11.2155C11.182 17.3333 11.1482 17.3244 11.1205 17.3046C11.0929 17.2847 11.0732 17.2552 11.0653 17.2216L10.2989 14.9363ZM7.3687 13.0354H9.74291C9.6828 12.83 9.61266 12.5988 9.5325 12.3418C9.4522 12.0851 9.36706 11.8103 9.27707 11.5173C9.18692 11.2245 9.09676 10.9316 9.00659 10.6388C8.91644 10.346 8.83379 10.0634 8.75862 9.79111C8.68352 9.519 8.61591 9.26985 8.55578 9.04364H8.54074C8.45619 9.45989 8.35087 9.87141 8.22519 10.2766C8.08478 10.739 7.94203 11.2116 7.79694 11.6945C7.65162 12.1776 7.50887 12.6245 7.3687 13.0354Z" fill="#9999FF"/>
<path d="M18.7886 14.0594H15.8284C15.8646 14.3598 15.9619 14.649 16.1139 14.9085C16.2819 15.1654 16.5196 15.3663 16.7976 15.4864C17.1743 15.6537 17.5818 15.7356 17.9922 15.7266C18.3178 15.7202 18.6422 15.6837 18.9614 15.6175C19.2469 15.5779 19.5267 15.5031 19.7947 15.3947C19.8447 15.3537 19.8699 15.3793 19.8699 15.4717V16.9359C19.8723 16.9758 19.8646 17.0156 19.8473 17.0515C19.8301 17.0795 19.807 17.1032 19.7797 17.1208C19.4824 17.2559 19.1696 17.3514 18.8487 17.4053C18.4128 17.4892 17.9698 17.5279 17.5264 17.5208C16.8149 17.5208 16.2189 17.4078 15.7382 17.1818C15.2838 16.9765 14.8824 16.6651 14.5661 16.2725C14.2707 15.9025 14.0509 15.4753 13.92 15.0164C13.7903 14.5634 13.7245 14.0937 13.7246 13.6216C13.7232 13.1061 13.8019 12.5937 13.9576 12.1035C14.1075 11.6254 14.3446 11.1809 14.6563 10.7935C14.9637 10.4106 15.3482 10.1005 15.7833 9.88416C16.224 9.66333 16.745 9.58412 17.346 9.58412C17.8445 9.57119 18.3396 9.67117 18.7961 9.87693C19.18 10.0448 19.5179 10.3066 19.7804 10.6393C20.0265 10.9652 20.2148 11.333 20.3363 11.7259C20.4547 12.1046 20.5156 12.4996 20.5167 12.8973C20.5167 13.1234 20.5092 13.3289 20.4941 13.5137C20.4791 13.6987 20.4666 13.8322 20.4566 13.9144C20.4527 13.9484 20.4367 13.9797 20.4118 14.0025C20.3869 14.0252 20.3547 14.0378 20.3213 14.0377C20.2612 14.0377 20.1585 14.0454 20.0133 14.0609C19.868 14.0763 19.6876 14.0865 19.4723 14.0917C19.2568 14.097 19.029 14.0594 18.7886 14.0594ZM15.8284 12.6554H17.7968C18.0373 12.6554 18.2151 12.6528 18.3303 12.6477C18.4074 12.6398 18.4818 12.6145 18.5482 12.5736V12.4811C18.5452 12.3606 18.5249 12.2412 18.4881 12.1266C18.407 11.8637 18.244 11.6353 18.0241 11.4766C17.8042 11.3179 17.5396 11.2377 17.2709 11.2482C17.0181 11.2325 16.7662 11.2926 16.5461 11.4212C16.3259 11.5499 16.147 11.7414 16.0312 11.9725C15.9283 12.1875 15.8598 12.4181 15.8284 12.6554Z" fill="#9999FF"/>
</g>
</g>
</g>
<path d="M43.5385 11.0723H41.4268C41.3666 10.726 41.2555 10.4192 41.0937 10.152C40.9318 9.88097 40.7304 9.65135 40.4895 9.46314C40.2486 9.27493 39.9738 9.13377 39.6652 9.03967C39.3603 8.9418 39.0309 8.89286 38.6771 8.89286C38.0484 8.89286 37.4913 9.05096 37.0058 9.36715C36.5202 9.67958 36.14 10.1388 35.8652 10.7449C35.5904 11.3471 35.453 12.083 35.453 12.9526C35.453 13.8371 35.5904 14.5825 35.8652 15.1885C36.1437 15.7908 36.5239 16.2462 37.0058 16.5549C37.4913 16.8598 38.0466 17.0123 38.6714 17.0123C39.0177 17.0123 39.3414 16.9671 39.6426 16.8767C39.9475 16.7826 40.2204 16.6452 40.4613 16.4646C40.706 16.2839 40.9111 16.0618 41.0767 15.7983C41.2461 15.5348 41.3628 15.2337 41.4268 14.8949L43.5385 14.9062C43.4595 15.4558 43.2882 15.9714 43.0247 16.4533C42.765 16.9351 42.4243 17.3604 42.0027 17.7293C41.5811 18.0945 41.088 18.3805 40.5234 18.5876C39.9588 18.7908 39.332 18.8925 38.6432 18.8925C37.6268 18.8925 36.7197 18.6572 35.9217 18.1867C35.1237 17.7162 34.495 17.0367 34.0358 16.1484C33.5766 15.26 33.3469 14.1947 33.3469 12.9526C33.3469 11.7066 33.5784 10.6413 34.0414 9.75675C34.5044 8.8684 35.1349 8.18896 35.933 7.71843C36.731 7.2479 37.6344 7.01264 38.6432 7.01264C39.2869 7.01264 39.8854 7.10298 40.4387 7.28366C40.992 7.46435 41.4852 7.72972 41.918 8.07979C42.3509 8.4261 42.7066 8.85146 42.9852 9.35586C43.2675 9.8565 43.452 10.4287 43.5385 11.0723ZM46.7146 21.9866C46.436 21.9866 46.1782 21.9641 45.941 21.9189C45.7077 21.8775 45.5213 21.8286 45.382 21.7721L45.8563 20.1798C46.1537 20.2664 46.4191 20.3078 46.6525 20.304C46.8858 20.3003 47.091 20.2269 47.2679 20.0838C47.4486 19.9446 47.601 19.7112 47.7253 19.3837L47.9003 18.9151L44.7553 10.0616H46.9235L48.9223 16.6114H49.0126L51.0171 10.0616H53.1909L49.7184 19.7846C49.5566 20.2438 49.342 20.6372 49.0747 20.9647C48.8075 21.2959 48.48 21.5481 48.0923 21.7213C47.7083 21.8982 47.2491 21.9866 46.7146 21.9866ZM54.6053 18.7344V10.0616H61.9286V18.7344H59.958V11.7386H56.5589V18.7344H54.6053ZM67.8699 18.9038C67.0003 18.9038 66.2494 18.7231 65.617 18.3617C64.9884 17.9966 64.5047 17.4809 64.1659 16.8146C63.8271 16.1446 63.6577 15.356 63.6577 14.4488C63.6577 13.5567 63.8271 12.7738 64.1659 12.1C64.5084 11.4224 64.9865 10.8954 65.6001 10.519C66.2136 10.1388 66.9345 9.94872 67.7626 9.94872C68.2971 9.94872 68.8015 10.0353 69.2758 10.2085C69.7539 10.3778 70.1755 10.6413 70.5406 10.9989C70.9095 11.3565 71.1993 11.812 71.4101 12.3653C71.6209 12.9149 71.7263 13.5699 71.7263 14.3303V14.957H64.6176V13.5793H69.767C69.7633 13.1878 69.6786 12.8396 69.513 12.5347C69.3473 12.2261 69.1158 11.9833 68.8185 11.8064C68.5248 11.6294 68.1823 11.541 67.7908 11.541C67.373 11.541 67.006 11.6426 66.6898 11.8459C66.3736 12.0454 66.1271 12.3089 65.9501 12.6364C65.777 12.9601 65.6885 13.3158 65.6848 13.7035V14.9062C65.6848 15.4106 65.777 15.8435 65.9614 16.2048C66.1459 16.5624 66.4037 16.8372 66.735 17.0292C67.0662 17.2174 67.4539 17.3115 67.8981 17.3115C68.1955 17.3115 68.4646 17.2701 68.7055 17.1873C68.9464 17.1007 69.1554 16.9746 69.3323 16.809C69.5092 16.6434 69.6428 16.4382 69.7332 16.1935L71.6416 16.4081C71.5212 16.9125 71.2915 17.3529 70.9528 17.7293C70.6177 18.102 70.1886 18.3918 69.6654 18.5989C69.1422 18.8021 68.5437 18.9038 67.8699 18.9038ZM73.4555 21.9866V10.0616H75.4656V11.4958H75.5841C75.6895 11.285 75.8382 11.061 76.0302 10.8239C76.2222 10.583 76.4819 10.3778 76.8094 10.2085C77.1369 10.0353 77.5547 9.94872 78.0629 9.94872C78.7329 9.94872 79.3371 10.12 79.8753 10.4625C80.4174 10.8013 80.8465 11.3038 81.1627 11.9701C81.4827 12.6326 81.6426 13.4457 81.6426 14.4093C81.6426 15.3616 81.4864 16.171 81.174 16.8372C80.8616 17.5035 80.4362 18.0116 79.8979 18.3617C79.3596 18.7118 78.7498 18.8868 78.0685 18.8868C77.5716 18.8868 77.1595 18.804 76.832 18.6384C76.5045 18.4728 76.241 18.2733 76.0415 18.0399C75.8458 17.8027 75.6933 17.5788 75.5841 17.368H75.4994V21.9866H73.4555ZM75.4599 14.398C75.4599 14.9589 75.539 15.4501 75.6971 15.8717C75.8589 16.2933 76.0904 16.6227 76.3916 16.8598C76.6965 17.0932 77.0654 17.2099 77.4982 17.2099C77.9499 17.2099 78.3282 17.0894 78.6331 16.8485C78.9381 16.6038 79.1677 16.2707 79.322 15.8491C79.4801 15.4238 79.5591 14.9401 79.5591 14.398C79.5591 13.8597 79.482 13.3817 79.3276 12.9638C79.1733 12.546 78.9437 12.2185 78.6388 11.9814C78.3339 11.7442 77.9537 11.6257 77.4982 11.6257C77.0616 11.6257 76.6908 11.7405 76.3859 11.9701C76.081 12.1997 75.8495 12.5216 75.6914 12.9356C75.5371 13.3497 75.4599 13.8371 75.4599 14.398ZM88.9122 18.7344H86.6763L90.7473 7.17074H93.3333L97.4099 18.7344H95.174L92.0855 9.54219H91.9951L88.9122 18.7344ZM88.9857 14.2004H95.0837V15.883H88.9857V14.2004ZM103.127 10.0616V11.6426H98V10.0616H103.127ZM99.2817 18.7344V9.24293C99.2817 8.65948 99.4021 8.1739 99.6431 7.78619C99.8877 7.39847 100.215 7.10863 100.626 6.91665C101.036 6.72468 101.491 6.62869 101.992 6.62869C102.346 6.62869 102.66 6.65692 102.935 6.71339C103.21 6.76985 103.413 6.82067 103.545 6.86584L103.138 8.4468C103.052 8.42045 102.942 8.3941 102.811 8.36776C102.679 8.33764 102.532 8.32259 102.37 8.32259C101.99 8.32259 101.721 8.41481 101.563 8.59925C101.408 8.77994 101.331 9.03967 101.331 9.37844V18.7344H99.2817ZM109.058 10.0616V11.6426H104.073V10.0616H109.058ZM105.303 7.98381H107.347V16.1258C107.347 16.4006 107.389 16.6114 107.472 16.7582C107.558 16.9012 107.671 16.9991 107.81 17.0518C107.95 17.1045 108.104 17.1308 108.273 17.1308C108.401 17.1308 108.518 17.1214 108.624 17.1026C108.733 17.0838 108.815 17.0668 108.872 17.0518L109.216 18.6497C109.107 18.6873 108.951 18.7287 108.748 18.7739C108.548 18.8191 108.304 18.8454 108.014 18.8529C107.502 18.868 107.041 18.7908 106.63 18.6214C106.22 18.4483 105.894 18.181 105.654 17.8197C105.416 17.4583 105.3 17.0066 105.303 16.4646V7.98381ZM114.514 18.9038C113.644 18.9038 112.894 18.7231 112.261 18.3617C111.633 17.9966 111.149 17.4809 110.81 16.8146C110.471 16.1446 110.302 15.356 110.302 14.4488C110.302 13.5567 110.471 12.7738 110.81 12.1C111.153 11.4224 111.631 10.8954 112.244 10.519C112.858 10.1388 113.579 9.94872 114.407 9.94872C114.941 9.94872 115.446 10.0353 115.92 10.2085C116.398 10.3778 116.82 10.6413 117.185 10.9989C117.554 11.3565 117.843 11.812 118.054 12.3653C118.265 12.9149 118.37 13.5699 118.37 14.3303V14.957H111.262V13.5793H116.411C116.407 13.1878 116.323 12.8396 116.157 12.5347C115.991 12.2261 115.76 11.9833 115.463 11.8064C115.169 11.6294 114.826 11.541 114.435 11.541C114.017 11.541 113.65 11.6426 113.334 11.8459C113.018 12.0454 112.771 12.3089 112.594 12.6364C112.421 12.9601 112.333 13.3158 112.329 13.7035V14.9062C112.329 15.4106 112.421 15.8435 112.606 16.2048C112.79 16.5624 113.048 16.8372 113.379 17.0292C113.71 17.2174 114.098 17.3115 114.542 17.3115C114.84 17.3115 115.109 17.2701 115.35 17.1873C115.591 17.1007 115.799 16.9746 115.976 16.809C116.153 16.6434 116.287 16.4382 116.377 16.1935L118.286 16.4081C118.165 16.9125 117.936 17.3529 117.597 17.7293C117.262 18.102 116.833 18.3918 116.31 18.5989C115.786 18.8021 115.188 18.9038 114.514 18.9038ZM120.1 18.7344V10.0616H122.081V11.5071H122.172C122.33 11.0065 122.601 10.6206 122.985 10.3496C123.373 10.0748 123.815 9.93743 124.312 9.93743C124.425 9.93743 124.551 9.94308 124.69 9.95437C124.833 9.9619 124.952 9.97507 125.046 9.99389V11.8741C124.959 11.844 124.822 11.8176 124.634 11.7951C124.449 11.7687 124.27 11.7555 124.097 11.7555C123.725 11.7555 123.39 11.8365 123.092 11.9983C122.799 12.1564 122.567 12.3766 122.398 12.6589C122.228 12.9413 122.144 13.2669 122.144 13.6358V18.7344H120.1ZM130.438 18.7344V7.17074H137.959V8.92674H132.533V12.0661H137.569V13.8221H132.533V16.9784H138.004V18.7344H130.438ZM144.399 10.0616V11.6426H139.272V10.0616H144.399ZM140.553 18.7344V9.24293C140.553 8.65948 140.674 8.1739 140.915 7.78619C141.159 7.39847 141.487 7.10863 141.897 6.91665C142.307 6.72468 142.763 6.62869 143.264 6.62869C143.617 6.62869 143.932 6.65692 144.207 6.71339C144.481 6.76985 144.685 6.82067 144.816 6.86584L144.41 8.4468C144.323 8.42045 144.214 8.3941 144.082 8.36776C143.951 8.33764 143.804 8.32259 143.642 8.32259C143.262 8.32259 142.993 8.41481 142.834 8.59925C142.68 8.77994 142.603 9.03967 142.603 9.37844V18.7344H140.553ZM150.392 10.0616V11.6426H145.265V10.0616H150.392ZM146.547 18.7344V9.24293C146.547 8.65948 146.667 8.1739 146.908 7.78619C147.153 7.39847 147.48 7.10863 147.891 6.91665C148.301 6.72468 148.757 6.62869 149.257 6.62869C149.611 6.62869 149.925 6.65692 150.2 6.71339C150.475 6.76985 150.678 6.82067 150.81 6.86584L150.403 8.4468C150.317 8.42045 150.208 8.3941 150.076 8.36776C149.944 8.33764 149.797 8.32259 149.635 8.32259C149.255 8.32259 148.986 8.41481 148.828 8.59925C148.674 8.77994 148.597 9.03967 148.597 9.37844V18.7344H146.547ZM155.506 18.9038C154.637 18.9038 153.886 18.7231 153.253 18.3617C152.625 17.9966 152.141 17.4809 151.802 16.8146C151.463 16.1446 151.294 15.356 151.294 14.4488C151.294 13.5567 151.463 12.7738 151.802 12.1C152.145 11.4224 152.623 10.8954 153.236 10.519C153.85 10.1388 154.571 9.94872 155.399 9.94872C155.933 9.94872 156.438 10.0353 156.912 10.2085C157.39 10.3778 157.812 10.6413 158.177 10.9989C158.546 11.3565 158.836 11.812 159.046 12.3653C159.257 12.9149 159.363 13.5699 159.363 14.3303V14.957H152.254V13.5793H157.403C157.4 13.1878 157.315 12.8396 157.149 12.5347C156.984 12.2261 156.752 11.9833 156.455 11.8064C156.161 11.6294 155.819 11.541 155.427 11.541C155.009 11.541 154.642 11.6426 154.326 11.8459C154.01 12.0454 153.763 12.3089 153.586 12.6364C153.413 12.9601 153.325 13.3158 153.321 13.7035V14.9062C153.321 15.4106 153.413 15.8435 153.598 16.2048C153.782 16.5624 154.04 16.8372 154.371 17.0292C154.703 17.2174 155.09 17.3115 155.534 17.3115C155.832 17.3115 156.101 17.2701 156.342 17.1873C156.583 17.1007 156.792 16.9746 156.969 16.809C157.146 16.6434 157.279 16.4382 157.369 16.1935L159.278 16.4081C159.157 16.9125 158.928 17.3529 158.589 17.7293C158.254 18.102 157.825 18.3918 157.302 18.5989C156.779 18.8021 156.18 18.9038 155.506 18.9038ZM164.875 18.9038C164.009 18.9038 163.266 18.7137 162.645 18.3335C162.027 17.9533 161.551 17.4282 161.216 16.7582C160.885 16.0844 160.719 15.3089 160.719 14.4319C160.719 13.5511 160.889 12.7738 161.227 12.1C161.566 11.4224 162.044 10.8954 162.661 10.519C163.283 10.1388 164.017 9.94872 164.864 9.94872C165.567 9.94872 166.19 10.0786 166.732 10.3383C167.278 10.5943 167.713 10.9575 168.037 11.4281C168.36 11.8948 168.545 12.4406 168.59 13.0655H166.636C166.557 12.6477 166.369 12.2995 166.072 12.0209C165.778 11.7386 165.385 11.5974 164.892 11.5974C164.474 11.5974 164.107 11.7104 163.791 11.9362C163.475 12.1583 163.228 12.4783 163.051 12.8961C162.878 13.3139 162.791 13.8146 162.791 14.398C162.791 14.989 162.878 15.4972 163.051 15.9225C163.224 16.3441 163.467 16.6697 163.779 16.8993C164.096 17.1252 164.466 17.2381 164.892 17.2381C165.193 17.2381 165.462 17.1816 165.699 17.0687C165.94 16.952 166.141 16.7845 166.303 16.5662C166.465 16.3479 166.576 16.0825 166.636 15.7701H168.59C168.541 16.3836 168.36 16.9276 168.048 17.4018C167.736 17.8724 167.31 18.2413 166.772 18.5085C166.234 18.772 165.601 18.9038 164.875 18.9038ZM174.599 10.0616V11.6426H169.614V10.0616H174.599ZM170.844 7.98381H172.888V16.1258C172.888 16.4006 172.93 16.6114 173.013 16.7582C173.099 16.9012 173.212 16.9991 173.351 17.0518C173.491 17.1045 173.645 17.1308 173.814 17.1308C173.942 17.1308 174.059 17.1214 174.164 17.1026C174.274 17.0838 174.356 17.0668 174.413 17.0518L174.757 18.6497C174.648 18.6873 174.492 18.7287 174.289 18.7739C174.089 18.8191 173.844 18.8454 173.555 18.8529C173.043 18.868 172.582 18.7908 172.171 18.6214C171.761 18.4483 171.435 18.181 171.194 17.8197C170.957 17.4583 170.841 17.0066 170.844 16.4646V7.98381ZM183.039 12.354L181.176 12.5573C181.123 12.3691 181.031 12.1922 180.899 12.0266C180.771 11.8609 180.598 11.7273 180.38 11.6257C180.161 11.524 179.894 11.4732 179.578 11.4732C179.152 11.4732 178.795 11.5654 178.505 11.7499C178.219 11.9343 178.078 12.1734 178.082 12.467C178.078 12.7192 178.17 12.9243 178.358 13.0824C178.55 13.2405 178.866 13.3704 179.307 13.472L180.786 13.7882C181.607 13.9651 182.217 14.2456 182.616 14.6295C183.018 15.0135 183.222 15.516 183.225 16.1371C183.222 16.6829 183.062 17.1647 182.745 17.5825C182.433 17.9966 181.998 18.3203 181.441 18.5537C180.884 18.7871 180.244 18.9038 179.521 18.9038C178.46 18.9038 177.605 18.6817 176.958 18.2375C176.31 17.7896 175.925 17.1666 175.8 16.3686L177.794 16.1766C177.884 16.5681 178.076 16.8636 178.37 17.0631C178.663 17.2626 179.045 17.3623 179.516 17.3623C180.001 17.3623 180.391 17.2626 180.684 17.0631C180.982 16.8636 181.131 16.617 181.131 16.3234C181.131 16.075 181.035 15.8698 180.843 15.708C180.654 15.5461 180.361 15.4219 179.962 15.3353L178.482 15.0248C177.651 14.8516 177.035 14.5599 176.636 14.1496C176.237 13.7355 176.039 13.2123 176.043 12.5799C176.039 12.0454 176.184 11.5824 176.478 11.1909C176.775 10.7957 177.188 10.4908 177.715 10.2762C178.245 10.0579 178.857 9.94872 179.55 9.94872C180.566 9.94872 181.366 10.1652 181.949 10.598C182.536 11.0309 182.9 11.6163 183.039 12.354Z" fill="#1E1F24"/>
<defs>
<clipPath id="clip0_1_1112">
<rect width="310" height="24" fill="white" transform="translate(0.5 0.734375)"/>
</clipPath>
<clipPath id="clip1_1_1112">
<rect width="24" height="24" fill="white" transform="translate(0.5 0.734375)"/>
</clipPath>
</defs>
</svg>
