<svg width="311" height="25" viewBox="0 0 311 25" fill="none" xmlns="http://www.w3.org/2000/svg">
<g clip-path="url(#clip0_1_833)">
<g clip-path="url(#clip1_1_833)">
<path d="M2.09961 6.5052L12.5344 0.515625L22.9692 6.5052V11.9313L18.1483 10.4078V9.28084L12.5344 6.06693L8.40222 8.4252L22.9692 13.0791V18.5052L12.5344 24.5156L2.09961 18.5052V13.0791L6.92048 14.6026V15.7295L12.5344 18.9643L16.7292 16.5434L2.09961 11.9313V6.5052Z" fill="#E03028"/>
</g>
</g>
<path d="M43.5385 10.8536H41.4268C41.3666 10.5073 41.2555 10.2005 41.0937 9.93324C40.9318 9.66222 40.7304 9.4326 40.4895 9.24439C40.2486 9.05618 39.9738 8.91502 39.6652 8.82092C39.3603 8.72305 39.0309 8.67411 38.6771 8.67411C38.0484 8.67411 37.4913 8.83221 37.0058 9.1484C36.5202 9.46083 36.14 9.92006 35.8652 10.5261C35.5904 11.1284 35.453 11.8643 35.453 12.7338C35.453 13.6184 35.5904 14.3637 35.8652 14.9697C36.1437 15.572 36.5239 16.0275 37.0058 16.3362C37.4913 16.6411 38.0466 16.7935 38.6714 16.7935C39.0177 16.7935 39.3414 16.7483 39.6426 16.658C39.9475 16.5639 40.2204 16.4265 40.4613 16.2458C40.706 16.0651 40.9111 15.843 41.0767 15.5795C41.2461 15.3161 41.3628 15.0149 41.4268 14.6761L43.5385 14.6874C43.4595 15.237 43.2882 15.7527 43.0247 16.2345C42.765 16.7163 42.4243 17.1417 42.0027 17.5106C41.5811 17.8757 41.088 18.1618 40.5234 18.3688C39.9588 18.5721 39.332 18.6737 38.6432 18.6737C37.6268 18.6737 36.7197 18.4385 35.9217 17.9679C35.1237 17.4974 34.495 16.818 34.0358 15.9296C33.5766 15.0413 33.3469 13.976 33.3469 12.7338C33.3469 11.4879 33.5784 10.4226 34.0414 9.538C34.5044 8.64965 35.1349 7.97021 35.933 7.49968C36.731 7.02915 37.6344 6.79389 38.6432 6.79389C39.2869 6.79389 39.8854 6.88423 40.4387 7.06491C40.992 7.2456 41.4852 7.51097 41.918 7.86104C42.3509 8.20735 42.7066 8.63271 42.9852 9.13711C43.2675 9.63775 43.452 10.2099 43.5385 10.8536ZM46.7146 21.7679C46.436 21.7679 46.1782 21.7453 45.941 21.7001C45.7077 21.6587 45.5213 21.6098 45.382 21.5533L45.8563 19.9611C46.1537 20.0477 46.4191 20.0891 46.6525 20.0853C46.8858 20.0815 47.091 20.0081 47.2679 19.8651C47.4486 19.7258 47.601 19.4924 47.7253 19.165L47.9003 18.6963L44.7553 9.8429H46.9235L48.9223 16.3926H49.0126L51.0171 9.8429H53.1909L49.7184 19.5658C49.5566 20.0251 49.342 20.4184 49.0747 20.7459C48.8075 21.0772 48.48 21.3294 48.0923 21.5025C47.7083 21.6794 47.2491 21.7679 46.7146 21.7679ZM54.6053 18.5156V9.8429H61.9286V18.5156H59.958V11.5199H56.5589V18.5156H54.6053ZM67.8699 18.685C67.0003 18.685 66.2494 18.5043 65.617 18.143C64.9884 17.7778 64.5047 17.2621 64.1659 16.5959C63.8271 15.9259 63.6577 15.1373 63.6577 14.2301C63.6577 13.338 63.8271 12.555 64.1659 11.8812C64.5084 11.2037 64.9865 10.6767 65.6001 10.3002C66.2136 9.92006 66.9345 9.72997 67.7626 9.72997C68.2971 9.72997 68.8015 9.81655 69.2758 9.9897C69.7539 10.1591 70.1755 10.4226 70.5406 10.7802C70.9095 11.1378 71.1993 11.5933 71.4101 12.1466C71.6209 12.6962 71.7263 13.3511 71.7263 14.1115V14.7382H64.6176V13.3605H69.767C69.7633 12.9691 69.6786 12.6209 69.513 12.316C69.3473 12.0073 69.1158 11.7645 68.8185 11.5876C68.5248 11.4107 68.1823 11.3222 67.7908 11.3222C67.373 11.3222 67.006 11.4239 66.6898 11.6271C66.3736 11.8266 66.1271 12.0901 65.9501 12.4176C65.777 12.7413 65.6885 13.0971 65.6848 13.4848V14.6874C65.6848 15.1918 65.777 15.6247 65.9614 15.9861C66.1459 16.3437 66.4037 16.6185 66.735 16.8104C67.0662 16.9987 67.4539 17.0928 67.8981 17.0928C68.1955 17.0928 68.4646 17.0513 68.7055 16.9685C68.9464 16.882 69.1554 16.7559 69.3323 16.5902C69.5092 16.4246 69.6428 16.2195 69.7332 15.9748L71.6416 16.1893C71.5212 16.6937 71.2915 17.1342 70.9528 17.5106C70.6177 17.8832 70.1886 18.1731 69.6654 18.3801C69.1422 18.5834 68.5437 18.685 67.8699 18.685ZM73.4555 21.7679V9.8429H75.4656V11.2771H75.5841C75.6895 11.0663 75.8382 10.8423 76.0302 10.6051C76.2222 10.3642 76.4819 10.1591 76.8094 9.9897C77.1369 9.81655 77.5547 9.72997 78.0629 9.72997C78.7329 9.72997 79.3371 9.90124 79.8753 10.2438C80.4174 10.5826 80.8465 11.0851 81.1627 11.7513C81.4827 12.4138 81.6426 13.2269 81.6426 14.1906C81.6426 15.1429 81.4864 15.9522 81.174 16.6185C80.8616 17.2847 80.4362 17.7929 79.8979 18.143C79.3596 18.493 78.7498 18.6681 78.0685 18.6681C77.5716 18.6681 77.1595 18.5853 76.832 18.4196C76.5045 18.254 76.241 18.0545 76.0415 17.8211C75.8458 17.584 75.6933 17.36 75.5841 17.1492H75.4994V21.7679H73.4555ZM75.4599 14.1793C75.4599 14.7401 75.539 15.2314 75.6971 15.6529C75.8589 16.0745 76.0904 16.4039 76.3916 16.6411C76.6965 16.8744 77.0654 16.9911 77.4982 16.9911C77.9499 16.9911 78.3282 16.8707 78.6331 16.6298C78.9381 16.3851 79.1677 16.052 79.322 15.6304C79.4801 15.205 79.5591 14.7213 79.5591 14.1793C79.5591 13.641 79.482 13.1629 79.3276 12.7451C79.1733 12.3273 78.9437 11.9998 78.6388 11.7626C78.3339 11.5255 77.9537 11.4069 77.4982 11.4069C77.0616 11.4069 76.6908 11.5217 76.3859 11.7513C76.081 11.981 75.8495 12.3028 75.6914 12.7169C75.5371 13.1309 75.4599 13.6184 75.4599 14.1793ZM93.7116 10.1309C93.6589 9.63775 93.4368 9.2538 93.0453 8.97901C92.6576 8.70423 92.1532 8.56683 91.5321 8.56683C91.0955 8.56683 90.7209 8.63271 90.4085 8.76445C90.0961 8.8962 89.8571 9.075 89.6914 9.30085C89.5258 9.5267 89.4411 9.78455 89.4374 10.0744C89.4374 10.3153 89.4919 10.5242 89.6011 10.7011C89.714 10.8781 89.8665 11.0286 90.0584 11.1528C90.2504 11.2733 90.4631 11.3749 90.6965 11.4577C90.9299 11.5406 91.1651 11.6102 91.4023 11.6667L92.4864 11.9377C92.923 12.0393 93.3427 12.1767 93.7455 12.3499C94.152 12.523 94.5153 12.7413 94.8352 13.0048C95.1589 13.2683 95.4149 13.5864 95.6031 13.9591C95.7913 14.3317 95.8854 14.7684 95.8854 15.269C95.8854 15.9466 95.7123 16.5432 95.366 17.0589C95.0197 17.5708 94.519 17.9717 93.8641 18.2615C93.2129 18.5476 92.4243 18.6907 91.4983 18.6907C90.5986 18.6907 89.8175 18.5514 89.155 18.2728C88.4963 17.9943 87.9806 17.5877 87.608 17.0532C87.2391 16.5187 87.0396 15.8675 87.0094 15.0996H89.0703C89.1005 15.5024 89.2247 15.8374 89.443 16.1047C89.6613 16.3719 89.9455 16.5714 90.2956 16.7032C90.6494 16.8349 91.0447 16.9008 91.4813 16.9008C91.9368 16.9008 92.3358 16.833 92.6783 16.6975C93.0246 16.5582 93.2957 16.3663 93.4914 16.1216C93.6871 15.8732 93.7869 15.5833 93.7907 15.2521C93.7869 14.9509 93.6984 14.7025 93.5253 14.5067C93.3521 14.3072 93.1093 14.1416 92.7969 14.0099C92.4882 13.8744 92.1269 13.7539 91.7128 13.6485L90.3972 13.3097C89.4449 13.0651 88.692 12.6943 88.1387 12.1974C87.5891 11.6968 87.3143 11.0324 87.3143 10.2043C87.3143 9.52294 87.4988 8.92631 87.8677 8.41438C88.2403 7.90245 88.7466 7.50533 89.3865 7.22301C90.0265 6.93693 90.7511 6.79389 91.5604 6.79389C92.381 6.79389 93.0999 6.93693 93.7173 7.22301C94.3384 7.50533 94.8258 7.89869 95.1796 8.40309C95.5335 8.90373 95.716 9.47965 95.7273 10.1309H93.7116ZM103.19 14.8681V9.8429H105.234V18.5156H103.252V16.9742H103.162C102.966 17.4598 102.645 17.8569 102.197 18.1656C101.752 18.4742 101.205 18.6286 100.554 18.6286C99.9851 18.6286 99.4826 18.5025 99.046 18.2502C98.6131 17.9943 98.2743 17.6235 98.0296 17.1379C97.785 16.6486 97.6626 16.0576 97.6626 15.365V9.8429H99.7066V15.0488C99.7066 15.5984 99.8571 16.035 100.158 16.3587C100.459 16.6825 100.855 16.8443 101.344 16.8443C101.645 16.8443 101.937 16.7709 102.219 16.6241C102.502 16.4773 102.733 16.259 102.914 15.9691C103.098 15.6755 103.19 15.3085 103.19 14.8681ZM107.426 18.5156V6.95199H109.47V11.2771H109.555C109.661 11.0663 109.809 10.8423 110.001 10.6051C110.193 10.3642 110.453 10.1591 110.78 9.9897C111.108 9.81655 111.526 9.72997 112.034 9.72997C112.704 9.72997 113.308 9.90124 113.846 10.2438C114.388 10.5826 114.818 11.0851 115.134 11.7513C115.454 12.4138 115.614 13.2269 115.614 14.1906C115.614 15.1429 115.457 15.9522 115.145 16.6185C114.833 17.2847 114.407 17.7929 113.869 18.143C113.331 18.493 112.721 18.6681 112.04 18.6681C111.543 18.6681 111.13 18.5853 110.803 18.4196C110.475 18.254 110.212 18.0545 110.012 17.8211C109.817 17.584 109.664 17.36 109.555 17.1492H109.437V18.5156H107.426ZM109.431 14.1793C109.431 14.7401 109.51 15.2314 109.668 15.6529C109.83 16.0745 110.061 16.4039 110.363 16.6411C110.667 16.8744 111.036 16.9911 111.469 16.9911C111.921 16.9911 112.299 16.8707 112.604 16.6298C112.909 16.3851 113.139 16.052 113.293 15.6304C113.451 15.205 113.53 14.7213 113.53 14.1793C113.53 13.641 113.453 13.1629 113.299 12.7451C113.144 12.3273 112.915 11.9998 112.61 11.7626C112.305 11.5255 111.925 11.4069 111.469 11.4069C111.033 11.4069 110.662 11.5217 110.357 11.7513C110.052 11.981 109.821 12.3028 109.662 12.7169C109.508 13.1309 109.431 13.6184 109.431 14.1793ZM124.206 12.1353L122.343 12.3386C122.29 12.1504 122.198 11.9734 122.066 11.8078C121.938 11.6422 121.765 11.5086 121.546 11.4069C121.328 11.3053 121.061 11.2545 120.745 11.2545C120.319 11.2545 119.962 11.3467 119.672 11.5311C119.386 11.7156 119.245 11.9546 119.248 12.2482C119.245 12.5004 119.337 12.7056 119.525 12.8637C119.717 13.0218 120.033 13.1516 120.474 13.2533L121.953 13.5695C122.774 13.7464 123.383 14.0268 123.782 14.4108C124.185 14.7947 124.388 15.2972 124.392 15.9183C124.388 16.4641 124.228 16.946 123.912 17.3638C123.6 17.7778 123.165 18.1016 122.608 18.3349C122.051 18.5683 121.411 18.685 120.688 18.685C119.627 18.685 118.772 18.4629 118.125 18.0188C117.477 17.5708 117.092 16.9478 116.967 16.1498L118.96 15.9578C119.051 16.3493 119.243 16.6448 119.536 16.8443C119.83 17.0438 120.212 17.1436 120.683 17.1436C121.168 17.1436 121.558 17.0438 121.851 16.8443C122.149 16.6448 122.297 16.3983 122.297 16.1047C122.297 15.8562 122.201 15.6511 122.009 15.4892C121.821 15.3273 121.528 15.2031 121.129 15.1165L119.649 14.806C118.817 14.6328 118.202 14.3411 117.803 13.9308C117.404 13.5168 117.206 12.9935 117.21 12.3612C117.206 11.8266 117.351 11.3636 117.645 10.9722C117.942 10.5769 118.354 10.272 118.881 10.0575C119.412 9.83913 120.024 9.72997 120.716 9.72997C121.733 9.72997 122.533 9.94641 123.116 10.3793C123.703 10.8122 124.067 11.3975 124.206 12.1353ZM130.408 9.8429V11.4239H125.423V9.8429H130.408ZM126.654 7.76506H128.698V15.907C128.698 16.1818 128.739 16.3926 128.822 16.5394C128.908 16.6825 129.021 16.7803 129.161 16.833C129.3 16.8857 129.454 16.9121 129.624 16.9121C129.752 16.9121 129.868 16.9027 129.974 16.8838C130.083 16.865 130.166 16.8481 130.222 16.833L130.566 18.4309C130.457 18.4686 130.301 18.51 130.098 18.5551C129.898 18.6003 129.654 18.6267 129.364 18.6342C128.852 18.6493 128.391 18.5721 127.98 18.4027C127.57 18.2295 127.245 17.9623 127.004 17.6009C126.767 17.2396 126.65 16.7879 126.654 16.2458V7.76506ZM134.613 18.6907C134.064 18.6907 133.569 18.5928 133.128 18.3971C132.692 18.1975 132.346 17.9039 132.09 17.5162C131.837 17.1285 131.711 16.6505 131.711 16.0821C131.711 15.5927 131.802 15.1881 131.982 14.8681C132.163 14.5482 132.41 14.2922 132.722 14.1002C133.034 13.9082 133.386 13.7633 133.778 13.6654C134.173 13.5638 134.581 13.4904 135.003 13.4452C135.511 13.3925 135.923 13.3455 136.24 13.3041C136.556 13.2589 136.785 13.1912 136.928 13.1008C137.075 13.0067 137.149 12.8618 137.149 12.6661V12.6322C137.149 12.2068 137.023 11.8775 136.77 11.6441C136.518 11.4107 136.155 11.294 135.681 11.294C135.18 11.294 134.783 11.4032 134.489 11.6215C134.199 11.8398 134.004 12.0977 133.902 12.395L131.994 12.124C132.144 11.597 132.393 11.1566 132.739 10.8028C133.085 10.4452 133.509 10.1779 134.009 10.001C134.51 9.82031 135.063 9.72997 135.669 9.72997C136.087 9.72997 136.503 9.77891 136.917 9.87678C137.331 9.97464 137.71 10.1365 138.052 10.3624C138.395 10.5844 138.669 10.8875 138.876 11.2714C139.087 11.6554 139.193 12.1353 139.193 12.7112V18.5156H137.228V17.3243H137.16C137.036 17.5652 136.861 17.791 136.635 18.0018C136.413 18.2088 136.132 18.3763 135.794 18.5043C135.459 18.6286 135.065 18.6907 134.613 18.6907ZM135.144 17.1887C135.555 17.1887 135.91 17.1078 136.211 16.946C136.512 16.7803 136.744 16.562 136.906 16.291C137.071 16.02 137.154 15.7245 137.154 15.4045V14.3825C137.09 14.4352 136.981 14.4842 136.827 14.5293C136.676 14.5745 136.507 14.614 136.319 14.6479C136.13 14.6818 135.944 14.7119 135.76 14.7382C135.575 14.7646 135.415 14.7872 135.28 14.806C134.975 14.8474 134.702 14.9152 134.461 15.0093C134.22 15.1034 134.03 15.2351 133.891 15.4045C133.751 15.5701 133.682 15.7847 133.682 16.0482C133.682 16.4246 133.819 16.7088 134.094 16.9008C134.369 17.0928 134.719 17.1887 135.144 17.1887ZM143.292 13.4339V18.5156H141.248V9.8429H143.201V11.3166H143.303C143.503 10.831 143.821 10.4452 144.257 10.1591C144.698 9.87301 145.242 9.72997 145.889 9.72997C146.488 9.72997 147.009 9.85795 147.453 10.1139C147.901 10.3699 148.247 10.7407 148.492 11.2262C148.741 11.7118 148.863 12.3009 148.859 12.9935V18.5156H146.815V13.3097C146.815 12.73 146.665 12.2765 146.363 11.949C146.066 11.6215 145.654 11.4577 145.127 11.4577C144.769 11.4577 144.451 11.5368 144.173 11.6949C143.898 11.8492 143.681 12.0732 143.523 12.3668C143.369 12.6604 143.292 13.0161 143.292 13.4339ZM154.72 18.685C153.854 18.685 153.111 18.4949 152.49 18.1147C151.872 17.7346 151.396 17.2094 151.061 16.5394C150.73 15.8656 150.564 15.0902 150.564 14.2131C150.564 13.3323 150.734 12.555 151.072 11.8812C151.411 11.2037 151.889 10.6767 152.507 10.3002C153.128 9.92006 153.862 9.72997 154.709 9.72997C155.413 9.72997 156.036 9.85984 156.578 10.1196C157.123 10.3755 157.558 10.7388 157.882 11.2093C158.206 11.6761 158.39 12.2219 158.435 12.8467H156.482C156.403 12.4289 156.214 12.0807 155.917 11.8022C155.623 11.5199 155.23 11.3787 154.737 11.3787C154.319 11.3787 153.952 11.4916 153.636 11.7175C153.32 11.9396 153.073 12.2595 152.896 12.6773C152.723 13.0952 152.636 13.5958 152.636 14.1793C152.636 14.7702 152.723 15.2784 152.896 15.7038C153.069 16.1254 153.312 16.451 153.625 16.6806C153.941 16.9064 154.312 17.0194 154.737 17.0194C155.038 17.0194 155.307 16.9629 155.544 16.85C155.785 16.7333 155.987 16.5658 156.148 16.3474C156.31 16.1291 156.421 15.8637 156.482 15.5513H158.435C158.386 16.1649 158.206 16.7088 157.893 17.1831C157.581 17.6536 157.155 18.0225 156.617 18.2898C156.079 18.5533 155.446 18.685 154.72 18.685ZM163.953 18.685C163.084 18.685 162.333 18.5043 161.7 18.143C161.072 17.7778 160.588 17.2621 160.249 16.5959C159.91 15.9259 159.741 15.1373 159.741 14.2301C159.741 13.338 159.91 12.555 160.249 11.8812C160.592 11.2037 161.07 10.6767 161.683 10.3002C162.297 9.92006 163.018 9.72997 163.846 9.72997C164.38 9.72997 164.885 9.81655 165.359 9.9897C165.837 10.1591 166.259 10.4226 166.624 10.7802C166.993 11.1378 167.283 11.5933 167.493 12.1466C167.704 12.6962 167.81 13.3511 167.81 14.1115V14.7382H160.701V13.3605H165.85C165.846 12.9691 165.762 12.6209 165.596 12.316C165.431 12.0073 165.199 11.7645 164.902 11.5876C164.608 11.4107 164.266 11.3222 163.874 11.3222C163.456 11.3222 163.089 11.4239 162.773 11.6271C162.457 11.8266 162.21 12.0901 162.033 12.4176C161.86 12.7413 161.772 13.0971 161.768 13.4848V14.6874C161.768 15.1918 161.86 15.6247 162.045 15.9861C162.229 16.3437 162.487 16.6185 162.818 16.8104C163.149 16.9987 163.537 17.0928 163.981 17.0928C164.279 17.0928 164.548 17.0513 164.789 16.9685C165.03 16.882 165.239 16.7559 165.415 16.5902C165.592 16.4246 165.726 16.2195 165.816 15.9748L167.725 16.1893C167.604 16.6937 167.375 17.1342 167.036 17.5106C166.701 17.8832 166.272 18.1731 165.749 18.3801C165.225 18.5834 164.627 18.685 163.953 18.685Z" fill="#1E1F24"/>
<defs>
<clipPath id="clip0_1_833">
<rect width="310" height="24" fill="white" transform="translate(0.5 0.515625)"/>
</clipPath>
<clipPath id="clip1_1_833">
<rect width="24" height="24" fill="white" transform="translate(0.5 0.515625)"/>
</clipPath>
</defs>
</svg>
