<svg width="311" height="25" viewBox="0 0 311 25" fill="none" xmlns="http://www.w3.org/2000/svg">
<g clip-path="url(#clip0_1_764)">
<g clip-path="url(#clip1_1_764)">
<path d="M0.5 4.41605C0.5 2.2069 2.29088 0.416016 4.50004 0.416016H8.50007V8.41609H4.50003C2.29087 8.41609 0.5 6.62521 0.5 4.41605Z" fill="#F24E1E"/>
<path d="M0.5 12.416C0.5 10.2069 2.29088 8.41602 4.50004 8.41602H8.50007V16.4161H4.50003C2.29087 16.4161 0.5 14.6252 0.5 12.416Z" fill="#A259FF"/>
<path d="M0.5 20.416C0.5 18.2069 2.29088 16.416 4.50004 16.416H8.50007V20.7506C8.50007 22.775 6.859 24.4161 4.83464 24.4161H4.50003C2.29087 24.4161 0.5 22.6252 0.5 20.416Z" fill="#0ACF83"/>
<path d="M16.5 4.41605C16.5 2.2069 14.7091 0.416016 12.5 0.416016H8.49994V8.41609H12.5C14.7091 8.41609 16.5 6.62521 16.5 4.41605Z" fill="#FF7262"/>
<path d="M16.5 12.416C16.5 10.2069 14.7091 8.41602 12.5 8.41602C10.2908 8.41602 8.49994 10.2069 8.49994 12.416C8.49994 14.6252 10.2908 16.4161 12.5 16.4161C14.7091 16.4161 16.5 14.6252 16.5 12.416Z" fill="#1ABCFE"/>
</g>
</g>
<path d="M43.5385 10.754H41.4268C41.3666 10.4077 41.2555 10.1009 41.0937 9.83363C40.9318 9.56261 40.7304 9.33299 40.4895 9.14478C40.2486 8.95657 39.9738 8.81541 39.6652 8.72131C39.3603 8.62344 39.0309 8.5745 38.6771 8.5745C38.0484 8.5745 37.4913 8.7326 37.0058 9.04879C36.5202 9.36122 36.14 9.82045 35.8652 10.4265C35.5904 11.0288 35.453 11.7647 35.453 12.6342C35.453 13.5188 35.5904 14.2641 35.8652 14.8701C36.1437 15.4724 36.5239 15.9279 37.0058 16.2365C37.4913 16.5414 38.0466 16.6939 38.6714 16.6939C39.0177 16.6939 39.3414 16.6487 39.6426 16.5584C39.9475 16.4643 40.2204 16.3269 40.4613 16.1462C40.706 15.9655 40.9111 15.7434 41.0767 15.4799C41.2461 15.2164 41.3628 14.9153 41.4268 14.5765L43.5385 14.5878C43.4595 15.1374 43.2882 15.6531 43.0247 16.1349C42.765 16.6167 42.4243 17.0421 42.0027 17.411C41.5811 17.7761 41.088 18.0622 40.5234 18.2692C39.9588 18.4725 39.332 18.5741 38.6432 18.5741C37.6268 18.5741 36.7197 18.3388 35.9217 17.8683C35.1237 17.3978 34.495 16.7184 34.0358 15.83C33.5766 14.9417 33.3469 13.8764 33.3469 12.6342C33.3469 11.3882 33.5784 10.323 34.0414 9.43839C34.5044 8.55004 35.1349 7.8706 35.933 7.40007C36.731 6.92955 37.6344 6.69428 38.6432 6.69428C39.2869 6.69428 39.8854 6.78462 40.4387 6.9653C40.992 7.14599 41.4852 7.41136 41.918 7.76143C42.3509 8.10774 42.7066 8.5331 42.9852 9.0375C43.2675 9.53814 43.452 10.1103 43.5385 10.754ZM46.7146 21.6683C46.436 21.6683 46.1782 21.6457 45.941 21.6005C45.7077 21.5591 45.5213 21.5102 45.382 21.4537L45.8563 19.8615C46.1537 19.948 46.4191 19.9895 46.6525 19.9857C46.8858 19.9819 47.091 19.9085 47.2679 19.7655C47.4486 19.6262 47.601 19.3928 47.7253 19.0653L47.9003 18.5967L44.7553 9.74329H46.9235L48.9223 16.293H49.0126L51.0171 9.74329H53.1909L49.7184 19.4662C49.5566 19.9255 49.342 20.3188 49.0747 20.6463C48.8075 20.9776 48.48 21.2298 48.0923 21.4029C47.7083 21.5798 47.2491 21.6683 46.7146 21.6683ZM54.6053 18.416V9.74329H61.9286V18.416H59.958V11.4202H56.5589V18.416H54.6053ZM67.8699 18.5854C67.0003 18.5854 66.2494 18.4047 65.617 18.0434C64.9884 17.6782 64.5047 17.1625 64.1659 16.4963C63.8271 15.8262 63.6577 15.0376 63.6577 14.1305C63.6577 13.2384 63.8271 12.4554 64.1659 11.7816C64.5084 11.104 64.9865 10.5771 65.6001 10.2006C66.2136 9.82045 66.9345 9.63036 67.7626 9.63036C68.2971 9.63036 68.8015 9.71694 69.2758 9.89009C69.7539 10.0595 70.1755 10.323 70.5406 10.6806C70.9095 11.0382 71.1993 11.4936 71.4101 12.047C71.6209 12.5966 71.7263 13.2515 71.7263 14.0119V14.6386H64.6176V13.2609H69.767C69.7633 12.8695 69.6786 12.5213 69.513 12.2164C69.3473 11.9077 69.1158 11.6649 68.8185 11.488C68.5248 11.3111 68.1823 11.2226 67.7908 11.2226C67.373 11.2226 67.006 11.3243 66.6898 11.5275C66.3736 11.727 66.1271 11.9905 65.9501 12.318C65.777 12.6417 65.6885 12.9974 65.6848 13.3852V14.5878C65.6848 15.0922 65.777 15.5251 65.9614 15.8865C66.1459 16.2441 66.4037 16.5189 66.735 16.7108C67.0662 16.899 67.4539 16.9931 67.8981 16.9931C68.1955 16.9931 68.4646 16.9517 68.7055 16.8689C68.9464 16.7824 69.1554 16.6563 69.3323 16.4906C69.5092 16.325 69.6428 16.1199 69.7332 15.8752L71.6416 16.0897C71.5212 16.5941 71.2915 17.0346 70.9528 17.411C70.6177 17.7836 70.1886 18.0735 69.6654 18.2805C69.1422 18.4838 68.5437 18.5854 67.8699 18.5854ZM73.4555 21.6683V9.74329H75.4656V11.1775H75.5841C75.6895 10.9667 75.8382 10.7427 76.0302 10.5055C76.2222 10.2646 76.4819 10.0595 76.8094 9.89009C77.1369 9.71694 77.5547 9.63036 78.0629 9.63036C78.7329 9.63036 79.3371 9.80163 79.8753 10.1442C80.4174 10.483 80.8465 10.9855 81.1627 11.6517C81.4827 12.3142 81.6426 13.1273 81.6426 14.0909C81.6426 15.0433 81.4864 15.8526 81.174 16.5189C80.8616 17.1851 80.4362 17.6933 79.8979 18.0434C79.3596 18.3934 78.7498 18.5685 78.0685 18.5685C77.5716 18.5685 77.1595 18.4857 76.832 18.32C76.5045 18.1544 76.241 17.9549 76.0415 17.7215C75.8458 17.4844 75.6933 17.2604 75.5841 17.0496H75.4994V21.6683H73.4555ZM75.4599 14.0797C75.4599 14.6405 75.539 15.1317 75.6971 15.5533C75.8589 15.9749 76.0904 16.3043 76.3916 16.5414C76.6965 16.7748 77.0654 16.8915 77.4982 16.8915C77.9499 16.8915 78.3282 16.7711 78.6331 16.5301C78.9381 16.2855 79.1677 15.9523 79.322 15.5308C79.4801 15.1054 79.5591 14.6217 79.5591 14.0797C79.5591 13.5414 79.482 13.0633 79.3276 12.6455C79.1733 12.2277 78.9437 11.9002 78.6388 11.663C78.3339 11.4259 77.9537 11.3073 77.4982 11.3073C77.0616 11.3073 76.6908 11.4221 76.3859 11.6517C76.081 11.8814 75.8495 12.2032 75.6914 12.6173C75.5371 13.0313 75.4599 13.5188 75.4599 14.0797ZM87.4273 18.416V6.85238H94.8352V8.60838H89.5221V11.7477H94.3271V13.5037H89.5221V18.416H87.4273ZM96.6533 18.416V9.74329H98.6973V18.416H96.6533ZM97.681 8.51239C97.3572 8.51239 97.0787 8.40511 96.8453 8.19055C96.6119 7.97223 96.4952 7.71062 96.4952 7.40572C96.4952 7.09705 96.6119 6.83544 96.8453 6.62088C97.0787 6.40256 97.3572 6.29339 97.681 6.29339C98.0084 6.29339 98.287 6.40256 98.5166 6.62088C98.75 6.83544 98.8667 7.09705 98.8667 7.40572C98.8667 7.71062 98.75 7.97223 98.5166 8.19055C98.287 8.40511 98.0084 8.51239 97.681 8.51239ZM104.571 21.849C103.837 21.849 103.206 21.7492 102.679 21.5497C102.152 21.354 101.729 21.0905 101.409 20.7592C101.089 20.428 100.867 20.061 100.743 19.6582L102.583 19.2121C102.666 19.3815 102.787 19.549 102.945 19.7147C103.103 19.8841 103.316 20.0233 103.583 20.1325C103.854 20.2454 104.194 20.3019 104.605 20.3019C105.184 20.3019 105.664 20.1607 106.045 19.8784C106.425 19.5999 106.615 19.1406 106.615 18.5007V16.8576H106.513C106.408 17.0684 106.253 17.2849 106.05 17.507C105.851 17.729 105.585 17.9154 105.254 18.0659C104.927 18.2165 104.514 18.2918 104.018 18.2918C103.351 18.2918 102.747 18.1356 102.205 17.8232C101.667 17.507 101.238 17.0364 100.918 16.4116C100.602 15.783 100.443 14.9962 100.443 14.0514C100.443 13.0991 100.602 12.2954 100.918 11.6404C101.238 10.9817 101.669 10.483 102.211 10.1442C102.753 9.80163 103.357 9.63036 104.023 9.63036C104.531 9.63036 104.949 9.71694 105.277 9.89009C105.608 10.0595 105.871 10.2646 106.067 10.5055C106.263 10.7427 106.412 10.9667 106.513 11.1775H106.626V9.74329H108.642V18.5572C108.642 19.2987 108.465 19.9123 108.111 20.3979C107.757 20.8835 107.274 21.2467 106.66 21.4876C106.046 21.7285 105.35 21.849 104.571 21.849ZM104.588 16.6882C105.021 16.6882 105.39 16.5828 105.694 16.3721C105.999 16.1613 106.231 15.8582 106.389 15.463C106.547 15.0678 106.626 14.5935 106.626 14.0401C106.626 13.4943 106.547 13.0163 106.389 12.606C106.235 12.1957 106.005 11.8776 105.7 11.6517C105.399 11.4221 105.028 11.3073 104.588 11.3073C104.132 11.3073 103.752 11.4259 103.447 11.663C103.142 11.9002 102.913 12.2258 102.758 12.6398C102.604 13.0501 102.527 13.5169 102.527 14.0401C102.527 14.5709 102.604 15.0358 102.758 15.4348C102.917 15.83 103.148 16.1387 103.453 16.3608C103.762 16.5791 104.14 16.6882 104.588 16.6882ZM110.737 18.416V9.74329H112.69V11.217H112.792C112.973 10.7201 113.272 10.3324 113.69 10.0538C114.107 9.77152 114.606 9.63036 115.186 9.63036C115.773 9.63036 116.268 9.7734 116.671 10.0595C117.077 10.3418 117.364 10.7276 117.529 11.217H117.619C117.811 10.7352 118.135 10.3512 118.591 10.0651C119.05 9.77528 119.594 9.63036 120.222 9.63036C121.02 9.63036 121.672 9.88256 122.176 10.387C122.68 10.8914 122.933 11.6273 122.933 12.5947V18.416H120.883V12.9109C120.883 12.3726 120.74 11.9792 120.454 11.7308C120.168 11.4786 119.818 11.3525 119.404 11.3525C118.911 11.3525 118.525 11.5068 118.246 11.8155C117.971 12.1204 117.834 12.5175 117.834 13.0069V18.416H115.83V12.8262C115.83 12.3782 115.694 12.0206 115.423 11.7534C115.156 11.4861 114.806 11.3525 114.373 11.3525C114.079 11.3525 113.812 11.4278 113.571 11.5783C113.33 11.7251 113.138 11.9341 112.995 12.2051C112.852 12.4723 112.781 12.7848 112.781 13.1424V18.416H110.737ZM127.502 18.5911C126.952 18.5911 126.457 18.4932 126.017 18.2974C125.58 18.0979 125.234 17.8043 124.978 17.4166C124.726 17.0289 124.6 16.5509 124.6 15.9825C124.6 15.4931 124.69 15.0885 124.871 14.7685C125.051 14.4485 125.298 14.1926 125.61 14.0006C125.923 13.8086 126.275 13.6637 126.666 13.5658C127.062 13.4642 127.47 13.3908 127.892 13.3456C128.4 13.2929 128.812 13.2459 129.128 13.2045C129.444 13.1593 129.674 13.0915 129.817 13.0012C129.964 12.9071 130.037 12.7622 130.037 12.5664V12.5326C130.037 12.1072 129.911 11.7778 129.659 11.5445C129.407 11.3111 129.043 11.1944 128.569 11.1944C128.068 11.1944 127.671 11.3036 127.378 11.5219C127.088 11.7402 126.892 11.998 126.791 12.2954L124.882 12.0244C125.033 11.4974 125.281 11.057 125.627 10.7032C125.974 10.3456 126.397 10.0783 126.898 9.90138C127.398 9.7207 127.952 9.63036 128.558 9.63036C128.976 9.63036 129.392 9.6793 129.806 9.77717C130.22 9.87504 130.598 10.0369 130.941 10.2627C131.283 10.4848 131.558 10.7879 131.765 11.1718C131.976 11.5558 132.081 12.0357 132.081 12.6116V18.416H130.116V17.2246H130.048C129.924 17.4656 129.749 17.6914 129.523 17.9022C129.301 18.1092 129.021 18.2767 128.682 18.4047C128.347 18.5289 127.954 18.5911 127.502 18.5911ZM128.033 17.0891C128.443 17.0891 128.799 17.0082 129.1 16.8463C129.401 16.6807 129.632 16.4624 129.794 16.1914C129.96 15.9203 130.043 15.6249 130.043 15.3049V14.2829C129.979 14.3356 129.87 14.3846 129.715 14.4297C129.565 14.4749 129.395 14.5144 129.207 14.5483C129.019 14.5822 128.833 14.6123 128.648 14.6386C128.464 14.665 128.304 14.6876 128.168 14.7064C127.863 14.7478 127.59 14.8156 127.349 14.9097C127.109 15.0038 126.918 15.1355 126.779 15.3049C126.64 15.4705 126.57 15.6851 126.57 15.9486C126.57 16.325 126.708 16.6092 126.982 16.8012C127.257 16.9931 127.607 17.0891 128.033 17.0891Z" fill="#1E1F24"/>
<defs>
<clipPath id="clip0_1_764">
<rect width="310" height="24" fill="white" transform="translate(0.5 0.416016)"/>
</clipPath>
<clipPath id="clip1_1_764">
<rect width="16" height="24" fill="white" transform="translate(0.5 0.416016)"/>
</clipPath>
</defs>
</svg>
