<svg width="311" height="25" viewBox="0 0 311 25" fill="none" xmlns="http://www.w3.org/2000/svg">
<g clip-path="url(#clip0_1_882)">
<g clip-path="url(#clip1_1_882)">
<path d="M2.09961 6.51496L12.5344 0.525391L22.9692 6.51496V11.9411L18.1483 10.4176V9.29061L12.5344 6.07669L8.40222 8.43496L22.9692 13.0889V18.515L12.5344 24.5254L2.09961 18.515V13.0889L6.92048 14.6124V15.7393L12.5344 18.9741L16.7292 16.5532L2.09961 11.9411V6.51496Z" fill="#E03028"/>
</g>
</g>
<path d="M43.5385 10.8634H41.4268C41.3666 10.517 41.2555 10.2103 41.0937 9.943C40.9318 9.67198 40.7304 9.44236 40.4895 9.25415C40.2486 9.06594 39.9738 8.92479 39.6652 8.83068C39.3603 8.73281 39.0309 8.68388 38.6771 8.68388C38.0484 8.68388 37.4913 8.84197 37.0058 9.15817C36.5202 9.4706 36.14 9.92983 35.8652 10.5359C35.5904 11.1381 35.453 11.874 35.453 12.7436C35.453 13.6282 35.5904 14.3735 35.8652 14.9795C36.1437 15.5818 36.5239 16.0373 37.0058 16.3459C37.4913 16.6508 38.0466 16.8033 38.6714 16.8033C39.0177 16.8033 39.3414 16.7581 39.6426 16.6678C39.9475 16.5737 40.2204 16.4363 40.4613 16.2556C40.706 16.0749 40.9111 15.8528 41.0767 15.5893C41.2461 15.3258 41.3628 15.0247 41.4268 14.6859L43.5385 14.6972C43.4595 15.2468 43.2882 15.7625 43.0247 16.2443C42.765 16.7261 42.4243 17.1515 42.0027 17.5203C41.5811 17.8855 41.088 18.1716 40.5234 18.3786C39.9588 18.5819 39.332 18.6835 38.6432 18.6835C37.6268 18.6835 36.7197 18.4482 35.9217 17.9777C35.1237 17.5072 34.495 16.8277 34.0358 15.9394C33.5766 15.051 33.3469 13.9858 33.3469 12.7436C33.3469 11.4976 33.5784 10.4324 34.0414 9.54776C34.5044 8.65941 35.1349 7.97997 35.933 7.50945C36.731 7.03892 37.6344 6.80366 38.6432 6.80366C39.2869 6.80366 39.8854 6.894 40.4387 7.07468C40.992 7.25536 41.4852 7.52074 41.918 7.87081C42.3509 8.21712 42.7066 8.64247 42.9852 9.14688C43.2675 9.64751 43.452 10.2197 43.5385 10.8634ZM46.7146 21.7777C46.436 21.7777 46.1782 21.7551 45.941 21.7099C45.7077 21.6685 45.5213 21.6196 45.382 21.5631L45.8563 19.9708C46.1537 20.0574 46.4191 20.0988 46.6525 20.0951C46.8858 20.0913 47.091 20.0179 47.2679 19.8749C47.4486 19.7356 47.601 19.5022 47.7253 19.1747L47.9003 18.7061L44.7553 9.85266H46.9235L48.9223 16.4024H49.0126L51.0171 9.85266H53.1909L49.7184 19.5756C49.5566 20.0348 49.342 20.4282 49.0747 20.7557C48.8075 21.0869 48.48 21.3391 48.0923 21.5123C47.7083 21.6892 47.2491 21.7777 46.7146 21.7777ZM54.6053 18.5254V9.85266H61.9286V18.5254H59.958V11.5296H56.5589V18.5254H54.6053ZM67.8699 18.6948C67.0003 18.6948 66.2494 18.5141 65.617 18.1527C64.9884 17.7876 64.5047 17.2719 64.1659 16.6056C63.8271 15.9356 63.6577 15.147 63.6577 14.2398C63.6577 13.3477 63.8271 12.5648 64.1659 11.891C64.5084 11.2134 64.9865 10.6864 65.6001 10.31C66.2136 9.92983 66.9345 9.73974 67.7626 9.73974C68.2971 9.73974 68.8015 9.82631 69.2758 9.99947C69.7539 10.1689 70.1755 10.4324 70.5406 10.79C70.9095 11.1475 71.1993 11.603 71.4101 12.1564C71.6209 12.7059 71.7263 13.3609 71.7263 14.1213V14.748H64.6176V13.3703H69.767C69.7633 12.9788 69.6786 12.6306 69.513 12.3257C69.3473 12.0171 69.1158 11.7743 68.8185 11.5974C68.5248 11.4205 68.1823 11.332 67.7908 11.332C67.373 11.332 67.006 11.4336 66.6898 11.6369C66.3736 11.8364 66.1271 12.0999 65.9501 12.4274C65.777 12.7511 65.6885 13.1068 65.6848 13.4945V14.6972C65.6848 15.2016 65.777 15.6345 65.9614 15.9958C66.1459 16.3534 66.4037 16.6282 66.735 16.8202C67.0662 17.0084 67.4539 17.1025 67.8981 17.1025C68.1955 17.1025 68.4646 17.0611 68.7055 16.9783C68.9464 16.8917 69.1554 16.7656 69.3323 16.6C69.5092 16.4344 69.6428 16.2292 69.7332 15.9846L71.6416 16.1991C71.5212 16.7035 71.2915 17.1439 70.9528 17.5203C70.6177 17.893 70.1886 18.1828 69.6654 18.3899C69.1422 18.5931 68.5437 18.6948 67.8699 18.6948ZM73.4555 21.7777V9.85266H75.4656V11.2868H75.5841C75.6895 11.076 75.8382 10.8521 76.0302 10.6149C76.2222 10.374 76.4819 10.1689 76.8094 9.99947C77.1369 9.82631 77.5547 9.73974 78.0629 9.73974C78.7329 9.73974 79.3371 9.91101 79.8753 10.2536C80.4174 10.5923 80.8465 11.0949 81.1627 11.7611C81.4827 12.4236 81.6426 13.2367 81.6426 14.2003C81.6426 15.1527 81.4864 15.962 81.174 16.6282C80.8616 17.2945 80.4362 17.8027 79.8979 18.1527C79.3596 18.5028 78.7498 18.6778 78.0685 18.6778C77.5716 18.6778 77.1595 18.595 76.832 18.4294C76.5045 18.2638 76.241 18.0643 76.0415 17.8309C75.8458 17.5937 75.6933 17.3698 75.5841 17.159H75.4994V21.7777H73.4555ZM75.4599 14.189C75.4599 14.7499 75.539 15.2411 75.6971 15.6627C75.8589 16.0843 76.0904 16.4137 76.3916 16.6508C76.6965 16.8842 77.0654 17.0009 77.4982 17.0009C77.9499 17.0009 78.3282 16.8804 78.6331 16.6395C78.9381 16.3949 79.1677 16.0617 79.322 15.6401C79.4801 15.2148 79.5591 14.7311 79.5591 14.189C79.5591 13.6507 79.482 13.1727 79.3276 12.7549C79.1733 12.337 78.9437 12.0096 78.6388 11.7724C78.3339 11.5353 77.9537 11.4167 77.4982 11.4167C77.0616 11.4167 76.6908 11.5315 76.3859 11.7611C76.081 11.9907 75.8495 12.3126 75.6914 12.7266C75.5371 13.1407 75.4599 13.6282 75.4599 14.189ZM93.7116 10.1406C93.6589 9.64751 93.4368 9.26357 93.0453 8.98878C92.6576 8.71399 92.1532 8.5766 91.5321 8.5766C91.0955 8.5766 90.7209 8.64247 90.4085 8.77422C90.0961 8.90597 89.8571 9.08477 89.6914 9.31062C89.5258 9.53647 89.4411 9.79432 89.4374 10.0842C89.4374 10.3251 89.4919 10.534 89.6011 10.7109C89.714 10.8878 89.8665 11.0384 90.0584 11.1626C90.2504 11.2831 90.4631 11.3847 90.6965 11.4675C90.9299 11.5503 91.1651 11.62 91.4023 11.6764L92.4864 11.9474C92.923 12.0491 93.3427 12.1865 93.7455 12.3596C94.152 12.5328 94.5153 12.7511 94.8352 13.0146C95.1589 13.2781 95.4149 13.5962 95.6031 13.9688C95.7913 14.3415 95.8854 14.7781 95.8854 15.2788C95.8854 15.9563 95.7123 16.5529 95.366 17.0686C95.0197 17.5806 94.519 17.9815 93.8641 18.2713C93.2129 18.5574 92.4243 18.7004 91.4983 18.7004C90.5986 18.7004 89.8175 18.5612 89.155 18.2826C88.4963 18.004 87.9806 17.5975 87.608 17.063C87.2391 16.5285 87.0396 15.8773 87.0094 15.1094H89.0703C89.1005 15.5121 89.2247 15.8472 89.443 16.1144C89.6613 16.3817 89.9455 16.5812 90.2956 16.7129C90.6494 16.8447 91.0447 16.9105 91.4813 16.9105C91.9368 16.9105 92.3358 16.8428 92.6783 16.7073C93.0246 16.568 93.2957 16.376 93.4914 16.1314C93.6871 15.8829 93.7869 15.5931 93.7907 15.2618C93.7869 14.9607 93.6984 14.7123 93.5253 14.5165C93.3521 14.317 93.1093 14.1514 92.7969 14.0196C92.4882 13.8841 92.1269 13.7637 91.7128 13.6583L90.3972 13.3195C89.4449 13.0748 88.692 12.704 88.1387 12.2072C87.5891 11.7065 87.3143 11.0422 87.3143 10.214C87.3143 9.53271 87.4988 8.93608 87.8677 8.42415C88.2403 7.91222 88.7466 7.51509 89.3865 7.23278C90.0265 6.9467 90.7511 6.80366 91.5604 6.80366C92.381 6.80366 93.0999 6.9467 93.7173 7.23278C94.3384 7.51509 94.8258 7.90845 95.1796 8.41285C95.5335 8.91349 95.716 9.48942 95.7273 10.1406H93.7116ZM103.19 14.8779V9.85266H105.234V18.5254H103.252V16.9839H103.162C102.966 17.4695 102.645 17.8667 102.197 18.1753C101.752 18.484 101.205 18.6383 100.554 18.6383C99.9851 18.6383 99.4826 18.5122 99.046 18.26C98.6131 18.004 98.2743 17.6333 98.0296 17.1477C97.785 16.6583 97.6626 16.0674 97.6626 15.3748V9.85266H99.7066V15.0586C99.7066 15.6081 99.8571 16.0448 100.158 16.3685C100.459 16.6922 100.855 16.8541 101.344 16.8541C101.645 16.8541 101.937 16.7807 102.219 16.6339C102.502 16.4871 102.733 16.2688 102.914 15.9789C103.098 15.6853 103.19 15.3183 103.19 14.8779ZM107.426 18.5254V6.96175H109.47V11.2868H109.555C109.661 11.076 109.809 10.8521 110.001 10.6149C110.193 10.374 110.453 10.1689 110.78 9.99947C111.108 9.82631 111.526 9.73974 112.034 9.73974C112.704 9.73974 113.308 9.91101 113.846 10.2536C114.388 10.5923 114.818 11.0949 115.134 11.7611C115.454 12.4236 115.614 13.2367 115.614 14.2003C115.614 15.1527 115.457 15.962 115.145 16.6282C114.833 17.2945 114.407 17.8027 113.869 18.1527C113.331 18.5028 112.721 18.6778 112.04 18.6778C111.543 18.6778 111.13 18.595 110.803 18.4294C110.475 18.2638 110.212 18.0643 110.012 17.8309C109.817 17.5937 109.664 17.3698 109.555 17.159H109.437V18.5254H107.426ZM109.431 14.189C109.431 14.7499 109.51 15.2411 109.668 15.6627C109.83 16.0843 110.061 16.4137 110.363 16.6508C110.667 16.8842 111.036 17.0009 111.469 17.0009C111.921 17.0009 112.299 16.8804 112.604 16.6395C112.909 16.3949 113.139 16.0617 113.293 15.6401C113.451 15.2148 113.53 14.7311 113.53 14.189C113.53 13.6507 113.453 13.1727 113.299 12.7549C113.144 12.337 112.915 12.0096 112.61 11.7724C112.305 11.5353 111.925 11.4167 111.469 11.4167C111.033 11.4167 110.662 11.5315 110.357 11.7611C110.052 11.9907 109.821 12.3126 109.662 12.7266C109.508 13.1407 109.431 13.6282 109.431 14.189ZM124.206 12.1451L122.343 12.3483C122.29 12.1601 122.198 11.9832 122.066 11.8176C121.938 11.652 121.765 11.5183 121.546 11.4167C121.328 11.3151 121.061 11.2642 120.745 11.2642C120.319 11.2642 119.962 11.3565 119.672 11.5409C119.386 11.7254 119.245 11.9644 119.248 12.258C119.245 12.5102 119.337 12.7153 119.525 12.8734C119.717 13.0315 120.033 13.1614 120.474 13.263L121.953 13.5792C122.774 13.7561 123.383 14.0366 123.782 14.4205C124.185 14.8045 124.388 15.307 124.392 15.9281C124.388 16.4739 124.228 16.9557 123.912 17.3735C123.6 17.7876 123.165 18.1113 122.608 18.3447C122.051 18.5781 121.411 18.6948 120.688 18.6948C119.627 18.6948 118.772 18.4727 118.125 18.0285C117.477 17.5806 117.092 16.9576 116.967 16.1596L118.96 15.9676C119.051 16.3591 119.243 16.6546 119.536 16.8541C119.83 17.0536 120.212 17.1533 120.683 17.1533C121.168 17.1533 121.558 17.0536 121.851 16.8541C122.149 16.6546 122.297 16.408 122.297 16.1144C122.297 15.866 122.201 15.6608 122.009 15.499C121.821 15.3371 121.528 15.2129 121.129 15.1263L119.649 14.8158C118.817 14.6426 118.202 14.3509 117.803 13.9406C117.404 13.5265 117.206 13.0033 117.21 12.3709C117.206 11.8364 117.351 11.3734 117.645 10.9819C117.942 10.5867 118.354 10.2818 118.881 10.0672C119.412 9.8489 120.024 9.73974 120.716 9.73974C121.733 9.73974 122.533 9.95618 123.116 10.3891C123.703 10.8219 124.067 11.4073 124.206 12.1451ZM130.408 9.85266V11.4336H125.423V9.85266H130.408ZM126.654 7.77482H128.698V15.9168C128.698 16.1916 128.739 16.4024 128.822 16.5492C128.908 16.6922 129.021 16.7901 129.161 16.8428C129.3 16.8955 129.454 16.9218 129.624 16.9218C129.752 16.9218 129.868 16.9124 129.974 16.8936C130.083 16.8748 130.166 16.8578 130.222 16.8428L130.566 18.4407C130.457 18.4783 130.301 18.5197 130.098 18.5649C129.898 18.6101 129.654 18.6364 129.364 18.644C128.852 18.659 128.391 18.5819 127.98 18.4125C127.57 18.2393 127.245 17.9721 127.004 17.6107C126.767 17.2493 126.65 16.7976 126.654 16.2556V7.77482ZM134.613 18.7004C134.064 18.7004 133.569 18.6026 133.128 18.4068C132.692 18.2073 132.346 17.9137 132.09 17.526C131.837 17.1383 131.711 16.6602 131.711 16.0918C131.711 15.6025 131.802 15.1978 131.982 14.8779C132.163 14.5579 132.41 14.302 132.722 14.11C133.034 13.918 133.386 13.7731 133.778 13.6752C134.173 13.5736 134.581 13.5002 135.003 13.455C135.511 13.4023 135.923 13.3553 136.24 13.3138C136.556 13.2687 136.785 13.2009 136.928 13.1106C137.075 13.0165 137.149 12.8716 137.149 12.6758V12.6419C137.149 12.2166 137.023 11.8872 136.77 11.6538C136.518 11.4205 136.155 11.3038 135.681 11.3038C135.18 11.3038 134.783 11.4129 134.489 11.6313C134.199 11.8496 134.004 12.1074 133.902 12.4048L131.994 12.1338C132.144 11.6068 132.393 11.1664 132.739 10.8125C133.085 10.4549 133.509 10.1877 134.009 10.0108C134.51 9.83008 135.063 9.73974 135.669 9.73974C136.087 9.73974 136.503 9.78867 136.917 9.88654C137.331 9.98441 137.71 10.1463 138.052 10.3721C138.395 10.5942 138.669 10.8972 138.876 11.2812C139.087 11.6651 139.193 12.1451 139.193 12.721V18.5254H137.228V17.334H137.16C137.036 17.5749 136.861 17.8008 136.635 18.0116C136.413 18.2186 136.132 18.3861 135.794 18.5141C135.459 18.6383 135.065 18.7004 134.613 18.7004ZM135.144 17.1985C135.555 17.1985 135.91 17.1176 136.211 16.9557C136.512 16.7901 136.744 16.5718 136.906 16.3007C137.071 16.0297 137.154 15.7342 137.154 15.4143V14.3923C137.09 14.445 136.981 14.4939 136.827 14.5391C136.676 14.5843 136.507 14.6238 136.319 14.6577C136.13 14.6915 135.944 14.7217 135.76 14.748C135.575 14.7744 135.415 14.7969 135.28 14.8158C134.975 14.8572 134.702 14.9249 134.461 15.019C134.22 15.1131 134.03 15.2449 133.891 15.4143C133.751 15.5799 133.682 15.7945 133.682 16.058C133.682 16.4344 133.819 16.7186 134.094 16.9105C134.369 17.1025 134.719 17.1985 135.144 17.1985ZM143.292 13.4437V18.5254H141.248V9.85266H143.201V11.3263H143.303C143.503 10.8408 143.821 10.4549 144.257 10.1689C144.698 9.88278 145.242 9.73974 145.889 9.73974C146.488 9.73974 147.009 9.86772 147.453 10.1237C147.901 10.3797 148.247 10.7504 148.492 11.236C148.741 11.7216 148.863 12.3107 148.859 13.0033V18.5254H146.815V13.3195C146.815 12.7398 146.665 12.2862 146.363 11.9587C146.066 11.6312 145.654 11.4675 145.127 11.4675C144.769 11.4675 144.451 11.5466 144.173 11.7047C143.898 11.859 143.681 12.083 143.523 12.3766C143.369 12.6702 143.292 13.0259 143.292 13.4437ZM154.72 18.6948C153.854 18.6948 153.111 18.5047 152.49 18.1245C151.872 17.7443 151.396 17.2192 151.061 16.5492C150.73 15.8754 150.564 15.1 150.564 14.2229C150.564 13.3421 150.734 12.5648 151.072 11.891C151.411 11.2134 151.889 10.6864 152.507 10.31C153.128 9.92983 153.862 9.73974 154.709 9.73974C155.413 9.73974 156.036 9.8696 156.578 10.1293C157.123 10.3853 157.558 10.7485 157.882 11.2191C158.206 11.6858 158.39 12.2316 158.435 12.8565H156.482C156.403 12.4387 156.214 12.0905 155.917 11.8119C155.623 11.5296 155.23 11.3885 154.737 11.3885C154.319 11.3885 153.952 11.5014 153.636 11.7272C153.32 11.9493 153.073 12.2693 152.896 12.6871C152.723 13.1049 152.636 13.6056 152.636 14.189C152.636 14.78 152.723 15.2882 152.896 15.7135C153.069 16.1351 153.312 16.4607 153.625 16.6903C153.941 16.9162 154.312 17.0291 154.737 17.0291C155.038 17.0291 155.307 16.9727 155.544 16.8597C155.785 16.743 155.987 16.5755 156.148 16.3572C156.31 16.1389 156.421 15.8735 156.482 15.5611H158.435C158.386 16.1746 158.206 16.7186 157.893 17.1929C157.581 17.6634 157.155 18.0323 156.617 18.2995C156.079 18.563 155.446 18.6948 154.72 18.6948ZM163.953 18.6948C163.084 18.6948 162.333 18.5141 161.7 18.1527C161.072 17.7876 160.588 17.2719 160.249 16.6056C159.91 15.9356 159.741 15.147 159.741 14.2398C159.741 13.3477 159.91 12.5648 160.249 11.891C160.592 11.2134 161.07 10.6864 161.683 10.31C162.297 9.92983 163.018 9.73974 163.846 9.73974C164.38 9.73974 164.885 9.82631 165.359 9.99947C165.837 10.1689 166.259 10.4324 166.624 10.79C166.993 11.1475 167.283 11.603 167.493 12.1564C167.704 12.7059 167.81 13.3609 167.81 14.1213V14.748H160.701V13.3703H165.85C165.846 12.9788 165.762 12.6306 165.596 12.3257C165.431 12.0171 165.199 11.7743 164.902 11.5974C164.608 11.4205 164.266 11.332 163.874 11.332C163.456 11.332 163.089 11.4336 162.773 11.6369C162.457 11.8364 162.21 12.0999 162.033 12.4274C161.86 12.7511 161.772 13.1068 161.768 13.4945V14.6972C161.768 15.2016 161.86 15.6345 162.045 15.9958C162.229 16.3534 162.487 16.6282 162.818 16.8202C163.149 17.0084 163.537 17.1025 163.981 17.1025C164.279 17.1025 164.548 17.0611 164.789 16.9783C165.03 16.8917 165.239 16.7656 165.415 16.6C165.592 16.4344 165.726 16.2292 165.816 15.9846L167.725 16.1991C167.604 16.7035 167.375 17.1439 167.036 17.5203C166.701 17.893 166.272 18.1828 165.749 18.3899C165.225 18.5931 164.627 18.6948 163.953 18.6948Z" fill="#1E1F24"/>
<defs>
<clipPath id="clip0_1_882">
<rect width="310" height="24" fill="white" transform="translate(0.5 0.525391)"/>
</clipPath>
<clipPath id="clip1_1_882">
<rect width="24" height="24" fill="white" transform="translate(0.5 0.525391)"/>
</clipPath>
</defs>
</svg>
