<svg width="311" height="25" viewBox="0 0 311 25" fill="none" xmlns="http://www.w3.org/2000/svg">
<g clip-path="url(#clip0_1_1134)">
<g clip-path="url(#clip1_1_1134)">
<path d="M0.5 4.73441C0.5 2.52525 2.29088 0.734375 4.50004 0.734375H8.50007V8.73444H4.50003C2.29087 8.73444 0.5 6.94357 0.5 4.73441Z" fill="#F24E1E"/>
<path d="M0.5 12.7354C0.5 10.5262 2.29088 8.73535 4.50004 8.73535H8.50007V16.7355H4.50003C2.29087 16.7355 0.5 14.9446 0.5 12.7354Z" fill="#A259FF"/>
<path d="M0.5 20.7344C0.5 18.5253 2.29088 16.7344 4.50004 16.7344H8.50007V21.069C8.50007 23.0934 6.859 24.7345 4.83464 24.7345H4.50003C2.29087 24.7345 0.5 22.9436 0.5 20.7344Z" fill="#0ACF83"/>
<path d="M16.5 4.73441C16.5 2.52525 14.7091 0.734375 12.5 0.734375H8.49994V8.73444H12.5C14.7091 8.73444 16.5 6.94357 16.5 4.73441Z" fill="#FF7262"/>
<path d="M16.5 12.7354C16.5 10.5262 14.7091 8.73535 12.5 8.73535C10.2908 8.73535 8.49994 10.5262 8.49994 12.7354C8.49994 14.9446 10.2908 16.7355 12.5 16.7355C14.7091 16.7355 16.5 14.9446 16.5 12.7354Z" fill="#1ABCFE"/>
</g>
</g>
<path d="M43.5385 11.0723H41.4268C41.3666 10.726 41.2555 10.4192 41.0937 10.152C40.9318 9.88097 40.7304 9.65135 40.4895 9.46314C40.2486 9.27493 39.9738 9.13377 39.6652 9.03967C39.3603 8.9418 39.0309 8.89286 38.6771 8.89286C38.0484 8.89286 37.4913 9.05096 37.0058 9.36715C36.5202 9.67958 36.14 10.1388 35.8652 10.7449C35.5904 11.3471 35.453 12.083 35.453 12.9526C35.453 13.8371 35.5904 14.5825 35.8652 15.1885C36.1437 15.7908 36.5239 16.2462 37.0058 16.5549C37.4913 16.8598 38.0466 17.0123 38.6714 17.0123C39.0177 17.0123 39.3414 16.9671 39.6426 16.8767C39.9475 16.7826 40.2204 16.6452 40.4613 16.4646C40.706 16.2839 40.9111 16.0618 41.0767 15.7983C41.2461 15.5348 41.3628 15.2337 41.4268 14.8949L43.5385 14.9062C43.4595 15.4558 43.2882 15.9714 43.0247 16.4533C42.765 16.9351 42.4243 17.3604 42.0027 17.7293C41.5811 18.0945 41.088 18.3805 40.5234 18.5876C39.9588 18.7908 39.332 18.8925 38.6432 18.8925C37.6268 18.8925 36.7197 18.6572 35.9217 18.1867C35.1237 17.7162 34.495 17.0367 34.0358 16.1484C33.5766 15.26 33.3469 14.1947 33.3469 12.9526C33.3469 11.7066 33.5784 10.6413 34.0414 9.75675C34.5044 8.8684 35.1349 8.18896 35.933 7.71843C36.731 7.2479 37.6344 7.01264 38.6432 7.01264C39.2869 7.01264 39.8854 7.10298 40.4387 7.28366C40.992 7.46435 41.4852 7.72972 41.918 8.07979C42.3509 8.4261 42.7066 8.85146 42.9852 9.35586C43.2675 9.8565 43.452 10.4287 43.5385 11.0723ZM46.7146 21.9866C46.436 21.9866 46.1782 21.9641 45.941 21.9189C45.7077 21.8775 45.5213 21.8286 45.382 21.7721L45.8563 20.1798C46.1537 20.2664 46.4191 20.3078 46.6525 20.304C46.8858 20.3003 47.091 20.2269 47.2679 20.0838C47.4486 19.9446 47.601 19.7112 47.7253 19.3837L47.9003 18.9151L44.7553 10.0616H46.9235L48.9223 16.6114H49.0126L51.0171 10.0616H53.1909L49.7184 19.7846C49.5566 20.2438 49.342 20.6372 49.0747 20.9647C48.8075 21.2959 48.48 21.5481 48.0923 21.7213C47.7083 21.8982 47.2491 21.9866 46.7146 21.9866ZM54.6053 18.7344V10.0616H61.9286V18.7344H59.958V11.7386H56.5589V18.7344H54.6053ZM67.8699 18.9038C67.0003 18.9038 66.2494 18.7231 65.617 18.3617C64.9884 17.9966 64.5047 17.4809 64.1659 16.8146C63.8271 16.1446 63.6577 15.356 63.6577 14.4488C63.6577 13.5567 63.8271 12.7738 64.1659 12.1C64.5084 11.4224 64.9865 10.8954 65.6001 10.519C66.2136 10.1388 66.9345 9.94872 67.7626 9.94872C68.2971 9.94872 68.8015 10.0353 69.2758 10.2085C69.7539 10.3778 70.1755 10.6413 70.5406 10.9989C70.9095 11.3565 71.1993 11.812 71.4101 12.3653C71.6209 12.9149 71.7263 13.5699 71.7263 14.3303V14.957H64.6176V13.5793H69.767C69.7633 13.1878 69.6786 12.8396 69.513 12.5347C69.3473 12.2261 69.1158 11.9833 68.8185 11.8064C68.5248 11.6294 68.1823 11.541 67.7908 11.541C67.373 11.541 67.006 11.6426 66.6898 11.8459C66.3736 12.0454 66.1271 12.3089 65.9501 12.6364C65.777 12.9601 65.6885 13.3158 65.6848 13.7035V14.9062C65.6848 15.4106 65.777 15.8435 65.9614 16.2048C66.1459 16.5624 66.4037 16.8372 66.735 17.0292C67.0662 17.2174 67.4539 17.3115 67.8981 17.3115C68.1955 17.3115 68.4646 17.2701 68.7055 17.1873C68.9464 17.1007 69.1554 16.9746 69.3323 16.809C69.5092 16.6434 69.6428 16.4382 69.7332 16.1935L71.6416 16.4081C71.5212 16.9125 71.2915 17.3529 70.9528 17.7293C70.6177 18.102 70.1886 18.3918 69.6654 18.5989C69.1422 18.8021 68.5437 18.9038 67.8699 18.9038ZM73.4555 21.9866V10.0616H75.4656V11.4958H75.5841C75.6895 11.285 75.8382 11.061 76.0302 10.8239C76.2222 10.583 76.4819 10.3778 76.8094 10.2085C77.1369 10.0353 77.5547 9.94872 78.0629 9.94872C78.7329 9.94872 79.3371 10.12 79.8753 10.4625C80.4174 10.8013 80.8465 11.3038 81.1627 11.9701C81.4827 12.6326 81.6426 13.4457 81.6426 14.4093C81.6426 15.3616 81.4864 16.171 81.174 16.8372C80.8616 17.5035 80.4362 18.0116 79.8979 18.3617C79.3596 18.7118 78.7498 18.8868 78.0685 18.8868C77.5716 18.8868 77.1595 18.804 76.832 18.6384C76.5045 18.4728 76.241 18.2733 76.0415 18.0399C75.8458 17.8027 75.6933 17.5788 75.5841 17.368H75.4994V21.9866H73.4555ZM75.4599 14.398C75.4599 14.9589 75.539 15.4501 75.6971 15.8717C75.8589 16.2933 76.0904 16.6227 76.3916 16.8598C76.6965 17.0932 77.0654 17.2099 77.4982 17.2099C77.9499 17.2099 78.3282 17.0894 78.6331 16.8485C78.9381 16.6038 79.1677 16.2707 79.322 15.8491C79.4801 15.4238 79.5591 14.9401 79.5591 14.398C79.5591 13.8597 79.482 13.3817 79.3276 12.9638C79.1733 12.546 78.9437 12.2185 78.6388 11.9814C78.3339 11.7442 77.9537 11.6257 77.4982 11.6257C77.0616 11.6257 76.6908 11.7405 76.3859 11.9701C76.081 12.1997 75.8495 12.5216 75.6914 12.9356C75.5371 13.3497 75.4599 13.8371 75.4599 14.398ZM87.4273 18.7344V7.17074H94.8352V8.92674H89.5221V12.0661H94.3271V13.8221H89.5221V18.7344H87.4273ZM96.6533 18.7344V10.0616H98.6973V18.7344H96.6533ZM97.681 8.83075C97.3572 8.83075 97.0787 8.72347 96.8453 8.50891C96.6119 8.29059 96.4952 8.02898 96.4952 7.72408C96.4952 7.41541 96.6119 7.1538 96.8453 6.93924C97.0787 6.72092 97.3572 6.61175 97.681 6.61175C98.0084 6.61175 98.287 6.72092 98.5166 6.93924C98.75 7.1538 98.8667 7.41541 98.8667 7.72408C98.8667 8.02898 98.75 8.29059 98.5166 8.50891C98.287 8.72347 98.0084 8.83075 97.681 8.83075ZM104.571 22.1673C103.837 22.1673 103.206 22.0676 102.679 21.8681C102.152 21.6723 101.729 21.4088 101.409 21.0776C101.089 20.7463 100.867 20.3793 100.743 19.9766L102.583 19.5305C102.666 19.6999 102.787 19.8674 102.945 20.033C103.103 20.2024 103.316 20.3417 103.583 20.4509C103.854 20.5638 104.194 20.6202 104.605 20.6202C105.184 20.6202 105.664 20.4791 106.045 20.1968C106.425 19.9182 106.615 19.459 106.615 18.8191V17.176H106.513C106.408 17.3868 106.253 17.6032 106.05 17.8253C105.851 18.0474 105.585 18.2337 105.254 18.3843C104.927 18.5349 104.514 18.6102 104.018 18.6102C103.351 18.6102 102.747 18.4539 102.205 18.1415C101.667 17.8253 101.238 17.3548 100.918 16.7299C100.602 16.1013 100.443 15.3146 100.443 14.3698C100.443 13.4174 100.602 12.6138 100.918 11.9588C101.238 11.3001 101.669 10.8013 102.211 10.4625C102.753 10.12 103.357 9.94872 104.023 9.94872C104.531 9.94872 104.949 10.0353 105.277 10.2085C105.608 10.3778 105.871 10.583 106.067 10.8239C106.263 11.061 106.412 11.285 106.513 11.4958H106.626V10.0616H108.642V18.8755C108.642 19.6171 108.465 20.2306 108.111 20.7162C107.757 21.2018 107.274 21.5651 106.66 21.806C106.046 22.0469 105.35 22.1673 104.571 22.1673ZM104.588 17.0066C105.021 17.0066 105.39 16.9012 105.694 16.6904C105.999 16.4796 106.231 16.1766 106.389 15.7814C106.547 15.3861 106.626 14.9118 106.626 14.3585C106.626 13.8127 106.547 13.3346 106.389 12.9243C106.235 12.514 106.005 12.196 105.7 11.9701C105.399 11.7405 105.028 11.6257 104.588 11.6257C104.132 11.6257 103.752 11.7442 103.447 11.9814C103.142 12.2185 102.913 12.5441 102.758 12.9582C102.604 13.3685 102.527 13.8353 102.527 14.3585C102.527 14.8892 102.604 15.3541 102.758 15.7531C102.917 16.1484 103.148 16.457 103.453 16.6791C103.762 16.8974 104.14 17.0066 104.588 17.0066ZM110.737 18.7344V10.0616H112.69V11.5353H112.792C112.973 11.0385 113.272 10.6507 113.69 10.3722C114.107 10.0899 114.606 9.94872 115.186 9.94872C115.773 9.94872 116.268 10.0918 116.671 10.3778C117.077 10.6602 117.364 11.046 117.529 11.5353H117.619C117.811 11.0535 118.135 10.6696 118.591 10.3835C119.05 10.0936 119.594 9.94872 120.222 9.94872C121.02 9.94872 121.672 10.2009 122.176 10.7053C122.68 11.2097 122.933 11.9456 122.933 12.913V18.7344H120.883V13.2292C120.883 12.6909 120.74 12.2976 120.454 12.0491C120.168 11.7969 119.818 11.6708 119.404 11.6708C118.911 11.6708 118.525 11.8252 118.246 12.1338C117.971 12.4387 117.834 12.8359 117.834 13.3252V18.7344H115.83V13.1445C115.83 12.6966 115.694 12.339 115.423 12.0717C115.156 11.8045 114.806 11.6708 114.373 11.6708C114.079 11.6708 113.812 11.7461 113.571 11.8967C113.33 12.0435 113.138 12.2524 112.995 12.5234C112.852 12.7907 112.781 13.1031 112.781 13.4607V18.7344H110.737ZM127.502 18.9094C126.952 18.9094 126.457 18.8115 126.017 18.6158C125.58 18.4163 125.234 18.1227 124.978 17.735C124.726 17.3473 124.6 16.8692 124.6 16.3008C124.6 15.8115 124.69 15.4068 124.871 15.0869C125.051 14.7669 125.298 14.5109 125.61 14.319C125.923 14.127 126.275 13.9821 126.666 13.8842C127.062 13.7826 127.47 13.7092 127.892 13.664C128.4 13.6113 128.812 13.5642 129.128 13.5228C129.444 13.4777 129.674 13.4099 129.817 13.3196C129.964 13.2255 130.037 13.0805 130.037 12.8848V12.8509C130.037 12.4256 129.911 12.0962 129.659 11.8628C129.407 11.6294 129.043 11.5127 128.569 11.5127C128.068 11.5127 127.671 11.6219 127.378 11.8402C127.088 12.0586 126.892 12.3164 126.791 12.6138L124.882 12.3428C125.033 11.8158 125.281 11.3754 125.627 11.0215C125.974 10.6639 126.397 10.3967 126.898 10.2197C127.398 10.0391 127.952 9.94872 128.558 9.94872C128.976 9.94872 129.392 9.99766 129.806 10.0955C130.22 10.1934 130.598 10.3553 130.941 10.5811C131.283 10.8032 131.558 11.1062 131.765 11.4902C131.976 11.8741 132.081 12.354 132.081 12.93V18.7344H130.116V17.543H130.048C129.924 17.7839 129.749 18.0098 129.523 18.2206C129.301 18.4276 129.021 18.5951 128.682 18.7231C128.347 18.8473 127.954 18.9094 127.502 18.9094ZM128.033 17.4075C128.443 17.4075 128.799 17.3266 129.1 17.1647C129.401 16.9991 129.632 16.7808 129.794 16.5097C129.96 16.2387 130.043 15.9432 130.043 15.6233V14.6013C129.979 14.654 129.87 14.7029 129.715 14.7481C129.565 14.7933 129.395 14.8328 129.207 14.8667C129.019 14.9005 128.833 14.9306 128.648 14.957C128.464 14.9833 128.304 15.0059 128.168 15.0248C127.863 15.0662 127.59 15.1339 127.349 15.228C127.109 15.3221 126.918 15.4539 126.779 15.6233C126.64 15.7889 126.57 16.0034 126.57 16.2669C126.57 16.6434 126.708 16.9276 126.982 17.1195C127.257 17.3115 127.607 17.4075 128.033 17.4075Z" fill="#1E1F24"/>
<defs>
<clipPath id="clip0_1_1134">
<rect width="310" height="24" fill="white" transform="translate(0.5 0.734375)"/>
</clipPath>
<clipPath id="clip1_1_1134">
<rect width="16" height="24" fill="white" transform="translate(0.5 0.734375)"/>
</clipPath>
</defs>
</svg>
