<svg width="41" height="41" viewBox="0 0 41 41" fill="none" xmlns="http://www.w3.org/2000/svg">
<path d="M34.5 0.84375H6.5C4.9087 0.84375 3.38258 1.47589 2.25736 2.60111C1.13214 3.72633 0.5 5.25245 0.5 6.84375V26.8438C0.5 28.4351 1.13214 29.9611 2.25736 31.0863C3.38258 32.2116 4.9087 32.8438 6.5 32.8438H29.68L37.08 40.2637C37.2669 40.4491 37.4885 40.5958 37.7322 40.6953C37.9759 40.7949 38.2368 40.8452 38.5 40.8438C38.7624 40.8506 39.0226 40.7957 39.26 40.6838C39.6252 40.5337 39.9379 40.2789 40.1586 39.9515C40.3792 39.6241 40.498 39.2385 40.5 38.8438V6.84375C40.5 5.25245 39.8679 3.72633 38.7426 2.60111C37.6174 1.47589 36.0913 0.84375 34.5 0.84375ZM8.04 28.8438H6.5C5.96957 28.8438 5.46086 28.633 5.08579 28.2579C4.71071 27.8829 4.5 27.3741 4.5 26.8438V26.0037L11.1 19.4237C11.4747 19.0513 11.9816 18.8421 12.51 18.8421C13.0384 18.8421 13.5453 19.0513 13.92 19.4237L15.66 21.1637L8.04 28.8438ZM36.5 34.0238L31.92 29.4238C31.7331 29.2384 31.5115 29.0917 31.2678 28.9922C31.0241 28.8926 30.7632 28.8423 30.5 28.8438H13.68L27.1 15.4237C27.4739 15.0573 27.9765 14.8521 28.5 14.8521C29.0235 14.8521 29.5261 15.0573 29.9 15.4237L36.5 22.0037V34.0238ZM36.5 16.3638L32.74 12.6237C31.615 11.5001 30.09 10.8691 28.5 10.8691C26.91 10.8691 25.385 11.5001 24.26 12.6237L18.5 18.3638L16.74 16.6238C15.6001 15.5287 14.0807 14.917 12.5 14.917C10.9193 14.917 9.3999 15.5287 8.26 16.6238L4.5 20.3638V6.84375C4.5 6.31332 4.71071 5.80461 5.08579 5.42954C5.46086 5.05446 5.96957 4.84375 6.5 4.84375H34.5C35.0304 4.84375 35.5391 5.05446 35.9142 5.42954C36.2893 5.80461 36.5 6.31332 36.5 6.84375V16.3638Z" fill="#1D6CE3"/>
</svg>
