<svg width="21" height="17" viewBox="0 0 21 17" fill="none" xmlns="http://www.w3.org/2000/svg">
<path d="M6.91576 10.5452C6.92035 10.8063 7.0036 11.3136 7.12847 11.7097C7.39093 12.5482 7.83611 13.3239 8.45556 14.0076C9.09124 14.7103 9.87402 15.2747 10.7781 15.6754C11.7285 16.0963 12.7582 16.3108 13.8277 16.309C14.8956 16.3076 15.9253 16.0889 16.8756 15.6649C17.7797 15.2602 18.5618 14.6934 19.1964 13.9903C19.8155 13.3038 20.26 12.5267 20.5232 11.6882C20.6554 11.2645 20.7391 10.8345 20.7726 10.4031C20.8054 9.978 20.7916 9.5522 20.7313 9.1268C20.6135 8.2978 20.3267 7.51995 19.885 6.8109C19.4811 6.15935 18.9604 5.58895 18.3413 5.10884L18.3427 5.10777L12.095 0.310567C12.0893 0.306338 12.0848 0.301757 12.0788 0.297877C11.6688 -0.0167826 10.9796 -0.0157225 10.5287 0.299647C10.073 0.618537 10.0208 1.14591 10.4264 1.47857L10.4247 1.48033L13.0305 3.59936L5.0881 3.60784H5.07752C4.42103 3.60854 3.78994 4.03926 3.66507 4.58357C3.53666 5.13811 3.98255 5.59811 4.66514 5.60058L4.66409 5.60306L8.68979 5.59529L1.50616 11.1093C1.49699 11.116 1.48711 11.1231 1.47864 11.1298C0.800988 11.6487 0.581928 12.5115 1.00877 13.0576C1.44196 13.6128 2.36302 13.6139 3.04773 13.0608L6.96832 9.8521C6.96832 9.8521 6.91117 10.2852 6.91576 10.5452ZM16.9903 11.9958C16.1824 12.8188 15.0515 13.2855 13.8277 13.288C12.6023 13.2901 11.4713 12.8276 10.6635 12.006C10.2688 11.6056 9.97879 11.1449 9.79994 10.6542C9.62461 10.172 9.55653 9.6602 9.60169 9.1437C9.64437 8.6389 9.79465 8.1574 10.0345 7.7217C10.2702 7.29348 10.5947 6.90651 10.9954 6.57915C11.7807 5.93924 12.7804 5.59282 13.826 5.59141C14.8726 5.59 15.8716 5.93324 16.6576 6.57103C17.0576 6.89698 17.3818 7.28255 17.6175 7.7101C17.8584 8.1454 18.0076 8.6252 18.0521 9.1314C18.0965 9.6471 18.0284 10.1583 17.8531 10.6408C17.6739 11.1329 17.385 11.5936 16.9903 11.9958Z" fill="#EA7600"/>
</svg>
