<svg width="1425" height="852" viewBox="0 0 1425 852" fill="none" xmlns="http://www.w3.org/2000/svg">
<path d="M-101.538 972.344L-160.5 913.401L-10.739 763.641C7.88399 744.903 30.04 730.047 54.446 719.933C78.852 709.818 105.022 704.647 131.44 704.718H132.855C159.531 704.811 185.917 710.244 210.459 720.697C235.001 731.15 257.202 746.411 275.752 765.58C283.39 773.484 292.533 779.779 302.644 784.091C312.754 788.404 323.626 790.647 334.617 790.689H335.199C346.09 790.72 356.879 788.588 366.941 784.418C377.002 780.247 386.136 774.121 393.812 766.394C409.047 750.997 417.692 730.276 417.917 708.616C418.141 686.957 409.927 666.06 395.014 650.351L348.48 601.879C333.387 587.191 321.377 569.637 313.156 550.248C304.934 530.858 300.666 510.022 300.601 488.962C300.537 467.901 304.677 447.04 312.78 427.6C320.883 408.16 332.785 390.534 347.788 375.754C362.791 360.974 380.594 349.337 400.153 341.527C419.712 333.717 440.63 329.889 461.69 330.27C482.75 330.65 503.52 335.23 522.78 343.741C542.05 352.253 559.42 364.524 573.88 379.836L750.78 561.336C771.05 582.003 798.63 593.859 827.57 594.338C856.51 594.817 884.47 583.881 905.41 563.896L908.28 561.162C919.42 550.566 928.32 537.835 934.45 523.729C940.57 509.622 943.79 494.427 943.92 479.049C944.11 463.857 941.25 448.78 935.49 434.719C929.74 420.658 921.21 407.901 910.41 397.209L857.15 344.044C842.29 329.214 830.5 311.601 822.46 292.212C814.41 272.823 810.26 252.038 810.25 231.046C810.24 210.053 814.37 189.264 822.4 169.868C830.43 150.472 842.21 132.85 857.05 118.007L861.78 113.199C876.59 98.2542 894.19 86.3778 913.59 78.2496C932.99 70.1215 953.81 65.9014 974.84 65.8311H975.44C996.27 65.782 1016.91 69.8701 1036.14 77.8582C1055.38 85.8463 1072.84 97.5753 1087.51 112.365L1090.5 115.351C1101.79 126.712 1115.21 135.722 1130.01 141.859C1144.8 147.996 1160.66 151.139 1176.68 151.104C1192.69 151.145 1208.54 148.012 1223.33 141.885C1238.12 135.758 1251.54 126.759 1262.83 115.409L1445.39 -67.1191L1504.35 -8.15722L1321.83 174.371C1302.81 193.483 1280.2 208.635 1255.29 218.952C1230.38 229.269 1203.68 234.546 1176.72 234.477C1149.75 234.538 1123.03 229.249 1098.12 218.915C1073.2 208.581 1050.58 193.408 1031.57 174.274L1028.53 171.366C1021.58 164.361 1013.3 158.806 1004.19 155.021C995.07 151.237 985.29 149.299 975.42 149.32H975.15C965.02 149.379 955 151.435 945.66 155.371C936.33 159.307 927.86 165.045 920.75 172.258L915.98 177.027C908.87 184.122 903.24 192.547 899.4 201.821C895.55 211.095 893.57 221.035 893.57 231.074C893.57 241.113 895.55 251.053 899.4 260.327C903.24 269.601 908.87 278.026 915.98 285.121L969.28 338.111C987.94 356.752 1002.69 378.94 1012.65 403.367C1022.61 427.794 1027.58 453.967 1027.28 480.345C1026.97 506.723 1021.39 532.773 1010.86 556.962C1000.33 581.15 985.07 602.988 965.98 621.19L963.13 623.943C926.36 659.232 877.12 678.556 826.16 677.707C775.2 676.857 726.64 655.901 691.06 619.406C634.84 561.705 566.53 491.652 514.16 437.887C507.25 430.89 499.02 425.323 489.96 421.504C480.89 417.685 471.17 415.689 461.33 415.63C451.49 415.57 441.74 417.449 432.63 421.158C423.524 424.867 415.234 430.334 408.237 437.247C401.24 444.16 395.673 452.383 391.854 461.447C388.036 470.512 386.039 480.239 385.98 490.075C385.921 499.911 387.799 509.662 391.508 518.772C395.217 527.882 400.684 536.172 407.597 543.169L408.198 543.789L455.06 592.63C477.63 616.151 492.78 645.785 498.65 677.85C504.51 709.914 500.82 742.994 488.04 772.979C475.26 802.964 453.94 828.531 426.748 846.502C399.554 864.474 367.678 874.057 335.082 874.061H333.919C311.875 873.965 290.073 869.454 269.799 860.796C249.526 852.138 231.192 839.508 215.879 823.65C205.018 812.448 192.026 803.531 177.668 797.425C163.31 791.318 147.876 788.144 132.274 788.09H131.44C115.974 788.048 100.653 791.074 86.365 796.995C72.077 802.916 59.106 811.614 48.203 822.584L-101.538 972.344Z" fill="white" fill-opacity="0.1"/>
</svg>
