<svg width="1425" height="852" viewBox="0 0 1425 852" fill="none" xmlns="http://www.w3.org/2000/svg">
<path d="M-104.391 920.364L-108.502 916.234L-92.157 899.889L-88.047 903.999L-104.391 920.364ZM-71.702 887.654L-75.812 883.544L-59.467 867.199L-55.357 871.309L-71.702 887.654ZM-38.992 854.965L-43.122 850.854L-26.719 834.47L-22.609 838.581L-38.992 854.965ZM335.079 835.285C328.018 835.276 320.97 834.692 314.003 833.54L314.973 827.723C322.404 828.961 329.932 829.512 337.464 829.371L337.561 835.188L335.079 835.285ZM361.061 832.628L359.878 826.928C367.252 825.398 374.469 823.191 381.438 820.336L383.649 825.707C376.347 828.701 368.786 831.018 361.061 832.628ZM291.26 827.51C283.848 824.8 276.707 821.398 269.932 817.35L272.899 812.367C279.37 816.222 286.185 819.468 293.257 822.061L291.26 827.51ZM-6.20599 822.275L-10.316 818.145L6.02899 801.8L10.12 805.91L-6.20599 822.275ZM404.647 814.732L401.467 809.846C407.784 805.74 413.704 801.053 419.15 795.847L423.163 800.055C417.421 805.507 411.191 810.42 404.55 814.732H404.647ZM250.737 803.448C248.333 801.296 245.948 799.027 243.68 796.701C240.577 793.521 237.32 790.438 233.985 787.549L237.863 783.167C241.314 786.153 244.688 789.352 247.906 792.648C250.078 794.878 252.346 797.03 254.654 799.085L250.737 803.448ZM26.426 789.876L22.548 785.571C28.368 780.295 34.563 775.448 41.084 771.068L44.322 775.896C38.026 780.117 32.045 784.789 26.426 789.876ZM438.62 782.256L433.89 778.843C438.3 772.754 442.13 766.262 445.33 759.454L450.6 761.917C447.24 769.051 443.23 775.86 438.62 782.256ZM215.837 773.938C209.467 769.866 202.812 766.257 195.925 763.138L198.309 757.845C205.465 761.068 212.373 764.814 218.978 769.052L215.837 773.938ZM63.963 764.67L61.462 759.435C68.546 756.048 75.869 753.183 83.371 750.865L85.097 756.41C77.864 758.654 70.801 761.414 63.963 764.67ZM174.616 755.441C167.335 753.373 159.916 751.825 152.416 750.807L153.191 744.99C160.975 746.038 168.673 747.645 176.225 749.799L174.616 755.441ZM107.181 751.292L106.289 745.475C114.046 744.266 121.88 743.618 129.731 743.536V749.353C122.18 749.425 114.644 750.04 107.181 751.195V751.292ZM458.57 739.658L452.93 738.223C454.79 730.922 455.99 723.465 456.49 715.945L462.31 716.333C461.78 724.201 460.53 732.002 458.57 739.639V739.658ZM455.93 693.415C455.04 685.931 453.47 678.545 451.22 671.351L456.78 669.625C459.13 677.161 460.78 684.898 461.71 692.737L455.93 693.415ZM442.49 650.546C438.95 643.901 434.79 637.598 430.09 631.72L434.62 628.094C439.56 634.247 443.92 640.848 447.63 647.813L442.49 650.546ZM829.36 639.068C825.48 639.068 821.41 638.932 817.48 638.622L817.92 632.805C825.46 633.377 833.03 633.377 840.57 632.805L841.02 638.622C837.16 638.932 833.24 639.068 829.38 639.068H829.36ZM864.26 635.093L862.94 629.432C870.31 627.723 877.54 625.454 884.56 622.646L886.73 628.055C879.45 630.969 871.95 633.322 864.3 635.093H864.26ZM794.19 635.093C786.54 633.318 779.03 630.958 771.74 628.036L773.91 622.626C780.92 625.447 788.15 627.722 795.51 629.432L794.19 635.093ZM907.85 617.643L904.88 612.641C911.39 608.786 917.6 604.437 923.44 599.631L927.12 604.129C921.04 609.123 914.59 613.647 907.83 617.663L907.85 617.643ZM750.62 617.527C743.86 613.503 737.42 608.965 731.35 603.955L735.05 599.476C740.9 604.275 747.09 608.624 753.59 612.486L750.62 617.527ZM414.613 614.89L398.598 598.196L402.786 594.183L418.801 610.857L414.613 614.89ZM944.3 588.23L940.09 584.217C945.32 578.764 950.13 572.931 954.5 566.767L959.25 570.121C954.72 576.518 949.72 582.57 944.3 588.23ZM714.39 587.998L698.25 571.439L702.42 567.387L718.55 583.945L714.39 587.998ZM382.621 581.638L376.029 574.774C372.767 571.491 369.693 568.028 366.819 564.401L371.375 560.795C374.124 564.264 377.069 567.572 380.197 570.703L386.828 577.605L382.621 581.638ZM682.1 554.881L665.97 538.323L670.12 534.271L686.27 550.829L682.1 554.881ZM971.39 549.918L966.19 547.281C969.62 540.479 972.53 533.427 974.9 526.185L980.42 528.008C977.96 535.493 974.94 542.784 971.39 549.821V549.918ZM354.042 544.489C350.472 537.399 347.627 529.968 345.549 522.308L351.153 520.757C353.159 527.998 355.887 535.02 359.296 541.716L354.042 544.489ZM649.82 521.745L633.67 505.187L637.84 501.115L653.97 517.693L649.82 521.745ZM986.14 505.362L980.33 504.373C981.62 496.915 982.36 489.371 982.56 481.804L988.37 481.94C988.2 489.759 987.45 497.554 986.14 505.265V505.362ZM341.419 499.041C341.206 496.132 341.09 493.224 341.09 490.258C341.09 485.286 341.401 480.319 342.021 475.386L347.837 476.104C347.249 480.799 346.951 485.526 346.945 490.258C346.945 493.03 347.062 495.842 347.256 498.614L341.419 499.041ZM617.52 488.532L601.48 471.896L605.56 468.018L621.69 484.557L617.52 488.532ZM981.51 459.061C980.57 451.555 979.09 444.129 977.07 436.841L982.67 435.29C984.79 442.841 986.35 450.541 987.32 458.324L981.51 459.061ZM585.26 455.416L569.12 438.935L573.27 434.883L589.42 451.441L585.26 455.416ZM352.762 454.155L347.256 452.216C349.763 444.719 353.01 437.49 356.95 430.637L361.991 433.545C358.236 440.091 355.144 446.995 352.762 454.155ZM553.01 422.28L541.98 410.957C540.31 409.25 538.59 407.583 536.84 405.993L540.72 401.689C542.54 403.356 544.36 405.101 546.11 406.885L557.14 418.228L553.01 422.28ZM969.43 415.513C966.35 408.609 962.75 401.946 958.67 395.581L963.55 392.44C967.79 399.055 971.53 405.976 974.74 413.148L969.43 415.513ZM375.137 415.358L370.755 411.48C372.461 409.541 374.264 407.602 376.126 405.78C379.857 402.036 383.835 398.544 388.031 395.329L391.579 399.944C387.58 403.002 383.79 406.325 380.236 409.89C378.511 411.655 376.727 413.497 375.098 415.358H375.137ZM518.77 392.595C512.31 388.752 505.48 385.556 498.39 383.056L500.33 377.569C507.79 380.194 514.97 383.558 521.76 387.612L518.77 392.595ZM410.696 388.116L408.156 382.881C415.258 379.415 422.689 376.667 430.34 374.68L431.81 380.303C424.518 382.199 417.432 384.817 410.658 388.116H410.696ZM476.52 377.724C469.07 376.684 461.54 376.379 454.03 376.813L453.7 370.996C461.59 370.552 469.51 370.877 477.34 371.965L476.52 377.724ZM945.04 377.472C942.73 374.835 940.31 372.237 937.82 369.716L929.16 361.069L933.23 356.92L941.97 365.645C944.55 368.204 947.07 370.899 949.46 373.633L945.04 377.472ZM912.68 344.685L896.31 328.418L900.4 324.307L916.79 340.633L912.68 344.685ZM879.97 311.724C874.68 305.845 869.98 299.461 865.93 292.664L870.93 289.698C874.78 296.161 879.26 302.233 884.29 307.827L879.97 311.724ZM855.91 271.24C853.28 263.79 851.39 256.101 850.26 248.283L856.08 247.449C857.16 254.897 858.97 262.222 861.47 269.32L855.91 271.24ZM854.98 224.958L849.16 224.667C849.57 216.771 850.74 208.934 852.67 201.265L858.31 202.68C856.48 210.006 855.36 217.493 854.98 225.036V224.958ZM1181.37 195.545L1181.21 189.728C1188.79 189.525 1196.34 188.787 1203.8 187.518L1204.77 193.238C1197.04 194.586 1189.22 195.383 1181.37 195.623V195.545ZM1157.95 194.634C1150.15 193.742 1142.43 192.31 1134.84 190.349L1136.29 184.726C1143.61 186.603 1151.04 187.97 1158.55 188.817L1157.95 194.634ZM1227.75 187.751L1225.81 182.225C1233.02 179.905 1240.05 177.087 1246.87 173.791L1249.41 179.006C1242.36 182.429 1235.07 185.351 1227.61 187.751H1227.75ZM1112.62 182.845C1105.37 179.82 1098.36 176.283 1091.62 172.259L1094.6 167.276C1101.11 171.148 1107.88 174.556 1114.87 177.474L1112.62 182.845ZM866.05 181.585L860.66 179.123C864.07 171.967 868.18 165.167 872.93 158.822L877.6 162.293C873.08 168.326 869.17 174.788 865.91 181.585H866.05ZM1269.94 167.256L1266.53 162.448C1272.79 158.196 1278.75 153.511 1284.36 148.43L1288.24 152.754C1282.44 158.011 1276.28 162.857 1269.8 167.256H1269.94ZM1072.33 158.822C1067.7 155.079 1063.28 151.092 1059.08 146.879L1055.21 143.001L1059.28 138.832L1063.16 142.71C1067.22 146.771 1071.49 150.616 1075.95 154.227L1072.33 158.822ZM892.8 145.424L888.69 141.314L889.35 140.655C894.71 135.29 900.55 130.429 906.8 126.132L910.12 130.902C904.17 135.014 898.61 139.654 893.5 144.765L892.8 145.424ZM1304.9 136.467L1300.79 132.356L1317.13 116.011L1321.24 120.122L1304.9 136.467ZM1037.46 128.886C1031.17 124.77 1024.48 121.301 1017.49 118.532L1019.65 113.2C1026.99 116.12 1034.02 119.764 1040.64 124.077L1037.46 128.886ZM929.62 119.986L927.32 114.654C934.56 111.501 942.1 109.066 949.83 107.383L951.07 113.064C943.71 114.668 936.53 116.987 929.62 119.986ZM995.86 112.231C989.12 110.973 982.28 110.324 975.42 110.292H973.48L973.38 104.475H975.48C982.68 104.479 989.87 105.128 996.96 106.414L995.86 112.231ZM1337.59 103.68L1333.48 99.6274L1349.9 83.3019L1354.01 87.4123L1337.59 103.68ZM1370.3 70.9705L1366.17 66.86L1382.53 50.5151L1386.74 54.7031L1370.3 70.9705ZM1402.99 38.3582L1398.88 34.2477L1415.22 17.9028L1419.33 22.0714L1402.99 38.3582ZM1435.68 5.66839L1431.57 1.55792L1447.91 -14.7676L1452.02 -10.6378L1435.68 5.66839Z" fill="white" fill-opacity="0.3"/>
</svg>
